{
.formatVersion = 3;
axes = (
{
name = Weight;
tag = wght;
}
);
classes = (
{
code = "gravecomb acutecomb circumflexcomb dotaccentcomb hookabovecomb ringcomb caroncomb commaturnedabovecomb";
name = ccmp1;
},
{
code = "i j iogonek iukrcyr jecyr itildebelow idotbelow i.superior i.locl i.superior.locl";
name = ccmp2;
},
{
code = "Alpha Epsilon Eta Iota Omicron Rho Upsilon uni03A9 Iotadieresis Upsilondieresis Alphabreve Alphawithmacron Alphaiotasub Etaiotasub Iotabreve Iotawithmacron Upsilonbreve Upsilonwithmacron Omegaiotasub Omega";
name = ccmp3;
},
{
code = "gravecomb acutecomb circumflexcomb tildecomb macroncomb brevecomb dotaccentcomb dieresiscomb hookabovecomb ringcomb hungarumlautcomb caroncomb dblgravecomb breveinvertedcomb commaturnedabovecomb titlocombcyr palatcombcyr dasiacombcyr psilicombcyr pokrytiecombcyr acutecomb.locl gravecomb.locl hookabovecomb.locl _1513 _1514 _1515 psilicombcyr_pokrytiecombcyr _1527 _1529 _1531 _1533 _1535 _1537 _1539 _1541";
name = ccmp4;
},
{

glyphs = (
{
glyphname = exclam;
layers = (
{
layerId = "DD7251A6-C35A-4560-A124-DA829078785F";
shapes = (
{
closed = 1;
nodes = (
(121,280,l),
(205,700,l),
(353,700,l),
(269,280,l)
);
},
{
closed = 1;
nodes = (
(157,-8,l),
(110,-11,o),
(76,16,o),
(62,57,cs),
(57,72,o),
(56,90,o),
(59,107,c),
(71,140,o),
(79,188,o),
(156,188,cs),
(205,188,o),
(265,161,o),
(254,73,c),
(254,18,o),
(198,-3,o),
(167,-8,c)
);
}
);
width = 400;
},
{
layerId = "39BC9D91-1289-454F-9557-B2BECA116F6B";
shapes = (
{
closed = 1;
nodes = (
(146,266,l),
(233,700,l),
(325,700,l),
(238,266,l)
);
},
{
closed = 1;
nodes = (
(151,-8,l),
(116,-10,o),
(92,10,o),
(83,40,cs),
(80,51,o),
(79,63,o),
(82,75,cs),
(88,101,o),
(102,132,o),
(151,132,cs),
(184,132,o),
(229,112,o),
(220,48,c),
(218,9,o),
(179,-5,o),
(157,-8,c)
);
}
);
width = 400;
},
{
layerId = "F450F4C4-4139-41FB-98F6-B6481F1E9B5F";
shapes = (
{
closed = 1;
nodes = (
(177,248,l),
(268,700,l),
(290,700,l),
(199,248,l)
);
},
{
closed = 1;
nodes = (
(124,-8,o),
(112,2,o),
(109,19,cs),
(108,25,o),
(108,30,o),
(110,36,c),
(110,52,o),
(130,61,o),
(144,61,cs),
(158,61,o),
(185,50,o),
(178,17,cs),
(174,-3,o),
(156,-8,o),
(144,-8,c)
);
}
);
width = 400;
}
);
unicode = 33;
},
{
glyphname = quotedbl;
layers = (
{
layerId = "DD7251A6-C35A-4560-A124-DA829078785F";
shapes = (
{
alignment = -1;
pos = (220,0);
ref = quotesingle;
},
{
alignment = -1;
pos = (-20,0);
ref = quotesingle;
}
);
width = 600;
},
{
layerId = "39BC9D91-1289-454F-9557-B2BECA116F6B";
shapes = (
{
closed = 1;
nodes = (
(406,451,l),
(418,544,o),
(436,639,o),
(456,735,c),
(556,735,l),
(546,687,o),
(536,639,o),
(526,592,cs),
(503,489,l),
(504,497,o),
(498,474,o),
(492,451,c)
);
},
{
closed = 1;
nodes = (
(166,451,l),
(178,544,o),
(196,639,o),
(216,735,c),
(316,735,l),
(306,687,o),
(296,639,o),
(286,592,cs),
(263,489,l),
(264,497,o),
(258,474,o),
(252,451,c)
);
}
);
width = 600;
},
{
layerId = "F450F4C4-4139-41FB-98F6-B6481F1E9B5F";
shapes = (
{
alignment = -1;
pos = (220,0);
ref = quotesingle;
},
{
alignment = -1;
pos = (-20,0);
ref = quotesingle;
}
);
width = 600;
}
);
unicode = 34;
},
{
glyphname = numbersign;
layers = (
{
layerId = "DD7251A6-C35A-4560-A124-DA829078785F";
shapes = (
{
closed = 1;
nodes = (
(-40,18,l),
(25,157,l),
(-48,157,l),
(-24,277,l),
(80,277,l),
(147,423,l),
(63,423,l),
(87,543,l),
(203,543,l),
(267,683,l),
(399,683,l),
(334,543,l),
(460,543,l),
(525,683,l),
(657,683,l),
(592,543,l),
(665,543,l),
(641,423,l),
(537,423,l),
(470,277,l),
(554,277,l),
(530,157,l),
(414,157,l),
(350,18,l),
(218,18,l),
(283,157,l),
(157,157,l),
(92,18,l)
);
},
{
closed = 1;
nodes = (
(212,277,l),
(338,277,l),
(405,423,l),
(279,423,l)
);
}
);
width = 600;
},
{
layerId = "39BC9D91-1289-454F-9557-B2BECA116F6B";
shapes = (
{
closed = 1;
nodes = (
(9,18,l),
(79,180,l),
(-13,180,l),
(2,254,l),
(113,254,l),
(195,446,l),
(92,446,l),
(107,520,l),
(230,520,l),
(299,683,l),
(382,683,l),
(312,520,l),
(455,520,l),
(525,683,l),
(608,683,l),
(538,520,l),
(630,520,l),
(615,446,l),
(504,446,l),
(422,254,l),
(525,254,l),
(510,180,l),
(387,180,l),
(318,18,l),
(235,18,l),
(305,180,l),
(162,180,l),
(92,18,l)
);
},
{
closed = 1;
nodes = (
(196,254,l),
(339,254,l),
(421,446,l),
(278,446,l)
);
}
);
width = 600;
},
{
layerId = "F450F4C4-4139-41FB-98F6-B6481F1E9B5F";
shapes = (
{
closed = 1;
nodes = (
(70,18,l),
(147,208,l),
(30,208,l),
(34,226,l),
(155,226,l),
(255,474,l),
(128,474,l),
(132,492,l),
(263,492,l),
(340,683,l),
(361,683,l),
(284,492,l),
(449,492,l),
(526,683,l),
(547,683,l),
(470,492,l),
(587,492,l),
(583,474,l),
(462,474,l),
(362,226,l),
(489,226,l),
(485,208,l),
(354,208,l),
(277,18,l),
(256,18,l),
(333,208,l),
(168,208,l),
(91,18,l)
);
},
{
closed = 1;
nodes = (
(176,226,l),
(341,226,l),
(441,474,l),
(276,474,l)
);
}
);
width = 600;
}
);
unicode = 35;
},
{
glyphname = dollar;
layers = (
{
layerId = "DD7251A6-C35A-4560-A124-DA829078785F";
shapes = (
{
closed = 1;
nodes = (
(155,-102,l),
(182,33,l),
(100,33,o),
(50,110,o),
(40,141,cs),
(35,157,o),
(32,174,o),
(33,192,c),
(33,201,o),
(35,211,o),
(37,220,c),
(39,230,l),
(185,230,l),
(185,229,o),
(184,227,o),
(184,226,c),
(182,217,o),
(182,208,o),
(183,200,cs),
(188,157,o),
(238,147,o),
(270,147,cs),
(308,147,o),
(365,156,o),
(375,201,c),
(375,201,o),
(375,201,o),
(375,201,c),
(379,233,o),
(364,259,o),
(324,276,cs),
(290,290,l),
(212,319,o),
(122,359,o),
(106,469,c),
(95,554,o),
(162,671,o),
(310,671,c),
(336,803,l),
(462,803,l),
(435,667,l),
(491,651,o),
(546,637,o),
(571,557,cs),
(575,545,o),
(577,533,o),
(577,520,cs),
(577,505,o),
(576,486,o),
(571,470,c),
(425,470,l),
(425,481,o),
(428,489,o),
(427,499,c),
(427,540,o),
(374,556,o),
(347,553,c),
(311,553,o),
(256,542,o),
(251,500,c),
(240,452,o),
(285,429,o),
(323,415,cs),
(346,407,l),
(417,379,o),
(508,332,o),
(520,231,cs),
(528,149,o),
(467,29,o),
(307,29,c),
(281,-102,l)
);
}
);
width = 600;
},
{
layerId = "39BC9D91-1289-454F-9557-B2BECA116F6B";
shapes = (
{
closed = 1;
nodes = (
(179,-102,l),
(205,30,l),
(119,30,o),
(53,89,o),
(43,141,c),
(39,157,o),
(38,174,o),
(40,192,c),
(40,197,o),
(41,203,o),
(42,208,cs),
(44,217,l),
(135,217,l),
(131,209,o),
(132,198,o),
(133,190,c),
(133,179,o),
(135,168,o),
(139,158,cs),
(158,111,o),
(216,102,o),
(261,102,cs),
(310,102,o),
(382,110,o),
(413,171,c),
(417,177,o),
(420,184,o),
(421,190,cs),
(430,244,o),
(390,277,o),
(331,300,c),
(292,314,ls),
(219,340,o),
(130,377,o),
(115,473,c),
(97,563,o),
(186,672,o),
(334,672,c),
(360,803,l),
(438,803,l),
(412,670,l),
(473,659,o),
(548,644,o),
(567,557,cs),
(570,543,o),
(571,529,o),
(569,515,c),
(569,505,o),
(568,494,o),
(566,483,c),
(475,483,l),
(475,497,o),
(479,509,o),
(478,523,cs),
(473,578,o),
(410,600,o),
(356,598,c),
(301,598,o),
(218,582,o),
(204,510,c),
(188,441,o),
(263,410,o),
(307,395,cs),
(338,384,ls),
(405,359,o),
(497,319,o),
(511,227,cs),
(524,135,o),
(442,28,o),
(283,28,c),
(257,-102,l)
);
}
);
width = 600;
},
{
layerId = "F450F4C4-4139-41FB-98F6-B6481F1E9B5F";
shapes = (
{
closed = 1;
nodes = (
(208,-102,l),
(234,27,l),
(142,27,o),
(57,62,o),
(47,142,cs),
(45,158,o),
(45,175,o),
(49,192,c),
(49,192,o),
(49,192,o),
(49,192,c),
(51,200,l),
(72,200,l),
(64,185,o),
(66,161,o),
(69,146,cs),
(71,131,o),
(77,118,o),
(85,106,cs),
(120,54,o),
(189,46,o),
(249,46,cs),
(312,46,o),
(404,53,o),
(461,134,cs),
(470,147,o),
(476,162,o),
(479,177,cs),
(494,258,o),
(423,300,o),
(339,329,cs),
(295,344,ls),
(227,367,o),
(141,399,o),
(126,478,c),
(100,575,o),
(215,673,o),
(363,673,c),
(389,803,l),
(409,803,l),
(383,673,l),
(450,669,o),
(550,653,o),
(562,557,cs),
(564,541,o),
(563,524,o),
(560,508,c),
(560,505,o),
(559,503,o),
(559,500,c),
(538,500,l),
(538,518,o),
(543,534,o),
(541,552,cs),
(531,626,o),
(454,654,o),
(368,654,cs),
(289,654,o),
(170,632,o),
(146,523,cs),
(124,427,o),
(236,387,o),
(286,370,cs),
(329,355,ls),
(391,333,o),
(483,302,o),
(499,222,cs),
(519,117,o),
(411,27,o),
(254,27,c),
(228,-102,l)
);
}
);
width = 600;
}
);
unicode = 36;
},
{
glyphname = percent;
layers = (
{
layerId = "DD7251A6-C35A-4560-A124-DA829078785F";
shapes = (
{
closed = 1;
nodes = (
(130,373,o),
(70,391,o),
(63,449,c),
(61,460,o),
(60,472,o),
(61,484,c),
(61,492,o),
(63,501,o),
(64,509,c),
(83,602,l),
(91,665,o),
(159,713,o),
(217,708,c),
(263,708,o),
(325,690,o),
(332,632,c),
(334,621,o),
(335,608,o),
(334,596,cs),
(333,588,o),
(332,580,o),
(330,572,cs),
(311,479,l),
(304,416,o),
(232,366,o),
(177,373,c)
);
},
{
closed = 1;
nodes = (
(101,0,l),
(-29,0,l),
(252,350,l),
(517,700,l),
(647,700,l),
(366,350,l)
);
},
{
closed = 1;
nodes = (
(204,463,o),
(206,505,o),
(208,515,cs),
(219,571,l),
(221,582,o),
(229,600,o),
(223,614,cs),
(222,617,o),
(220,618,o),
(217,618,cs),
(212,618,o),
(207,616,o),
(204,613,cs),
(193,602,o),
(193,588,o),
(189,575,c),
(176,512,l),
(175,499,o),
(170,485,o),
(170,472,cs),
(170,467,o),
(172,463,o),
(177,463,c)
);
},
{
closed = 1;
nodes = (
(354,-8,o),
(294,9,o),
(286,68,cs),
(284,79,o),
(283,91,o),
(284,103,c),
(284,111,o),
(286,120,o),
(287,128,c),
(306,221,l),
(313,283,o),
(379,332,o),
(440,327,c),
(489,327,o),
(547,309,o),
(554,251,c),
(556,240,o),
(557,228,o),
(556,216,c),
(556,208,o),
(554,199,o),
(553,191,c),
(534,98,l),
(527,38,o),
(457,-15,o),
(400,-8,c)
);
},
{
closed = 1;
nodes = (
(428,82,o),
(430,131,o),
(431,135,cs),
(441,188,ls),
(442,195,o),
(444,201,o),
(445,208,c),
(446,214,o),
(449,227,o),
(446,233,cs),
(445,236,o),
(443,237,o),
(440,237,cs),
(435,237,o),
(431,235,o),
(427,232,cs),
(414,219,o),
(413,203,o),
(410,190,c),
(399,129,l),
(396,116,o),
(393,105,o),
(393,91,cs),
(393,86,o),
(395,82,o),
(400,82,cs)
);
}
);
width = 600;
},
{
layerId = "39BC9D91-1289-454F-9557-B2BECA116F6B";
shapes = (
{
closed = 1;
nodes = (
(128,363,o),
(66,381,o),
(63,443,c),
(61,454,o),
(61,466,o),
(63,478,c),
(63,482,o),
(64,487,o),
(65,492,cs),
(87,604,l),
(96,668,o),
(165,711,o),
(228,708,c),
(275,708,o),
(340,690,o),
(344,628,cs),
(345,617,o),
(345,605,o),
(344,593,c),
(342,584,o),
(340,574,o),
(338,565,cs),
(319,468,l),
(308,402,o),
(240,359,o),
(178,363,c)
);
},
{
closed = 1;
nodes = (
(59,0,l),
(-25,0,l),
(272,350,l),
(559,700,l),
(643,700,l),
(346,350,l)
);
},
{
closed = 1;
nodes = (
(214,422,o),
(245,452,o),
(252,489,cs),
(271,581,l),
(273,598,o),
(276,621,o),
(264,638,cs),
(260,643,o),
(254,646,o),
(246,647,cs),
(237,649,o),
(228,648,o),
(220,647,cs),
(190,641,o),
(162,622,o),
(155,587,cs),
(136,492,l),
(131,464,o),
(137,441,o),
(156,429,cs),
(162,425,o),
(169,421,o),
(178,422,c)
);
},
{
closed = 1;
nodes = (
(338,-8,o),
(278,11,o),
(274,72,c),
(272,83,o),
(272,94,o),
(274,106,c),
(274,111,o),
(275,116,o),
(276,120,cs),
(298,232,l),
(308,295,o),
(371,340,o),
(439,337,c),
(489,337,o),
(550,319,o),
(554,257,cs),
(555,246,o),
(556,234,o),
(554,222,c),
(554,218,o),
(553,213,o),
(553,208,c),
(530,96,l),
(520,32,o),
(453,-12,o),
(389,-8,c)
);
},
{
closed = 1;
nodes = (
(425,50,o),
(457,84,o),
(463,119,c),
(481,208,ls),
(483,219,o),
(484,228,o),
(484,238,c),
(483,247,o),
(481,259,o),
(476,266,c),
(471,271,o),
(465,274,o),
(457,276,cs),
(449,277,o),
(440,277,o),
(432,276,c),
(402,268,o),
(371,249,o),
(365,214,cs),
(347,119,l),
(341,92,o),
(349,69,o),
(367,57,cs),
(373,53,o),
(380,50,o),
(389,50,cs)
);
}
);
width = 600;
},
{
layerId = "F450F4C4-4139-41FB-98F6-B6481F1E9B5F";
shapes = (
{
closed = 1;
nodes = (
(126,351,o),
(62,369,o),
(62,435,cs),
(62,446,o),
(63,458,o),
(66,470,c),
(66,470,o),
(66,470,o),
(66,470,c),
(93,606,l),
(102,672,o),
(172,708,o),
(242,708,cs),
(290,708,o),
(358,690,o),
(358,624,cs),
(358,612,o),
(358,601,o),
(356,590,cs),
(354,579,o),
(351,567,o),
(349,556,cs),
(328,454,ls),
(313,384,o),
(250,351,o),
(179,351,cs)
);
},
{
closed = 1;
nodes = (
(6,0,l),
(-20,0,l),
(296,350,l),
(612,700,l),
(638,700,l),
(322,350,l)
);
},
{
closed = 1;
nodes = (
(226,370,o),
(294,385,o),
(308,457,cs),
(335,593,l),
(339,619,o),
(335,648,o),
(316,667,cs),
(307,675,o),
(296,681,o),
(282,684,cs),
(268,687,o),
(255,689,o),
(241,689,cs),
(187,689,o),
(123,665,o),
(113,602,c),
(86,466,ls),
(77,420,o),
(95,385,o),
(138,375,cs),
(151,372,o),
(165,369,o),
(180,370,c)
);
},
{
closed = 1;
nodes = (
(319,-8,o),
(258,13,o),
(258,76,cs),
(258,87,o),
(259,98,o),
(262,110,c),
(262,110,o),
(262,110,o),
(262,110,c),
(289,246,ls),
(302,311,o),
(362,349,o),
(438,349,cs),
(488,349,o),
(554,331,o),
(554,264,cs),
(554,253,o),
(554,242,o),
(552,230,c),
(552,230,o),
(552,230,o),
(552,230,c),
(524,94,l),
(511,25,o),
(447,-8,o),
(375,-8,cs)
);
},
{
closed = 1;
nodes = (
(422,11,o),
(490,26,o),
(504,98,cs),
(531,234,ls),
(534,248,o),
(534,261,o),
(532,275,c),
(529,288,o),
(522,299,o),
(513,307,cs),
(503,315,o),
(492,321,o),
(479,325,cs),
(466,328,o),
(452,330,o),
(438,330,cs),
(386,330,o),
(319,307,o),
(309,243,c),
(282,107,ls),
(273,62,o),
(293,24,o),
(335,15,cs),
(348,12,o),
(362,11,o),
(376,11,cs)
);
}
);
width = 600;
}
);
unicode = 37;
},
{
glyphname = ampersand;
layers = (
{
layerId = "DD7251A6-C35A-4560-A124-DA829078785F";
shapes = (
{
closed = 1;
nodes = (
(212,-8,ls),
(129,-8,o),
(44,22,o),
(30,131,cs),
(15,238,o),
(91,327,o),
(180,371,c),
(166,398,ls),
(150,427,o),
(136,466,o),
(133,502,cs),
(126,599,o),
(210,721,o),
(345,708,c),
(412,708,o),
(469,688,o),
(503,626,c),
(514,603,o),
(521,577,o),
(522,550,c),
(529,441,o),
(446,363,o),
(357,319,c),
(359,315,o),
(361,310,o),
(364,306,cs),
(377,283,o),
(389,260,o),
(402,238,c),
(405,242,o),
(408,247,o),
(411,251,cs),
(457,318,l),
(599,318,l),
(489,159,ls),
(484,151,o),
(479,143,o),
(473,135,cs),
(464,124,l),
(533,0,l),
(385,0,l),
(357,51,l),
(325,19,o),
(268,-8,o),
(225,-8,cs)
);
},
{
closed = 1;
nodes = (
(299,419,l),
(346,443,o),
(387,484,o),
(387,543,c),
(387,568,o),
(377,597,o),
(345,597,cs),
(295,597,o),
(267,550,o),
(267,505,cs),
(267,477,o),
(280,447,o),
(295,425,c)
);
},
{
closed = 1;
nodes = (
(253,103,ls),
(275,103,o),
(296,113,o),
(315,127,c),
(254,239,l),
(252,244,o),
(248,248,o),
(246,253,c),
(239,267,l),
(199,246,o),
(165,207,o),
(165,163,c),
(165,124,o),
(204,107,o),
(237,103,c)
);
}
);
width = 600;
},
{
layerId = "39BC9D91-1289-454F-9557-B2BECA116F6B";
shapes = (
{
closed = 1;
nodes = (
(213,-8,ls),
(128,-8,o),
(50,22,o),
(36,129,cs),
(22,236,o),
(106,322,o),
(207,370,c),
(185,405,ls),
(166,434,o),
(149,470,o),
(144,508,cs),
(133,599,o),
(204,715,o),
(341,708,c),
(407,708,o),
(462,685,o),
(487,619,cs),
(495,597,o),
(499,573,o),
(498,549,cs),
(493,445,o),
(405,377,o),
(319,337,c),
(324,328,o),
(329,321,o),
(334,313,cs),
(361,270,o),
(386,228,o),
(413,185,c),
(416,189,o),
(419,194,o),
(423,199,cs),
(490,298,l),
(580,298,l),
(477,149,l),
(473,142,o),
(468,135,o),
(463,127,c),
(452,114,l),
(520,0,l),
(427,0,l),
(387,66,l),
(344,19,o),
(280,-8,o),
(221,-8,cs)
);
},
{
closed = 1;
nodes = (
(282,400,l),
(346,429,o),
(420,480,o),
(414,571,c),
(410,608,o),
(386,638,o),
(341,638,cs),
(279,638,o),
(215,587,o),
(227,509,cs),
(233,469,o),
(257,434,o),
(280,403,c)
);
},
{
closed = 1;
nodes = (
(238,62,ls),
(281,62,o),
(325,80,o),
(359,116,c),
(266,271,l),
(262,276,o),
(257,282,o),
(255,288,c),
(245,305,l),
(185,277,o),
(113,225,o),
(121,148,c),
(123,89,o),
(174,64,o),
(229,62,c)
);
}
);
width = 600;
},
{
layerId = "F450F4C4-4139-41FB-98F6-B6481F1E9B5F";
shapes = (
{
closed = 1;
nodes = (
(126,-8,o),
(57,23,o),
(44,127,cs),
(31,233,o),
(125,315,o),
(241,368,c),
(208,413,ls),
(185,443,o),
(165,475,o),
(157,515,cs),
(141,598,o),
(197,708,o),
(336,708,cs),
(400,708,o),
(454,681,o),
(468,611,cs),
(472,590,o),
(471,569,o),
(467,548,cs),
(449,451,o),
(354,395,o),
(272,360,c),
(280,345,o),
(289,335,o),
(297,322,cs),
(340,254,o),
(383,187,o),
(426,119,c),
(430,123,o),
(433,128,o),
(437,133,cs),
(532,272,l),
(557,272,l),
(463,136,ls),
(459,130,o),
(455,124,o),
(451,118,cs),
(438,101,l),
(504,0,l),
(480,0,l),
(425,85,l),
(368,20,o),
(294,-8,o),
(215,-8,c)
);
},
{
closed = 1;
nodes = (
(345,411,o),
(462,474,o),
(448,605,c),
(439,659,o),
(397,689,o),
(336,689,cs),
(260,689,o),
(151,634,o),
(178,514,cs),
(190,460,o),
(228,417,o),
(261,376,c)
);
},
{
closed = 1;
nodes = (
(288,11,o),
(361,38,o),
(413,103,c),
(280,312,l),
(274,317,o),
(269,325,o),
(266,332,c),
(253,352,l),
(168,316,o),
(49,248,o),
(65,129,c),
(70,46,o),
(137,11,o),
(219,11,c)
);
}
);
width = 600;
}
);
unicode = 38;
},
{
glyphname = quotesingle;
layers = (
{
layerId = "DD7251A6-C35A-4560-A124-DA829078785F";
shapes = (
{
closed = 1;
nodes = (
(159,451,l),
(169,543,o),
(185,640,o),
(205,735,c),
(367,735,l),
(357,687,o),
(347,639,o),
(336,592,cs),
(318,521,ls),
(312,497,o),
(306,474,o),
(299,451,c)
);
}
);
width = 400;
},
{
layerId = "39BC9D91-1289-454F-9557-B2BECA116F6B";
shapes = (
{
closed = 1;
nodes = (
(186,451,l),
(198,544,o),
(216,639,o),
(236,735,c),
(336,735,l),
(326,687,o),
(316,639,o),
(306,592,cs),
(283,489,l),
(284,497,o),
(278,474,o),
(272,451,c)
);
}
);
width = 400;
},
{
layerId = "F450F4C4-4139-41FB-98F6-B6481F1E9B5F";
shapes = (
{
closed = 1;
nodes = (
(219,450,l),
(235,545,o),
(254,638,o),
(274,735,c),
(298,735,l),
(288,687,o),
(277,640,o),
(268,593,cs),
(239,450,l),
(249,498,o),
(244,474,o),
(239,450,c)
);
}
);
width = 400;
}
);
unicode = 39;
},
{
glyphname = parenleft;
layers = (
{
layerId = "DD7251A6-C35A-4560-A124-DA829078785F";
shapes = (
{
closed = 1;
nodes = (
(337,-194,l),
(190,-126,o),
(102,25,o),
(107,193,cs),
(114,467,o),
(288,707,o),
(537,808,c),
(593,698,l),
(403,618,o),
(276,438,o),
(254,228,cs),
(252,209,o),
(251,190,o),
(252,172,cs),
(259,67,o),
(302,-38,o),
(401,-87,c)
);
}
);
width = 600;
},
{
layerId = "39BC9D91-1289-454F-9557-B2BECA116F6B";
shapes = (
{
closed = 1;
nodes = (
(350,-194,l),
(194,-122,o),
(117,34,o),
(123,197,cs),
(133,441,o),
(274,697,o),
(550,808,c),
(585,739,l),
(363,647,o),
(232,439,o),
(214,217,cs),
(212,192,o),
(212,167,o),
(215,143,cs),
(227,30,o),
(282,-74,o),
(390,-127,c)
);
}
);
width = 600;
},
{
layerId = "F450F4C4-4139-41FB-98F6-B6481F1E9B5F";
shapes = (
{
closed = 1;
nodes = (
(367,-194,l),
(200,-116,o),
(135,46,o),
(144,203,cs),
(156,409,o),
(257,684,o),
(567,808,c),
(575,791,l),
(314,684,o),
(178,440,o),
(164,203,cs),
(162,170,o),
(163,138,o),
(168,107,cs),
(187,-17,o),
(257,-118,o),
(376,-177,c)
);
}
);
width = 600;
}
);
unicode = 40;
},
{
glyphname = parenright;
layers = (
{
layerId = "DD7251A6-C35A-4560-A124-DA829078785F";
shapes = (
{
closed = 1;
nodes = (
(7,-84,l),
(204,-3,o),
(327,191,o),
(347,390,cs),
(349,410,o),
(349,429,o),
(348,449,cs),
(343,552,o),
(293,654,o),
(199,701,c),
(263,808,l),
(401,739,o),
(500,606,o),
(493,422,cs),
(486,159,o),
(317,-109,o),
(63,-194,c)
);
}
);
width = 600;
},
{
layerId = "39BC9D91-1289-454F-9557-B2BECA116F6B";
shapes = (
{
closed = 1;
nodes = (
(15,-125,l),
(229,-36,o),
(368,170,o),
(387,399,cs),
(389,425,o),
(388,449,o),
(385,475,cs),
(374,584,o),
(318,687,o),
(210,741,c),
(250,808,l),
(387,740,o),
(485,604,o),
(477,417,c),
(466,165,o),
(318,-94,o),
(50,-194,c)
);
}
);
width = 600;
},
{
layerId = "F450F4C4-4139-41FB-98F6-B6481F1E9B5F";
shapes = (
{
closed = 1;
nodes = (
(25,-177,l),
(261,-77,o),
(420,144,o),
(436,410,cs),
(438,443,o),
(436,475,o),
(431,507,cs),
(412,624,o),
(349,729,o),
(224,791,c),
(233,808,l),
(370,742,o),
(467,602,o),
(456,411,cs),
(442,173,o),
(320,-76,o),
(33,-194,c)
);
}
);
width = 600;
}
);
unicode = 41;
},
{
glyphname = asterisk;
layers = (
{
layerId = "DD7251A6-C35A-4560-A124-DA829078785F";
shapes = (
{
closed = 1;
nodes = (
(173,71,l),
(65,152,l),
(202,285,l),
(62,325,l),
(109,438,l),
(252,380,l),
(277,560,l),
(420,537,l),
(381,388,l),
(523,439,l),
(565,324,l),
(383,278,l),
(468,140,l),
(338,84,l),
(285,205,l)
);
}
);
width = 600;
},
{
layerId = "39BC9D91-1289-454F-9557-B2BECA116F6B";
shapes = (
{
closed = 1;
nodes = (
(153,86,l),
(85,137,l),
(239,293,l),
(71,346,l),
(100,417,l),
(271,352,l),
(304,556,l),
(393,541,l),
(350,357,l),
(531,418,l),
(557,346,l),
(351,289,l),
(443,129,l),
(363,94,l),
(291,244,l)
);
}
);
width = 600;
},
{
layerId = "F450F4C4-4139-41FB-98F6-B6481F1E9B5F";
shapes = (
{
closed = 1;
nodes = (
(127,105,l),
(111,118,l),
(286,304,l),
(82,373,l),
(89,391,l),
(294,317,l),
(338,550,l),
(359,547,l),
(311,318,l),
(542,391,l),
(548,373,l),
(312,303,l),
(412,116,l),
(394,107,l),
(298,293,l)
);
}
);
width = 600;
}
);
unicode = 42;
},
{
glyphname = plus;
layers = (
{
layerId = "DD7251A6-C35A-4560-A124-DA829078785F";
shapes = (
{
closed = 1;
nodes = (
(317,62,l),
(185,62,l),
(223,254,l),
(53,254,l),
(75,360,l),
(245,360,l),
(283,552,l),
(415,552,l),
(377,360,l),
(547,360,l),
(525,254,l),
(355,254,l)
);
}
);
width = 600;
},
{
layerId = "39BC9D91-1289-454F-9557-B2BECA116F6B";
shapes = (
{
closed = 1;
nodes = (
(294,70,l),
(212,70,l),
(252,274,l),
(65,274,l),
(79,340,l),
(266,340,l),
(306,544,l),
(388,544,l),
(348,340,l),
(535,340,l),
(521,274,l),
(334,274,l)
);
}
);
width = 600;
},
{
layerId = "F450F4C4-4139-41FB-98F6-B6481F1E9B5F";
shapes = (
{
closed = 1;
nodes = (
(265,80,l),
(245,80,l),
(288,298,l),
(80,298,l),
(84,316,l),
(292,316,l),
(335,534,l),
(355,534,l),
(312,316,l),
(520,316,l),
(516,298,l),
(308,298,l)
);
}
);
width = 600;
}
);
unicode = 43;
},
{
glyphname = comma;
layers = (
{
layerId = "DD7251A6-C35A-4560-A124-DA829078785F";
shapes = (
{
closed = 1;
nodes = (
(-19,-121,l),
(27,-95,o),
(85,-53,o),
(109,-5,c),
(92,-3,o),
(75,5,o),
(63,17,cs),
(41,39,o),
(31,68,o),
(31,100,c),
(31,111,o),
(31,121,o),
(34,130,c),
(39,169,o),
(80,215,o),
(138,208,c),
(148,209,o),
(158,208,o),
(167,206,cs),
(197,199,o),
(227,181,o),
(242,141,cs),
(245,133,o),
(246,124,o),
(247,115,c),
(252,51,o),
(213,-32,o),
(171,-88,cs),
(139,-132,o),
(95,-176,o),
(48,-205,c)
);
}
);
width = 400;
},
{
layerId = "39BC9D91-1289-454F-9557-B2BECA116F6B";
shapes = (
{
closed = 1;
nodes = (
(17,-153,l),
(63,-112,o),
(106,-62,o),
(127,-5,c),
(116,-4,o),
(104,-1,o),
(96,6,c),
(77,18,o),
(65,39,o),
(64,61,cs),
(63,69,o),
(63,77,o),
(65,85,c),
(67,112,o),
(93,145,o),
(133,143,c),
(140,144,o),
(147,144,o),
(154,142,c),
(179,139,o),
(203,123,o),
(212,91,c),
(213,83,o),
(214,74,o),
(214,66,c),
(212,11,o),
(187,-51,o),
(155,-100,c),
(131,-139,o),
(98,-177,o),
(62,-205,c)
);
}
);
width = 400;
},
{
layerId = "F450F4C4-4139-41FB-98F6-B6481F1E9B5F";
shapes = (
{
closed = 1;
nodes = (
(63,-193,l),
(107,-133,o),
(132,-74,o),
(149,-6,c),
(145,-6,o),
(141,-8,o),
(138,-8,cs),
(121,-8,o),
(108,2,o),
(105,13,c),
(103,17,o),
(103,22,o),
(103,28,cs),
(103,41,o),
(109,57,o),
(127,62,c),
(131,62,o),
(134,63,o),
(138,63,cs),
(156,63,o),
(174,50,o),
(174,28,cs),
(174,20,o),
(173,12,o),
(172,4,c),
(161,-38,o),
(154,-74,o),
(135,-115,cs),
(120,-147,o),
(101,-178,o),
(80,-205,c)
);
}
);
width = 400;
}
);
unicode = 44;
},
{
glyphname = hyphen;
layers = (
{
layerId = "DD7251A6-C35A-4560-A124-DA829078785F";
shapes = (
{
closed = 1;
nodes = (
(424,247,l),
(52,247,l),
(76,367,l),
(448,367,l)
);
}
);
width = 500;
},
{
layerId = "39BC9D91-1289-454F-9557-B2BECA116F6B";
shapes = (
{
closed = 1;
nodes = (
(420,270,l),
(64,270,l),
(80,344,l),
(436,344,l)
);
}
);
width = 500;
},
{
layerId = "F450F4C4-4139-41FB-98F6-B6481F1E9B5F";
shapes = (
{
closed = 1;
nodes = (
(416,298,l),
(80,298,l),
(84,316,l),
(420,316,l)
);
}
);
width = 500;
}
);
unicode = 45;
},
{
glyphname = period;
layers = (
{
layerId = "DD7251A6-C35A-4560-A124-DA829078785F";
shapes = (
{
closed = 1;
nodes = (
(106,-11,o),
(64,22,o),
(53,72,cs),
(50,87,o),
(50,102,o),
(52,118,c),
(59,150,o),
(76,215,o),
(158,208,c),
(214,208,o),
(278,174,o),
(266,81,c),
(266,29,o),
(209,-9,o),
(170,-9,cs),
(166,-9,o),
(163,-9,o),
(159,-8,c)
);
}
);
width = 400;
},
{
layerId = "39BC9D91-1289-454F-9557-B2BECA116F6B";
shapes = (
{
closed = 1;
nodes = (
(114,-10,o),
(85,12,o),
(77,49,cs),
(75,60,o),
(75,70,o),
(77,82,cs),
(81,108,o),
(101,147,o),
(152,144,c),
(191,144,o),
(237,118,o),
(227,53,c),
(226,17,o),
(188,-9,o),
(158,-9,c),
(158,-9,o),
(155,-9,o),
(152,-8,c)
);
}
);
width = 400;
},
{
layerId = "F450F4C4-4139-41FB-98F6-B6481F1E9B5F";
shapes = (
{
closed = 1;
nodes = (
(125,-8,o),
(111,0,o),
(108,20,cs),
(107,26,o),
(107,31,o),
(109,37,c),
(109,56,o),
(132,63,o),
(144,63,cs),
(163,63,o),
(185,48,o),
(179,18,cs),
(175,1,o),
(161,-8,o),
(144,-8,c),
(148,-8,o),
(146,-8,o),
(144,-8,cs)
);
}
);
width = 400;
}
);
unicode = 46;
},
{
glyphname = slash;
layers = (
{
layerId = "DD7251A6-C35A-4560-A124-DA829078785F";
shapes = (
{
closed = 1;
nodes = (
(-49,-176,l),
(497,790,l),
(649,790,l),
(103,-176,l)
);
}
);
width = 600;
},
{
layerId = "39BC9D91-1289-454F-9557-B2BECA116F6B";
shapes = (
{
closed = 1;
nodes = (
(-35,-176,l),
(540,790,l),
(635,790,l),
(60,-176,l)
);
}
);
width = 600;
},
{
layerId = "F450F4C4-4139-41FB-98F6-B6481F1E9B5F";
shapes = (
{
closed = 1;
nodes = (
(-17,-176,l),
(594,790,l),
(617,790,l),
(6,-176,l)
);
}
);
width = 600;
}
);
unicode = 47;
},
{
glyphname = zero;
layers = (
{
anchors = (
{
name = mark0;
position = "{379, 700}";
},
{
name = mark0.1;
position = "{615, 700}";
},
{
name = mark0.2;
position = "{239, 0}";
},
{
name = mark0.3;
position = "{311, 364}";
},
{
name = mark0.4;
position = "{309, 350}";
}
);
layerId = "DD7251A6-C35A-4560-A124-DA829078785F";
shapes = (
{
closed = 1;
nodes = (
(138,-14,o),
(55,71,o),
(55,239,cs),
(55,629,o),
(304,708,o),
(362,708,c),
(481,714,o),
(563,621,o),
(563,461,cs),
(563,201,o),
(425,-8,o),
(255,-8,c)
);
},
{
closed = 1;
nodes = (
(342,112,o),
(380,254,o),
(387,276,c),
(390,286,o),
(392,296,o),
(395,306,cs),
(405,346,l),
(411,378,l),
(417,421,l),
(419,442,o),
(421,464,o),
(419,485,c),
(419,521,o),
(413,588,o),
(362,588,cs),
(355,588,o),
(348,587,o),
(341,585,cs),
(249,558,o),
(226,410,o),
(230,423,c),
(213,365,o),
(203,306,o),
(198,247,cs),
(197,236,o),
(197,226,o),
(197,215,c),
(199,178,o),
(204,112,o),
(255,112,cs)
);
}
);
width = 600;
},
{
anchors = (
{
name = mark0;
position = "{379, 700}";
},
{
name = mark0.1;
position = "{615, 700}";
},
{
name = mark0.2;
position = "{239, 0}";
},
{
name = mark0.3;
position = "{311, 364}";
},
{
name = mark0.4;
position = "{309, 350}";
}
);
layerId = "39BC9D91-1289-454F-9557-B2BECA116F6B";
shapes = (
{
closed = 1;
nodes = (
(136,-11,o),
(57,70,o),
(61,240,c),
(67,573,o),
(261,708,o),
(368,708,c),
(481,711,o),
(559,624,o),
(556,460,cs),
(551,202,o),
(422,-8,o),
(249,-8,c)
);
},
{
closed = 1;
nodes = (
(335,67,o),
(402,172,o),
(430,256,c),
(434,270,o),
(438,283,o),
(441,297,c),
(453,343,l),
(460,386,l),
(466,435,l),
(468,462,o),
(469,491,o),
(464,519,c),
(459,562,o),
(444,621,o),
(392,629,c),
(380,632,o),
(368,632,o),
(356,631,c),
(256,616,o),
(204,493,o),
(187,443,cs),
(163,367,o),
(151,289,o),
(150,223,cs),
(150,208,o),
(151,195,o),
(153,181,cs),
(161,129,o),
(180,67,o),
(249,67,cs)
);
}
);
width = 600;
},
{
anchors = (
{
name = mark0;
position = "{379, 700}";
},
{
name = mark0.1;
position = "{615, 700}";
},
{
name = mark0.2;
position = "{239, 0}";
},
{
name = mark0.3;
position = "{311, 364}";
},
{
name = mark0.4;
position = "{309, 350}";
}
);
layerId = "F450F4C4-4139-41FB-98F6-B6481F1E9B5F";
shapes = (
{
closed = 1;
nodes = (
(134,-8,o),
(60,68,o),
(69,242,cs),
(83,504,o),
(208,708,o),
(376,708,cs),
(482,708,o),
(555,628,o),
(547,458,cs),
(535,204,o),
(419,-8,o),
(241,-8,cs)
);
},
{
closed = 1;
nodes = (
(327,11,o),
(429,70,o),
(483,231,c),
(488,249,o),
(495,267,o),
(499,285,cs),
(512,340,l),
(521,396,l),
(527,452,l),
(529,488,o),
(528,525,o),
(520,561,cs),
(508,614,o),
(482,662,o),
(430,680,cs),
(412,686,o),
(394,689,o),
(375,689,cs),
(265,689,o),
(177,597,o),
(134,468,cs),
(101,370,o),
(86,267,o),
(90,192,cs),
(91,174,o),
(93,156,o),
(97,138,cs),
(113,68,o),
(151,11,o),
(242,11,cs)
);
}
);
width = 600;
}
);
unicode = 48;
},
{
glyphname = one;
layers = (
{
anchors = (
{
name = mark0;
position = "{379, 700}";
},
{
name = mark0.1;
position = "{615, 700}";
},
{
name = mark0.2;
position = "{239, 0}";
},
{
name = mark0.3;
position = "{311, 364}";
},
{
name = mark0.4;
position = "{309, 350}";
}
);
layerId = "DD7251A6-C35A-4560-A124-DA829078785F";
shapes = (
{
closed = 1;
nodes = (
(52,0,l),
(52,40,o),
(52,80,o),
(52,120,c),
(197,120,l),
(256,419,l),
(138,419,l),
(138,459,o),
(138,499,o),
(138,539,c),
(280,539,l),
(313,700,l),
(460,700,l),
(344,120,l),
(455,120,l),
(455,80,o),
(455,40,o),
(455,0,c)
);
}
);
width = 600;
},
{
anchors = (
{
name = mark0;
position = "{379, 700}";
},
{
name = mark0.1;
position = "{615, 700}";
},
{
name = mark0.2;
position = "{239, 0}";
},
{
name = mark0.3;
position = "{311, 364}";
},
{
name = mark0.4;
position = "{309, 350}";
}
);
layerId = "39BC9D91-1289-454F-9557-B2BECA116F6B";
shapes = (
{
closed = 1;
nodes = (
(47,0,l),
(47,25,o),
(46,50,o),
(46,75,c),
(216,75,l),
(296,479,l),
(147,479,l),
(147,504,o),
(146,530,o),
(146,555,c),
(311,555,l),
(341,700,l),
(432,700,l),
(307,75,l),
(449,75,l),
(449,50,o),
(450,25,o),
(450,0,c)
);
}
);
width = 600;
},
{
anchors = (
{
name = mark0;
position = "{379, 700}";
},
{
name = mark0.1;
position = "{615, 700}";
},
{
name = mark0.2;
position = "{239, 0}";
},
{
name = mark0.3;
position = "{311, 364}";
},
{
name = mark0.4;
position = "{309, 350}";
}
);
layerId = "F450F4C4-4139-41FB-98F6-B6481F1E9B5F";
shapes = (
{
closed = 1;
nodes = (
(40,0,l),
(40,6,o),
(39,13,o),
(39,19,c),
(239,19,l),
(347,555,l),
(158,555,l),
(158,561,o),
(157,568,o),
(157,574,c),
(350,574,l),
(376,700,l),
(397,700,l),
(260,19,l),
(442,19,l),
(442,13,o),
(443,6,o),
(443,0,c)
);
}
);
width = 600;
}
);
unicode = 49;
},
{
glyphname = two;
layers = (
{
anchors = (
{
name = mark0;
position = "{379, 700}";
},
{
name = mark0.1;
position = "{615, 700}";
},
{
name = mark0.2;
position = "{239, 0}";
},
{
name = mark0.3;
position = "{311, 364}";
},
{
name = mark0.4;
position = "{309, 350}";
}
);
layerId = "DD7251A6-C35A-4560-A124-DA829078785F";
shapes = (
{
closed = 1;
nodes = (
(3,0,l),
(27,120,l),
(321,352,l),
(321,352,o),
(321,352,o),
(321,352,c),
(345,370,o),
(368,389,o),
(388,411,cs),
(405,430,o),
(429,463,o),
(429,490,c),
(434,506,o),
(434,522,o),
(431,535,cs),
(423,569,o),
(395,591,o),
(355,588,c),
(306,591,o),
(255,556,o),
(248,506,c),
(248,506,o),
(248,505,o),
(248,505,c),
(102,505,l),
(102,639,o),
(254,689,o),
(259,691,cs),
(294,704,o),
(331,708,o),
(367,708,cs),
(457,708,o),
(552,677,o),
(575,576,c),
(579,556,o),
(580,534,o),
(578,512,c),
(573,417,o),
(522,332,o),
(414,260,c),
(236,120,l),
(499,120,l),
(475,0,l)
);
}
);
width = 600;
},
{
anchors = (
{
name = mark0;
position = "{379, 700}";
},
{
name = mark0.1;
position = "{615, 700}";
},
{
name = mark0.2;
position = "{239, 0}";
},
{
name = mark0.3;
position = "{311, 364}";
},
{
name = mark0.4;
position = "{309, 350}";
}
);
layerId = "39BC9D91-1289-454F-9557-B2BECA116F6B";
shapes = (
{
closed = 1;
nodes = (
(11,0,l),
(26,75,l),
(357,344,l),
(357,344,o),
(357,344,o),
(357,344,c),
(370,355,o),
(400,379,o),
(416,395,c),
(450,427,o),
(482,473,o),
(482,526,c),
(485,542,o),
(482,558,o),
(478,571,c),
(461,616,o),
(414,635,o),
(364,633,c),
(300,635,o),
(217,602,o),
(203,521,c),
(203,520,o),
(203,519,o),
(203,518,c),
(113,518,l),
(113,628,o),
(240,683,o),
(265,692,cs),
(299,704,o),
(336,708,o),
(372,708,cs),
(455,708,o),
(557,681,o),
(572,575,cs),
(575,556,o),
(575,535,o),
(572,515,cs),
(561,424,o),
(505,351,o),
(414,287,c),
(156,75,l),
(482,75,l),
(467,0,l)
);
}
);
width = 600;
},
{
anchors = (
{
name = mark0;
position = "{379, 700}";
},
{
name = mark0.1;
position = "{615, 700}";
},
{
name = mark0.2;
position = "{239, 0}";
},
{
name = mark0.3;
position = "{311, 364}";
},
{
name = mark0.4;
position = "{309, 350}";
}
);
layerId = "F450F4C4-4139-41FB-98F6-B6481F1E9B5F";
shapes = (
{
closed = 1;
nodes = (
(21,0,l),
(24,19,l),
(401,334,l),
(401,334,o),
(401,335,o),
(401,335,c),
(401,336,o),
(440,366,o),
(450,375,cs),
(506,423,o),
(548,485,o),
(548,571,cs),
(548,586,o),
(543,602,o),
(537,615,cs),
(509,674,o),
(438,689,o),
(376,689,cs),
(293,689,o),
(170,660,o),
(147,539,c),
(147,538,o),
(147,536,o),
(147,535,c),
(126,535,l),
(126,615,o),
(223,675,o),
(273,693,cs),
(306,705,o),
(343,708,o),
(378,708,cs),
(453,708,o),
(563,686,o),
(569,573,c),
(569,555,o),
(568,536,o),
(564,518,cs),
(546,432,o),
(483,375,o),
(415,320,c),
(55,19,l),
(460,19,l),
(457,0,l)
);
}
);
width = 600;
}
);
unicode = 50;
},
{
glyphname = three;
layers = (
{
anchors = (
{
name = mark0;
position = "{379, 700}";
},
{
name = mark0.1;
position = "{615, 700}";
},
{
name = mark0.2;
position = "{239, 0}";
},
{
name = mark0.3;
position = "{311, 364}";
},
{
name = mark0.4;
position = "{309, 350}";
}
);
layerId = "DD7251A6-C35A-4560-A124-DA829078785F";
shapes = (
{
closed = 1;
nodes = (
(254,-8,ls),
(168,-8,o),
(66,7,o),
(34,103,cs),
(29,117,o),
(27,132,o),
(27,148,c),
(27,163,o),
(28,182,o),
(32,195,c),
(178,195,l),
(178,184,o),
(175,176,o),
(176,166,cs),
(181,126,o),
(230,108,o),
(266,112,c),
(326,103,o),
(377,158,o),
(381,191,c),
(383,200,o),
(383,208,o),
(382,216,c),
(374,274,o),
(313,305,o),
(251,297,c),
(275,417,l),
(334,417,o),
(406,426,o),
(430,510,cs),
(432,519,o),
(432,527,o),
(431,535,cs),
(428,568,o),
(395,588,o),
(357,588,c),
(309,594,o),
(261,550,o),
(256,507,c),
(256,505,l),
(110,505,l),
(110,593,o),
(217,668,o),
(224,672,cs),
(268,697,o),
(319,708,o),
(369,708,cs),
(448,708,o),
(544,687,o),
(570,588,cs),
(575,569,o),
(578,549,o),
(578,529,c),
(578,450,o),
(529,384,o),
(450,350,c),
(506,313,o),
(539,245,o),
(524,169,c),
(505,49,o),
(374,-8,o),
(265,-8,cs)
);
}
);
width = 600;
},
{
anchors = (
{
name = mark0;
position = "{379, 700}";
},
{
name = mark0.1;
position = "{615, 700}";
},
{
name = mark0.2;
position = "{239, 0}";
},
{
name = mark0.3;
position = "{311, 364}";
},
{
name = mark0.4;
position = "{309, 350}";
}
);
layerId = "39BC9D91-1289-454F-9557-B2BECA116F6B";
shapes = (
{
closed = 1;
nodes = (
(249,-8,ls),
(163,-8,o),
(62,9,o),
(37,104,cs),
(33,119,o),
(32,136,o),
(34,152,c),
(34,161,o),
(35,174,o),
(37,182,c),
(128,182,l),
(124,168,o),
(123,153,o),
(125,142,cs),
(135,85,o),
(198,65,o),
(257,67,c),
(320,62,o),
(410,97,o),
(427,180,cs),
(430,194,o),
(430,207,o),
(428,220,c),
(414,294,o),
(348,328,o),
(258,323,c),
(273,398,l),
(341,398,o),
(451,404,o),
(480,520,c),
(482,532,o),
(483,543,o),
(481,554,c),
(476,604,o),
(432,633,o),
(366,633,c),
(301,636,o),
(224,597,o),
(211,521,c),
(211,518,l),
(121,518,l),
(121,591,o),
(209,660,o),
(226,671,c),
(272,698,o),
(323,708,o),
(374,708,cs),
(452,708,o),
(548,685,o),
(568,585,cs),
(571,567,o),
(573,548,o),
(571,529,c),
(560,447,o),
(505,382,o),
(416,357,c),
(483,326,o),
(532,258,o),
(516,166,cs),
(494,51,o),
(376,-8,o),
(255,-8,cs)
);
}
);
width = 600;
},
{
anchors = (
{
name = mark0;
position = "{379, 700}";
},
{
name = mark0.1;
position = "{615, 700}";
},
{
name = mark0.2;
position = "{239, 0}";
},
{
name = mark0.3;
position = "{311, 364}";
},
{
name = mark0.4;
position = "{309, 350}";
}
);
layerId = "F450F4C4-4139-41FB-98F6-B6481F1E9B5F";
shapes = (
{
closed = 1;
nodes = (
(157,-8,o),
(57,12,o),
(41,105,cs),
(38,122,o),
(38,140,o),
(42,158,c),
(42,159,o),
(43,164,o),
(44,165,c),
(65,165,l),
(57,149,o),
(59,125,o),
(62,111,cs),
(77,34,o),
(158,11,o),
(245,11,cs),
(312,11,o),
(451,21,o),
(485,166,c),
(489,186,o),
(488,205,o),
(486,224,c),
(465,320,o),
(391,356,o),
(266,356,c),
(270,375,l),
(350,375,o),
(508,376,o),
(542,532,cs),
(545,548,o),
(546,563,o),
(544,578,cs),
(535,648,o),
(479,689,o),
(378,689,cs),
(290,689,o),
(178,655,o),
(155,539,c),
(155,535,l),
(134,535,l),
(134,589,o),
(198,651,o),
(228,670,cs),
(276,700,o),
(327,708,o),
(380,708,cs),
(456,708,o),
(553,683,o),
(565,581,cs),
(567,564,o),
(566,547,o),
(563,530,c),
(538,443,o),
(474,379,o),
(374,365,c),
(455,343,o),
(524,275,o),
(505,162,c),
(480,53,o),
(379,-8,o),
(243,-8,c)
);
}
);
width = 600;
}
);
unicode = 51;
},
{
glyphname = four;
layers = (
{
anchors = (
{
name = t._5066;
position = "{379, 700}";
},
{
name = t._5111;
position = "{701, 813}";
},
{
name = m.uni1DF7;
position = "{161, 700}";
},
{
name = m._5077;
position = "{597, 700}";
},
{
name = m._5079;
position = "{239, 0}";
},
{
name = m._5307;
position = "{498, -205}";
},
{
name = m.uni1DFA;
position = "{21, 0}";
},
{
name = m.uni0321;
position = "{457, 0}";
},
{
name = m._5081;
position = "{311, 364}";
},
{
name = m._5093;
position = "{309, 350}";
},
{
name = m._5088;
position = "{309, 350}";
}
);
layerId = "F450F4C4-4139-41FB-98F6-B6481F1E9B5F";
shapes = (
{
closed = 1;
nodes = (
(348,0,l),
(381,168,l),
(46,168,l),
(50,187,l),
(483,700,l),
(509,700,l),
(406,187,l),
(494,187,l),
(490,168,l),
(402,168,l),
(369,0,l)
);
},
{
closed = 1;
nodes = (
(385,187,l),
(481,668,l),
(76,187,l)
);
}
);
width = 600;
},
{
anchors = (
{
name = t._5066;
position = "{379, 700}";
},
{
name = t._5111;
position = "{701, 813}";
},
{
name = m.uni1DF7;
position = "{143, 700}";
},
{
name = m._5077;
position = "{615, 700}";
},
{
name = m._5079;
position = "{239, 0}";
},
{
name = m._5307;
position = "{498, -205}";
},
{
name = m.uni1DFA;
position = "{3, 0}";
},
{
name = m.uni0321;
position = "{475, 0}";
},
{
name = m._5081;
position = "{311, 364}";
},
{
name = m._5093;
position = "{309, 350}";
},
{
name = m._5088;
position = "{309, 350}";
}
);
layerId = "DD7251A6-C35A-4560-A124-DA829078785F";
shapes = (
{
closed = 1;
nodes = (
(279,0,l),
(305,130,l),
(21,130,l),
(45,250,l),
(387,700,l),
(566,700,l),
(476,250,l),
(525,250,l),
(501,130,l),
(452,130,l),
(426,0,l)
);
},
{
closed = 1;
nodes = (
(329,250,l),
(378,496,l),
(191,250,l)
);
}
);
width = 600;
},
{
anchors = (
{
name = t._5066;
position = "{379, 700}";
},
{
name = t._5111;
position = "{701, 813}";
},
{
name = m.uni1DF7;
position = "{151, 700}";
},
{
name = m._5077;
position = "{607, 700}";
},
{
name = m._5079;
position = "{239, 0}";
},
{
name = m._5307;
position = "{498, -205}";
},
{
name = m.uni1DFA;
position = "{11, 0}";
},
{
name = m.uni0321;
position = "{467, 0}";
},
{
name = m._5081;
position = "{311, 364}";
},
{
name = m._5093;
position = "{309, 350}";
},
{
name = m._5088;
position = "{309, 350}";
}
);
layerId = "39BC9D91-1289-454F-9557-B2BECA116F6B";
shapes = (
{
closed = 1;
nodes = (
(309,0,l),
(338,145,l),
(32,145,l),
(48,225,l),
(427,700,l),
(541,700,l),
(446,225,l),
(512,225,l),
(496,145,l),
(430,145,l),
(401,0,l)
);
},
{
closed = 1;
nodes = (
(354,225,l),
(421,563,l),
(152,225,l)
);
}
);
width = 600;
}
);
unicode = 52;
},
{
glyphname = five;
layers = (
{
anchors = (
{
name = mark0;
position = "{379, 700}";
},
{
name = mark0.1;
position = "{615, 700}";
},
{
name = mark0.2;
position = "{239, 0}";
},
{
name = mark0.3;
position = "{311, 364}";
},
{
name = mark0.4;
position = "{309, 350}";
}
);
layerId = "DD7251A6-C35A-4560-A124-DA829078785F";
shapes = (
{
closed = 1;
nodes = (
(254,-8,ls),
(165,-8,o),
(11,21,o),
(35,171,c),
(183,171,l),
(183,165,o),
(184,159,o),
(186,154,cs),
(198,123,o),
(232,112,o),
(266,112,c),
(351,105,o),
(384,209,o),
(384,257,c),
(384,297,o),
(360,340,o),
(311,336,c),
(281,336,o),
(241,329,o),
(222,303,cs),
(219,299,o),
(217,294,o),
(215,288,c),
(67,288,l),
(131,511,ls),
(149,574,o),
(167,637,o),
(185,700,c),
(591,700,l),
(567,580,l),
(299,580,l),
(262,452,l),
(282,456,o),
(303,456,o),
(323,456,cs),
(416,456,o),
(530,418,o),
(530,271,c),
(530,142,o),
(467,4,o),
(270,-8,c)
);
}
);
width = 600;
},
{
anchors = (
{
name = mark0;
position = "{379, 700}";
},
{
name = mark0.1;
position = "{615, 700}";
},
{
name = mark0.2;
position = "{239, 0}";
},
{
name = mark0.3;
position = "{311, 364}";
},
{
name = mark0.4;
position = "{309, 350}";
}
);
layerId = "39BC9D91-1289-454F-9557-B2BECA116F6B";
shapes = (
{
closed = 1;
nodes = (
(249,-8,ls),
(157,-8,o),
(19,22,o),
(42,167,c),
(134,167,l),
(132,156,o),
(133,146,o),
(135,137,cs),
(146,83,o),
(205,67,o),
(257,67,c),
(339,63,o),
(427,134,o),
(432,263,c),
(432,319,o),
(407,383,o),
(319,381,c),
(272,381,o),
(215,370,o),
(182,327,cs),
(176,319,o),
(172,311,o),
(170,301,c),
(78,301,l),
(138,510,ls),
(156,573,o),
(174,637,o),
(192,700,c),
(584,700,l),
(569,625,l),
(263,625,l),
(205,423,l),
(239,448,o),
(284,456,o),
(327,456,cs),
(423,456,o),
(523,413,o),
(523,272,c),
(520,145,o),
(459,-1,o),
(258,-8,c)
);
}
);
width = 600;
},
{
anchors = (
{
name = mark0;
position = "{379, 700}";
},
{
name = mark0.1;
position = "{615, 700}";
},
{
name = mark0.2;
position = "{239, 0}";
},
{
name = mark0.3;
position = "{311, 364}";
},
{
name = mark0.4;
position = "{309, 350}";
}
);
layerId = "F450F4C4-4139-41FB-98F6-B6481F1E9B5F";
shapes = (
{
closed = 1;
nodes = (
(148,-8,o),
(28,24,o),
(51,161,c),
(72,161,l),
(68,144,o),
(69,130,o),
(71,115,cs),
(82,32,o),
(171,11,o),
(245,11,cs),
(324,11,o),
(481,41,o),
(493,270,c),
(493,346,o),
(466,437,o),
(329,437,cs),
(261,437,o),
(183,422,o),
(133,357,cs),
(123,344,o),
(116,332,o),
(114,318,c),
(92,318,l),
(146,508,ls),
(164,572,o),
(182,636,o),
(201,700,c),
(575,700,l),
(571,681,l),
(217,681,l),
(133,387,l),
(185,439,o),
(261,456,o),
(332,456,cs),
(431,456,o),
(514,407,o),
(514,273,c),
(508,149,o),
(448,-8,o),
(243,-8,c)
);
}
);
width = 600;
}
);
unicode = 53;
},
{
glyphname = six;
layers = (
{
anchors = (
{
name = mark0;
position = "{379, 700}";
},
{
name = mark0.1;
position = "{615, 700}";
},
{
name = mark0.2;
position = "{239, 0}";
},
{
name = mark0.3;
position = "{311, 364}";
},
{
name = mark0.4;
position = "{309, 350}";
}
);
layerId = "DD7251A6-C35A-4560-A124-DA829078785F";
shapes = (
{
closed = 1;
nodes = (
(256,-8,ls),
(157,-8,o),
(43,27,o),
(36,161,c),
(35,186,o),
(38,214,o),
(43,240,cs),
(96,504,ls),
(115,598,o),
(171,708,o),
(367,708,cs),
(446,708,o),
(559,692,o),
(585,594,c),
(591,575,o),
(592,554,o),
(590,532,c),
(588,524,o),
(589,513,o),
(586,505,c),
(440,505,l),
(440,509,l),
(440,509,o),
(440,509,o),
(440,509,c),
(454,561,o),
(403,592,o),
(355,588,c),
(279,595,o),
(248,528,o),
(236,468,c),
(216,368,l),
(236,403,o),
(277,432,o),
(314,444,cs),
(333,450,o),
(354,453,o),
(374,453,cs),
(470,453,o),
(547,394,o),
(531,254,c),
(518,154,o),
(492,-8,o),
(271,-8,cs)
);
},
{
closed = 1;
nodes = (
(256,112,l),
(338,103,o),
(359,166,o),
(380,228,cs),
(382,234,o),
(383,239,o),
(384,245,c),
(389,286,o),
(364,339,o),
(310,333,c),
(247,333,o),
(205,310,o),
(189,232,cs),
(186,217,l),
(184,211,o),
(183,206,o),
(182,200,c),
(177,161,o),
(199,112,o),
(247,112,cs)
);
}
);
width = 600;
},
{
anchors = (
{
name = mark0;
position = "{379, 700}";
},
{
name = mark0.1;
position = "{615, 700}";
},
{
name = mark0.2;
position = "{239, 0}";
},
{
name = mark0.3;
position = "{311, 364}";
},
{
name = mark0.4;
position = "{309, 350}";
}
);
layerId = "39BC9D91-1289-454F-9557-B2BECA116F6B";
shapes = (
{
closed = 1;
nodes = (
(250,-8,ls),
(153,-8,o),
(43,28,o),
(43,162,c),
(42,185,o),
(45,210,o),
(50,234,cs),
(104,505,ls),
(123,598,o),
(183,708,o),
(372,708,cs),
(449,708,o),
(559,691,o),
(581,592,c),
(586,574,o),
(585,555,o),
(583,535,cs),
(582,529,o),
(582,523,o),
(581,518,c),
(490,518,l),
(490,521,l),
(492,529,o),
(492,535,o),
(491,542,c),
(494,606,o),
(425,635,o),
(364,633,c),
(278,637,o),
(208,578,o),
(191,483,c),
(163,344,l),
(194,396,o),
(253,430,o),
(318,437,c),
(337,440,o),
(358,441,o),
(378,439,cs),
(464,433,o),
(531,375,o),
(522,254,c),
(512,142,o),
(468,-8,o),
(258,-8,cs)
);
},
{
closed = 1;
nodes = (
(250,67,l),
(336,62,o),
(408,115,o),
(428,227,c),
(430,234,o),
(430,241,o),
(431,249,c),
(434,308,o),
(399,370,o),
(314,367,c),
(232,367,o),
(163,333,o),
(140,228,cs),
(138,219,ls),
(135,207,o),
(133,196,o),
(133,185,c),
(127,121,o),
(170,67,o),
(245,67,cs)
);
}
);
width = 600;
},
{
anchors = (
{
name = mark0;
position = "{379, 700}";
},
{
name = mark0.1;
position = "{615, 700}";
},
{
name = mark0.2;
position = "{239, 0}";
},
{
name = mark0.3;
position = "{311, 364}";
},
{
name = mark0.4;
position = "{309, 350}";
}
);
layerId = "F450F4C4-4139-41FB-98F6-B6481F1E9B5F";
shapes = (
{
closed = 1;
nodes = (
(149,-8,o),
(44,30,o),
(51,164,c),
(51,184,o),
(54,205,o),
(58,226,cs),
(114,506,ls),
(132,598,o),
(199,708,o),
(378,708,cs),
(452,708,o),
(559,690,o),
(576,590,cs),
(579,573,o),
(577,556,o),
(574,538,c),
(574,536,o),
(574,536,o),
(574,535,c),
(553,535,l),
(553,537,l),
(556,553,o),
(556,568,o),
(554,584,cs),
(544,663,o),
(453,689,o),
(376,689,cs),
(276,689,o),
(157,640,o),
(134,502,c),
(96,313,l),
(142,387,o),
(222,428,o),
(322,428,cs),
(342,428,o),
(363,426,o),
(383,422,cs),
(457,407,o),
(511,352,o),
(511,255,c),
(504,126,o),
(438,-8,o),
(242,-8,c)
);
},
{
closed = 1;
nodes = (
(334,11,o),
(469,51,o),
(488,225,cs),
(489,234,o),
(489,244,o),
(490,253,c),
(490,336,o),
(443,409,o),
(319,409,cs),
(213,409,o),
(110,361,o),
(78,224,c),
(78,222,l),
(74,203,o),
(71,184,o),
(71,166,c),
(65,70,o),
(134,11,o),
(242,11,c)
);
}
);
width = 600;
}
);
unicode = 54;
},
{
glyphname = seven;
layers = (
{
anchors = (
{
name = t._5066;
position = "{379, 700}";
},
{
name = t._5111;
position = "{701, 813}";
},
{
name = m.uni1DF7;
position = "{161, 700}";
},
{
name = m._5077;
position = "{597, 700}";
},
{
name = m._5079;
position = "{239, 0}";
},
{
name = m._5307;
position = "{498, -205}";
},
{
name = m.uni1DFA;
position = "{21, 0}";
},
{
name = m.uni0321;
position = "{457, 0}";
},
{
name = m._5081;
position = "{311, 364}";
},
{
name = m._5093;
position = "{309, 350}";
},
{
name = m._5088;
position = "{309, 350}";
}
);
layerId = "F450F4C4-4139-41FB-98F6-B6481F1E9B5F";
shapes = (
{
closed = 1;
nodes = (
(135,0,l),
(569,681,l),
(157,681,l),
(161,700,l),
(597,700,l),
(593,681,l),
(159,0,l)
);
}
);
width = 600;
},
{
anchors = (
{
name = t._5066;
position = "{379, 700}";
},
{
name = t._5111;
position = "{701, 813}";
},
{
name = m.uni1DF7;
position = "{143, 700}";
},
{
name = m._5077;
position = "{615, 700}";
},
{
name = m._5079;
position = "{239, 0}";
},
{
name = m._5307;
position = "{498, -205}";
},
{
name = m.uni1DFA;
position = "{3, 0}";
},
{
name = m.uni0321;
position = "{475, 0}";
},
{
name = m._5081;
position = "{311, 364}";
},
{
name = m._5093;
position = "{309, 350}";
},
{
name = m._5088;
position = "{309, 350}";
}
);
layerId = "DD7251A6-C35A-4560-A124-DA829078785F";
shapes = (
{
closed = 1;
nodes = (
(84,0,l),
(429,580,l),
(119,580,l),
(143,700,l),
(615,700,l),
(591,580,l),
(246,0,l)
);
}
);
width = 600;
},
{
anchors = (
{
name = t._5066;
position = "{379, 700}";
},
{
name = t._5111;
position = "{701, 813}";
},
{
name = m.uni1DF7;
position = "{151, 700}";
},
{
name = m._5077;
position = "{607, 700}";
},
{
name = m._5079;
position = "{239, 0}";
},
{
name = m._5307;
position = "{498, -205}";
},
{
name = m.uni1DFA;
position = "{11, 0}";
},
{
name = m.uni0321;
position = "{467, 0}";
},
{
name = m._5081;
position = "{311, 364}";
},
{
name = m._5093;
position = "{309, 350}";
},
{
name = m._5088;
position = "{309, 350}";
}
);
layerId = "39BC9D91-1289-454F-9557-B2BECA116F6B";
shapes = (
{
closed = 1;
nodes = (
(105,0,l),
(488,620,l),
(135,620,l),
(151,700,l),
(607,700,l),
(591,620,l),
(208,0,l)
);
}
);
width = 600;
}
);
unicode = 55;
},
{
glyphname = eight;
layers = (
{
anchors = (
{
name = t._5066;
position = "{379, 700}";
},
{
name = t._5111;
position = "{701, 813}";
},
{
name = m.uni1DF7;
position = "{161, 700}";
},
{
name = m._5077;
position = "{597, 700}";
},
{
name = m._5079;
position = "{239, 0}";
},
{
name = m._5307;
position = "{498, -205}";
},
{
name = m.uni1DFA;
position = "{21, 0}";
},
{
name = m.uni0321;
position = "{457, 0}";
},
{
name = m._5081;
position = "{311, 364}";
},
{
name = m._5093;
position = "{309, 350}";
},
{
name = m._5088;
position = "{309, 350}";
}
);
guides = (
{
angle = 90;
position = "{-804, 0}";
}
);
layerId = "F450F4C4-4139-41FB-98F6-B6481F1E9B5F";
shapes = (
{
closed = 1;
nodes = (
(121,-8,o),
(24,58,o),
(51,190,cs),
(71,285,o),
(155,344,o),
(247,361,c),
(170,386,o),
(124,459,o),
(144,545,c),
(164,656,o),
(273,708,o),
(376,708,c),
(490,710,o),
(572,638,o),
(546,519,c),
(532,433,o),
(456,376,o),
(375,358,c),
(462,336,o),
(517,259,o),
(497,164,c),
(475,45,o),
(351,-8,o),
(241,-8,cs)
);
},
{
closed = 1;
nodes = (
(408,370,o),
(508,421,o),
(526,522,c),
(549,631,o),
(478,689,o),
(375,689,c),
(281,691,o),
(182,641,o),
(164,541,cs),
(144,438,o),
(212,368,o),
(313,368,c)
);
},
{
closed = 1;
nodes = (
(345,11,o),
(454,57,o),
(477,168,cs),
(499,282,o),
(415,350,o),
(308,350,cs),
(206,350,o),
(92,294,o),
(71,186,cs),
(48,68,o),
(135,11,o),
(242,11,cs)
);
}
);
width = 600;
},
{
anchors = (
{
name = t._5066;
position = "{379, 700}";
},
{
name = t._5111;
position = "{701, 813}";
},
{
name = m.uni1DF7;
position = "{143, 700}";
},
{
name = m._5077;
position = "{615, 700}";
},
{
name = m._5079;
position = "{239, 0}";
},
{
name = m._5307;
position = "{498, -205}";
},
{
name = m.uni1DFA;
position = "{3, 0}";
},
{
name = m.uni0321;
position = "{475, 0}";
},
{
name = m._5081;
position = "{311, 364}";
},
{
name = m._5093;
position = "{309, 350}";
},
{
name = m._5088;
position = "{309, 350}";
}
);
layerId = "DD7251A6-C35A-4560-A124-DA829078785F";
shapes = (
{
closed = 1;
nodes = (
(118,-8,o),
(6,66,o),
(38,217,cs),
(54,294,o),
(103,343,o),
(176,370,c),
(127,411,o),
(106,474,o),
(122,545,c),
(141,661,o),
(257,708,o),
(362,708,c),
(492,710,o),
(595,634,o),
(563,494,c),
(552,432,o),
(508,382,o),
(448,355,c),
(509,316,o),
(533,245,o),
(516,167,c),
(493,41,o),
(370,-8,o),
(255,-8,cs)
);
},
{
closed = 1;
nodes = (
(373,423,o),
(410,460,o),
(419,513,c),
(430,558,o),
(409,588,o),
(362,588,cs),
(316,588,o),
(272,567,o),
(263,518,c),
(257,475,o),
(263,421,o),
(319,421,c)
);
},
{
closed = 1;
nodes = (
(308,112,o),
(365,134,o),
(374,193,cs),
(384,247,o),
(367,301,o),
(303,301,cs),
(240,301,o),
(192,260,o),
(181,198,cs),
(171,143,o),
(200,112,o),
(255,112,cs)
);
}
);
width = 600;
},
{
anchors = (
{
name = t._5066;
position = "{379, 700}";
},
{
name = t._5111;
position = "{701, 813}";
},
{
name = m.uni1DF7;
position = "{151, 700}";
},
{
name = m._5077;
position = "{607, 700}";
},
{
name = m._5079;
position = "{239, 0}";
},
{
name = m._5307;
position = "{498, -205}";
},
{
name = m.uni1DFA;
position = "{11, 0}";
},
{
name = m.uni0321;
position = "{467, 0}";
},
{
name = m._5081;
position = "{311, 364}";
},
{
name = m._5093;
position = "{309, 350}";
},
{
name = m._5088;
position = "{309, 350}";
}
);
layerId = "39BC9D91-1289-454F-9557-B2BECA116F6B";
shapes = (
{
closed = 1;
nodes = (
(121,-8,o),
(17,62,o),
(44,206,cs),
(60,290,o),
(124,343,o),
(203,367,c),
(140,400,o),
(116,471,o),
(132,546,cs),
(157,659,o),
(257,708,o),
(365,708,c),
(492,710,o),
(582,638,o),
(555,504,c),
(544,436,o),
(489,379,o),
(421,357,c),
(499,318,o),
(525,248,o),
(508,165,cs),
(481,42,o),
(368,-8,o),
(252,-8,cs)
);
},
{
closed = 1;
nodes = (
(391,402,o),
(450,443,o),
(466,516,cs),
(482,590,o),
(435,628,o),
(365,628,c),
(299,630,o),
(233,598,o),
(220,528,cs),
(205,457,o),
(243,400,o),
(318,400,c)
);
},
{
closed = 1;
nodes = (
(324,72,o),
(405,102,o),
(419,182,c),
(437,264,o),
(385,320,o),
(304,320,cs),
(224,320,o),
(151,275,o),
(133,194,cs),
(116,111,o),
(177,72,o),
(252,72,cs)
);
}
);
width = 600;
}
);
unicode = 56;
},
{
glyphname = nine;
layers = (
{
anchors = (
{
name = mark0;
position = "{379, 700}";
},
{
name = mark0.1;
position = "{615, 700}";
},
{
name = mark0.2;
position = "{239, 0}";
},
{
name = mark0.3;
position = "{311, 364}";
},
{
name = mark0.4;
position = "{309, 350}";
}
);
layerId = "DD7251A6-C35A-4560-A124-DA829078785F";
shapes = (
{
closed = 1;
nodes = (
(250,-8,ls),
(168,-8,o),
(61,8,o),
(33,106,cs),
(29,120,o),
(27,136,o),
(27,152,c),
(27,166,o),
(28,182,o),
(32,195,c),
(32,195,o),
(32,195,o),
(32,195,c),
(178,195,l),
(178,194,o),
(177,192,o),
(177,191,c),
(176,185,o),
(175,179,o),
(175,174,cs),
(175,129,o),
(223,108,o),
(262,112,c),
(272,111,o),
(283,111,o),
(293,114,cs),
(361,133,o),
(372,187,o),
(387,260,c),
(401,332,l),
(376,292,o),
(334,263,o),
(288,252,cs),
(273,248,o),
(258,247,o),
(243,247,cs),
(140,247,o),
(71,313,o),
(87,450,cs),
(101,556,o),
(125,708,o),
(361,708,cs),
(456,708,o),
(574,673,o),
(581,539,cs),
(582,515,o),
(580,485,o),
(575,460,cs),
(522,196,ls),
(503,106,o),
(448,-8,o),
(264,-8,cs)
);
},
{
closed = 1;
nodes = (
(307,367,ls),
(373,367,o),
(409,391,o),
(426,460,c),
(429,476,l),
(429,480,o),
(434,493,o),
(435,500,c),
(440,541,o),
(415,594,o),
(361,588,c),
(280,597,o),
(245,526,o),
(233,455,c),
(228,416,o),
(250,367,o),
(298,367,cs)
);
}
);
width = 600;
},
{
anchors = (
{
name = mark0;
position = "{379, 700}";
},
{
name = mark0.1;
position = "{615, 700}";
},
{
name = mark0.2;
position = "{239, 0}";
},
{
name = mark0.3;
position = "{311, 364}";
},
{
name = mark0.4;
position = "{309, 350}";
}
);
layerId = "39BC9D91-1289-454F-9557-B2BECA116F6B";
shapes = (
{
closed = 1;
nodes = (
(245,-8,ls),
(160,-8,o),
(57,12,o),
(37,107,c),
(33,123,o),
(32,140,o),
(34,156,c),
(34,164,o),
(35,173,o),
(37,181,c),
(37,181,o),
(37,181,o),
(37,182,c),
(128,182,l),
(128,181,o),
(127,180,o),
(127,179,c),
(124,168,o),
(124,158,o),
(125,148,cs),
(128,93,o),
(186,68,o),
(231,68,c),
(244,67,o),
(257,67,o),
(270,68,c),
(346,79,o),
(406,123,o),
(430,232,c),
(454,356,l),
(418,296,o),
(354,267,o),
(291,261,cs),
(273,259,o),
(256,259,o),
(239,260,cs),
(149,267,o),
(84,329,o),
(95,447,cs),
(106,556,o),
(142,708,o),
(367,708,cs),
(458,708,o),
(570,674,o),
(574,538,cs),
(575,515,o),
(572,489,o),
(568,466,cs),
(514,195,ls),
(493,96,o),
(427,-8,o),
(253,-8,cs)
);
},
{
closed = 1;
nodes = (
(303,333,ls),
(377,333,o),
(452,360,o),
(476,467,cs),
(478,477,ls),
(480,488,o),
(483,502,o),
(484,515,c),
(487,574,o),
(452,636,o),
(367,633,c),
(274,638,o),
(193,571,o),
(186,451,c),
(180,387,o),
(223,333,o),
(298,333,cs)
);
}
);
width = 600;
},
{
anchors = (
{
name = mark0;
position = "{379, 700}";
},
{
name = mark0.1;
position = "{615, 700}";
},
{
name = mark0.2;
position = "{239, 0}";
},
{
name = mark0.3;
position = "{311, 364}";
},
{
name = mark0.4;
position = "{309, 350}";
}
);
layerId = "F450F4C4-4139-41FB-98F6-B6481F1E9B5F";
shapes = (
{
closed = 1;
nodes = (
(151,-8,o),
(52,17,o),
(41,109,cs),
(39,126,o),
(39,144,o),
(43,162,c),
(43,162,o),
(43,162,o),
(43,163,c),
(43,163,o),
(44,164,o),
(44,165,c),
(65,165,l),
(65,164,o),
(64,164,o),
(64,163,c),
(60,147,o),
(60,131,o),
(62,115,cs),
(70,47,o),
(140,19,o),
(193,13,cs),
(209,11,o),
(225,11,o),
(241,11,cs),
(328,11,o),
(448,42,o),
(483,198,c),
(521,387,l),
(470,302,o),
(380,272,o),
(295,272,cs),
(274,272,o),
(254,273,o),
(234,277,cs),
(160,292,o),
(101,350,o),
(106,444,cs),
(112,556,o),
(164,708,o),
(375,708,cs),
(460,708,o),
(566,676,o),
(566,536,cs),
(566,515,o),
(563,494,o),
(559,474,cs),
(503,194,ls),
(481,83,o),
(400,-8,o),
(239,-8,c)
);
},
{
closed = 1;
nodes = (
(383,291,o),
(505,321,o),
(539,476,c),
(539,478,l),
(543,497,o),
(544,514,o),
(546,533,c),
(546,616,o),
(499,689,o),
(375,689,cs),
(266,689,o),
(127,627,o),
(127,446,c),
(121,350,o),
(190,291,o),
(298,291,c)
);
}
);
width = 600;
}
);
unicode = 57;
},
{
glyphname = less;
layers = (
{
layerId = "DD7251A6-C35A-4560-A124-DA829078785F";
shapes = (
{
closed = 1;
nodes = (
(440,-27,l),
(51,244,l),
(77,370,l),
(563,644,l),
(625,551,l),
(167,306,l),
(516,60,l)
);
}
);
width = 600;
},
{
layerId = "39BC9D91-1289-454F-9557-B2BECA116F6B";
shapes = (
{
closed = 1;
nodes = (
(448,-1,l),
(64,267,l),
(80,347,l),
(564,617,l),
(604,558,l),
(137,306,l),
(496,54,l)
);
}
);
width = 600;
},
{
layerId = "F450F4C4-4139-41FB-98F6-B6481F1E9B5F";
shapes = (
{
closed = 1;
nodes = (
(459,31,l),
(80,296,l),
(84,318,l),
(566,584,l),
(577,567,l),
(100,307,l),
(470,46,l)
);
}
);
width = 600;
}
);
unicode = 60;
},
{
glyphname = equal;
layers = (
{
layerId = "DD7251A6-C35A-4560-A124-DA829078785F";
shapes = (
{
closed = 1;
nodes = (
(548,367,l),
(76,367,l),
(97,474,l),
(569,474,l)
);
},
{
closed = 1;
nodes = (
(31,140,l),
(52,247,l),
(524,247,l),
(503,140,l)
);
}
);
width = 600;
},
{
layerId = "39BC9D91-1289-454F-9557-B2BECA116F6B";
shapes = (
{
closed = 1;
nodes = (
(543,383,l),
(87,383,l),
(101,450,l),
(557,450,l)
);
},
{
closed = 1;
nodes = (
(43,164,l),
(57,231,l),
(513,231,l),
(499,164,l)
);
}
);
width = 600;
},
{
layerId = "F450F4C4-4139-41FB-98F6-B6481F1E9B5F";
shapes = (
{
closed = 1;
nodes = (
(537,402,l),
(101,402,l),
(105,421,l),
(541,421,l)
);
},
{
closed = 1;
nodes = (
(59,193,l),
(63,212,l),
(499,212,l),
(495,193,l)
);
}
);
width = 600;
}
);
unicode = 61;
},
{
glyphname = greater;
layers = (
{
layerId = "DD7251A6-C35A-4560-A124-DA829078785F";
shapes = (
{
closed = 1;
nodes = (
(37,-30,l),
(-25,63,l),
(433,308,l),
(84,554,l),
(160,641,l),
(549,370,l),
(523,244,l)
);
}
);
width = 600;
},
{
layerId = "39BC9D91-1289-454F-9557-B2BECA116F6B";
shapes = (
{
closed = 1;
nodes = (
(36,-3,l),
(-4,56,l),
(463,308,l),
(104,560,l),
(152,615,l),
(536,347,l),
(520,267,l)
);
}
);
width = 600;
},
{
layerId = "F450F4C4-4139-41FB-98F6-B6481F1E9B5F";
shapes = (
{
closed = 1;
nodes = (
(34,30,l),
(23,47,l),
(500,307,l),
(130,568,l),
(141,583,l),
(520,318,l),
(516,296,l)
);
}
);
width = 600;
}
);
unicode = 62;
},
{
glyphname = question;
layers = (
{
layerId = "DD7251A6-C35A-4560-A124-DA829078785F";
shapes = (
{
closed = 1;
nodes = (
(218,270,l),
(235,380,o),
(290,369,o),
(393,455,cs),
(415,473,o),
(436,496,o),
(431,533,cs),
(427,565,o),
(397,588,o),
(366,588,cs),
(353,588,ls),
(349,588,o),
(346,588,o),
(342,588,cs),
(297,588,o),
(253,547,o),
(248,506,c),
(248,506,o),
(248,505,o),
(248,505,c),
(102,505,l),
(102,508,l),
(127,633,o),
(236,708,o),
(365,708,cs),
(448,708,o),
(543,683,o),
(570,583,cs),
(573,572,o),
(575,559,o),
(576,547,cs),
(581,464,o),
(543,377,o),
(461,336,c),
(425,321,o),
(374,318,o),
(368,270,c)
);
},
{
closed = 1;
nodes = (
(257,-8,l),
(210,-11,o),
(176,16,o),
(162,57,cs),
(157,72,o),
(156,90,o),
(159,107,c),
(171,140,o),
(179,188,o),
(256,188,cs),
(305,188,o),
(365,161,o),
(354,73,c),
(354,18,o),
(298,-3,o),
(267,-8,c)
);
}
);
width = 600;
},
{
layerId = "39BC9D91-1289-454F-9557-B2BECA116F6B";
shapes = (
{
closed = 1;
nodes = (
(241,243,l),
(258,343,o),
(302,350,o),
(415,429,c),
(453,453,o),
(487,494,o),
(480,549,cs),
(475,593,o),
(440,627,o),
(391,631,cs),
(373,632,l),
(367,633,o),
(362,633,o),
(356,633,cs),
(294,633,o),
(217,595,o),
(203,520,c),
(203,519,o),
(203,519,o),
(203,518,c),
(113,518,l),
(113,521,l),
(134,633,o),
(239,708,o),
(369,708,cs),
(452,708,o),
(546,683,o),
(567,577,c),
(569,563,o),
(571,547,o),
(569,533,c),
(566,458,o),
(522,386,o),
(445,348,c),
(390,323,o),
(342,303,o),
(334,243,c)
);
},
{
closed = 1;
nodes = (
(251,-8,l),
(216,-10,o),
(192,10,o),
(183,40,cs),
(180,51,o),
(179,63,o),
(182,75,cs),
(188,101,o),
(202,132,o),
(251,132,cs),
(284,132,o),
(329,112,o),
(320,48,c),
(318,9,o),
(279,-5,o),
(257,-8,c)
);
}
);
width = 600;
},
{
layerId = "F450F4C4-4139-41FB-98F6-B6481F1E9B5F";
shapes = (
{
closed = 1;
nodes = (
(270,210,l),
(286,297,o),
(317,326,o),
(443,397,cs),
(500,429,o),
(551,491,o),
(542,568,cs),
(534,629,o),
(493,676,o),
(422,685,cs),
(397,688,ls),
(389,689,o),
(381,689,o),
(373,689,cs),
(290,689,o),
(171,656,o),
(147,537,c),
(147,536,o),
(147,536,o),
(147,535,c),
(126,535,l),
(126,537,l),
(143,634,o),
(242,708,o),
(375,708,cs),
(456,708,o),
(550,682,o),
(563,570,cs),
(565,552,o),
(565,533,o),
(561,516,cs),
(547,450,o),
(495,398,o),
(424,362,c),
(346,326,o),
(303,285,o),
(292,210,c)
);
},
{
closed = 1;
nodes = (
(224,-8,o),
(212,2,o),
(209,19,cs),
(208,25,o),
(208,30,o),
(210,36,c),
(210,52,o),
(230,61,o),
(244,61,cs),
(258,61,o),
(285,50,o),
(278,17,cs),
(274,-3,o),
(256,-8,o),
(244,-8,c)
);
}
);
width = 600;
}
);
unicode = 63;
},
{
glyphname = at;
layers = (
{
layerId = "DD7251A6-C35A-4560-A124-DA829078785F";
shapes = (
{
closed = 1;
nodes = (
(228,-142,ls),
(135,-142,o),
(34,-107,o),
(21,20,c),
(18,53,o),
(20,89,o),
(27,122,cs),
(113,553,l),
(137,659,o),
(210,756,o),
(371,756,cs),
(466,756,o),
(561,721,o),
(580,597,cs),
(583,577,o),
(582,556,o),
(582,535,c),
(510,175,l),
(504,89,o),
(413,29,o),
(350,34,c),
(291,34,o),
(227,62,o),
(221,139,c),
(218,164,o),
(221,190,o),
(227,216,c),
(263,395,l),
(272,437,o),
(295,483,o),
(335,503,c),
(352,513,l),
(389,530,o),
(425,535,o),
(465,535,c),
(466,542,o),
(466,549,o),
(466,556,cs),
(466,604,o),
(417,639,o),
(371,636,c),
(282,644,o),
(238,587,o),
(217,495,cs),
(193,378,o),
(171,260,o),
(147,143,cs),
(144,130,o),
(142,117,o),
(139,104,cs),
(135,91,o),
(133,78,o),
(134,65,cs),
(138,20,o),
(167,-26,o),
(228,-22,c),
(405,-22,l),
(405,-142,l)
);
},
{
closed = 1;
nodes = (
(399,128,o),
(404,226,o),
(405,231,cs),
(447,441,l),
(393,436,o),
(380,396,o),
(369,351,c),
(343,223,ls),
(341,215,o),
(340,206,o),
(338,198,c),
(337,186,o),
(334,171,o),
(334,157,cs),
(334,144,o),
(336,131,o),
(350,128,c)
);
}
);
width = 600;
},
{
layerId = "39BC9D91-1289-454F-9557-B2BECA116F6B";
shapes = (
{
closed = 1;
nodes = (
(223,-137,ls),
(128,-137,o),
(31,-96,o),
(26,28,c),
(25,55,o),
(27,84,o),
(33,112,cs),
(121,551,l),
(143,650,o),
(212,751,o),
(376,751,cs),
(463,751,o),
(563,717,o),
(574,593,c),
(575,573,o),
(574,553,o),
(574,533,c),
(501,170,l),
(492,96,o),
(423,34,o),
(350,37,c),
(292,37,o),
(234,66,o),
(233,143,c),
(232,162,o),
(235,182,o),
(239,201,cs),
(279,401,l),
(287,436,o),
(304,475,o),
(336,495,c),
(352,506,l),
(396,534,o),
(447,533,o),
(499,533,c),
(501,544,o),
(502,556,o),
(502,568,cs),
(502,630,o),
(450,677,o),
(376,676,c),
(282,680,o),
(210,627,o),
(187,517,c),
(161,385,o),
(135,253,o),
(109,122,c),
(105,106,o),
(103,91,o),
(101,76,cs),
(99,60,o),
(98,46,o),
(101,32,cs),
(111,-22,o),
(150,-64,o),
(223,-62,c),
(414,-62,l),
(414,-137,l)
);
},
{
closed = 1;
nodes = (
(403,98,o),
(427,169,o),
(433,203,cs),
(487,472,l),
(418,469,o),
(365,455,o),
(347,375,c),
(312,203,ls),
(310,192,o),
(309,181,o),
(308,170,cs),
(307,157,o),
(307,143,o),
(310,129,cs),
(314,112,o),
(329,99,o),
(350,98,c)
);
}
);
width = 600;
},
{
layerId = "F450F4C4-4139-41FB-98F6-B6481F1E9B5F";
shapes = (
{
closed = 1;
nodes = (
(217,-130,ls),
(119,-130,o),
(27,-83,o),
(33,38,c),
(33,58,o),
(36,78,o),
(40,99,cs),
(130,548,l),
(150,639,o),
(214,744,o),
(382,744,cs),
(459,744,o),
(566,713,o),
(566,587,cs),
(566,568,o),
(565,549,o),
(563,530,c),
(489,163,ls),
(477,104,o),
(436,41,o),
(350,41,cs),
(293,41,o),
(242,70,o),
(249,147,cs),
(250,159,o),
(252,171,o),
(254,183,cs),
(299,408,l),
(305,434,o),
(315,466,o),
(338,486,cs),
(352,498,l),
(404,539,o),
(474,530,o),
(542,530,c),
(545,547,o),
(546,564,o),
(546,582,cs),
(546,662,o),
(492,725,o),
(383,725,cs),
(282,725,o),
(176,678,o),
(150,544,cs),
(121,394,o),
(90,245,o),
(61,95,cs),
(57,77,o),
(54,59,o),
(54,41,cs),
(54,22,o),
(55,7,o),
(60,-10,cs),
(77,-74,o),
(129,-111,o),
(217,-111,cs),
(425,-111,l),
(425,-130,l)
);
},
{
closed = 1;
nodes = (
(409,60,o),
(455,97,o),
(469,167,cs),
(538,511,l),
(450,511,o),
(346,529,o),
(319,404,c),
(274,179,ls),
(271,164,o),
(270,149,o),
(270,135,cs),
(270,120,o),
(273,107,o),
(279,95,cs),
(290,72,o),
(321,60,o),
(350,60,cs)
);
}
);
width = 600;
}
);
unicode = 64;
},
{
glyphname = A;
layers = (
{
anchors = (
{
name = mark0;
position = "{379, 700}";
},
{
name = mark0.1;
position = "{615, 700}";
},
{
name = mark0.2;
position = "{239, 0}";
},
{
name = mark0.3;
position = "{475, 0}";
},
{
name = mark0.4;
position = "{311, 364}";
},
{
name = mark0.5;
position = "{309, 350}";
}
);
layerId = "DD7251A6-C35A-4560-A124-DA829078785F";
shapes = (
{
closed = 1;
nodes = (
(-24,0,l),
(294,700,l),
(464,700,l),
(502,0,l),
(350,0,l),
(350,48,o),
(349,97,o),
(349,145,c),
(187,145,l),
(128,0,l)
);
},
{
closed = 1;
nodes = (
(236,265,l),
(348,265,l),
(347,354,o),
(349,445,o),
(345,534,c),
(336,511,o),
(326,490,o),
(318,467,c),
(283,380,l)
);
}
);
width = 600;
},
{
anchors = (
{
name = mark0;
position = "{379, 700}";
},
{
name = mark0.1;
position = "{615, 700}";
},
{
name = mark0.2;
position = "{239, 0}";
},
{
name = mark0.3;
position = "{475, 0}";
},
{
name = mark0.4;
position = "{311, 364}";
},
{
name = mark0.5;
position = "{309, 350}";
}
);
layerId = "39BC9D91-1289-454F-9557-B2BECA116F6B";
shapes = (
{
closed = 1;
nodes = (
(-12,0,l),
(326,700,l),
(432,700,l),
(490,0,l),
(395,0,l),
(390,63,o),
(386,127,o),
(381,190,c),
(172,190,l),
(83,0,l)
);
},
{
closed = 1;
nodes = (
(204,265,l),
(380,265,l),
(372,375,o),
(365,485,o),
(357,595,c),
(344,567,o),
(331,540,o),
(319,512,c),
(276,419,l)
);
}
);
width = 600;
},
{
anchors = (
{
name = mark0;
position = "{379, 700}";
},
{
name = mark0.1;
position = "{615, 700}";
},
{
name = mark0.2;
position = "{239, 0}";
},
{
name = mark0.3;
position = "{475, 0}";
},
{
name = mark0.4;
position = "{311, 364}";
},
{
name = mark0.5;
position = "{309, 350}";
}
);
layerId = "F450F4C4-4139-41FB-98F6-B6481F1E9B5F";
shapes = (
{
closed = 1;
nodes = (
(4,0,l),
(367,700,l),
(391,700,l),
(474,0,l),
(451,0,l),
(441,82,o),
(432,164,o),
(422,246,c),
(154,246,l),
(27,0,l)
);
},
{
closed = 1;
nodes = (
(164,265,l),
(420,265,l),
(404,401,o),
(384,536,o),
(373,671,c),
(355,636,o),
(337,602,o),
(320,568,cs),
(268,467,l)
);
}
);
width = 600;
}
);
unicode = 65;
},
{
glyphname = B;
layers = (
{
anchors = (
{
name = mark0;
position = "{379, 700}";
},
{
name = mark0.1;
position = "{615, 700}";
},
{
name = mark0.2;
position = "{239, 0}";
},
{
name = mark0.3;
position = "{311, 364}";
},
{
name = mark0.4;
position = "{309, 350}";
}
);
layerId = "DD7251A6-C35A-4560-A124-DA829078785F";
shapes = (
{
closed = 1;
nodes = (
(3,0,l),
(143,700,l),
(370,700,ls),
(452,700,o),
(539,673,o),
(556,567,cs),
(559,548,o),
(560,528,o),
(558,508,cs),
(551,447,o),
(526,386,o),
(461,357,c),
(504,333,o),
(526,292,o),
(531,243,cs),
(550,50,o),
(359,0,o),
(240,0,cs)
);
},
{
closed = 1;
nodes = (
(235,421,l),
(332,421,l),
(393,417,o),
(408,489,o),
(413,514,c),
(416,563,o),
(402,580,o),
(341,580,cs),
(267,580,l)
);
},
{
closed = 1;
nodes = (
(175,120,l),
(266,120,l),
(316,116,o),
(374,148,o),
(385,207,c),
(388,219,o),
(389,230,o),
(388,241,c),
(379,286,o),
(346,302,o),
(292,302,cs),
(211,302,l)
);
}
);
width = 600;
},
{
anchors = (
{
name = mark0;
position = "{379, 700}";
},
{
name = mark0.1;
position = "{615, 700}";
},
{
name = mark0.2;
position = "{239, 0}";
},
{
name = mark0.3;
position = "{311, 364}";
},
{
name = mark0.4;
position = "{309, 350}";
}
);
layerId = "39BC9D91-1289-454F-9557-B2BECA116F6B";
shapes = (
{
closed = 1;
nodes = (
(11,0,l),
(151,700,l),
(373,700,ls),
(449,700,o),
(543,674,o),
(553,567,cs),
(555,548,o),
(555,530,o),
(552,511,cs),
(541,443,o),
(505,384,o),
(430,360,c),
(480,338,o),
(516,300,o),
(522,241,cs),
(537,82,o),
(399,0,o),
(243,0,cs)
);
},
{
closed = 1;
nodes = (
(182,400,l),
(335,400,l),
(411,397,o),
(461,468,o),
(464,536,cs),
(466,596,o),
(432,625,o),
(357,625,cs),
(227,625,l)
);
},
{
closed = 1;
nodes = (
(117,75,l),
(257,75,l),
(319,73,o),
(410,97,o),
(430,194,c),
(434,207,o),
(434,222,o),
(433,235,cs),
(427,296,o),
(378,325,o),
(300,325,cs),
(167,325,l)
);
}
);
width = 600;
},
{
anchors = (
{
name = mark0;
position = "{379, 700}";
},
{
name = mark0.1;
position = "{615, 700}";
},
{
name = mark0.2;
position = "{239, 0}";
},
{
name = mark0.3;
position = "{311, 364}";
},
{
name = mark0.4;
position = "{309, 350}";
}
);
layerId = "F450F4C4-4139-41FB-98F6-B6481F1E9B5F";
shapes = (
{
closed = 1;
nodes = (
(21,0,l),
(161,700,l),
(377,700,ls),
(446,700,o),
(549,676,o),
(549,567,cs),
(549,549,o),
(548,532,o),
(545,515,cs),
(529,437,o),
(478,382,o),
(391,363,c),
(450,345,o),
(503,311,o),
(510,239,cs),
(520,122,o),
(450,0,o),
(246,0,cs)
);
},
{
closed = 1;
nodes = (
(116,373,l),
(338,373,ls),
(433,373,o),
(528,441,o),
(528,564,cs),
(528,637,o),
(469,681,o),
(377,681,cs),
(178,681,l)
);
},
{
closed = 1;
nodes = (
(45,19,l),
(245,19,ls),
(323,19,o),
(454,34,o),
(487,177,cs),
(491,193,o),
(491,211,o),
(490,228,cs),
(486,308,o),
(418,354,o),
(310,354,cs),
(112,354,l)
);
}
);
width = 600;
}
);
unicode = 66;
},
{
glyphname = C;
layers = (
{
anchors = (
{
name = t._5066;
position = "{379, 700}";
},
{
name = t._5111;
position = "{701, 813}";
},
{
name = m.uni1DF7;
position = "{143, 700}";
},
{
name = m._5077;
position = "{615, 700}";
},
{
name = m._5079;
position = "{239, 0}";
},
{
name = m._5307;
position = "{498, -205}";
},
{
name = m.uni1DFA;
position = "{3, 0}";
},
{
name = m.uni0321;
position = "{475, 0}";
},
{
name = m._5081;
position = "{311, 364}";
},
{
name = m._5093;
position = "{309, 350}";
},
{
name = m._5088;
position = "{309, 350}";
}
);
layerId = "DD7251A6-C35A-4560-A124-DA829078785F";
shapes = (
{
closed = 1;
nodes = (
(179,-8,o),
(113,11,o),
(73,64,cs),
(33,116,o),
(32,185,o),
(46,256,cs),
(96,505,l),
(106,565,o),
(138,621,o),
(191,659,cs),
(245,697,o),
(306,708,o),
(363,708,c),
(424,709,o),
(483,699,o),
(527,666,cs),
(572,632,o),
(592,576,o),
(580,515,cs),
(578,505,l),
(432,505,l),
(432,509,l),
(438,533,o),
(433,557,o),
(416,570,cs),
(399,583,o),
(375,588,o),
(351,588,cs),
(324,588,o),
(295,578,o),
(275,557,cs),
(255,536,o),
(244,508,o),
(239,481,cs),
(189,233,l),
(184,204,o),
(181,173,o),
(193,149,cs),
(205,125,o),
(232,112,o),
(261,112,c),
(284,113,o),
(310,118,o),
(330,133,cs),
(350,148,o),
(365,171,o),
(370,195,c),
(516,195,l),
(504,137,o),
(470,81,o),
(418,43,cs),
(366,5,o),
(306,-8,o),
(249,-8,cs)
);
}
);
width = 600;
},
{
anchors = (
{
name = t._5066;
position = "{379, 700}";
},
{
name = t._5111;
position = "{701, 813}";
},
{
name = m.uni1DF7;
position = "{161, 700}";
},
{
name = m._5077;
position = "{597, 700}";
},
{
name = m._5079;
position = "{239, 0}";
},
{
name = m._5307;
position = "{498, -205}";
},
{
name = m.uni1DFA;
position = "{21, 0}";
},
{
name = m.uni0321;
position = "{457, 0}";
},
{
name = m._5081;
position = "{311, 364}";
},
{
name = m._5093;
position = "{309, 350}";
},
{
name = m._5088;
position = "{309, 350}";
}
);
layerId = "F450F4C4-4139-41FB-98F6-B6481F1E9B5F";
shapes = (
{
closed = 1;
nodes = (
(177,-8,o),
(117,8,o),
(83,53,cs),
(47,100,o),
(45,158,o),
(57,221,cs),
(115,511,ls),
(126,568,o),
(156,623,o),
(208,660,cs),
(260,697,o),
(318,708,o),
(374,708,cs),
(427,708,o),
(478,699,o),
(519,671,cs),
(558,643,o),
(578,592,o),
(566,539,c),
(566,535,l),
(545,535,l),
(545,538,l),
(555,588,o),
(538,632,o),
(502,657,cs),
(465,682,o),
(420,689,o),
(372,689,cs),
(320,689,o),
(268,680,o),
(220,645,cs),
(172,610,o),
(145,559,o),
(135,508,cs),
(77,217,l),
(67,161,o),
(69,107,o),
(101,66,cs),
(132,25,o),
(185,11,o),
(240,11,c),
(288,12,o),
(338,19,o),
(383,46,cs),
(428,73,o),
(461,116,o),
(471,165,c),
(492,165,l),
(480,112,o),
(445,61,o),
(396,31,cs),
(346,1,o),
(289,-8,o),
(238,-8,cs)
);
}
);
width = 600;
},
{
anchors = (
{
name = t._5066;
position = "{379, 700}";
},
{
name = t._5111;
position = "{701, 813}";
},
{
name = m.uni1DF7;
position = "{151, 700}";
},
{
name = m._5077;
position = "{607, 700}";
},
{
name = m._5079;
position = "{239, 0}";
},
{
name = m._5307;
position = "{498, -205}";
},
{
name = m.uni1DFA;
position = "{11, 0}";
},
{
name = m.uni0321;
position = "{467, 0}";
},
{
name = m._5081;
position = "{311, 364}";
},
{
name = m._5093;
position = "{309, 350}";
},
{
name = m._5088;
position = "{309, 350}";
}
);
layerId = "39BC9D91-1289-454F-9557-B2BECA116F6B";
shapes = (
{
closed = 1;
nodes = (
(180,-8,o),
(118,8,o),
(79,54,cs),
(40,100,o),
(35,165,o),
(49,230,c),
(106,519,l),
(118,576,o),
(148,629,o),
(201,664,cs),
(254,699,o),
(309,708,o),
(366,708,cs),
(424,708,o),
(477,699,o),
(522,669,cs),
(566,639,o),
(586,585,o),
(574,527,cs),
(572,518,l),
(481,518,l),
(482,523,l),
(491,558,o),
(477,590,o),
(451,606,cs),
(423,623,o),
(392,628,o),
(358,628,c),
(322,629,o),
(286,622,o),
(254,598,cs),
(222,574,o),
(203,539,o),
(195,504,c),
(137,214,l),
(131,175,o),
(132,138,o),
(156,110,cs),
(179,82,o),
(213,72,o),
(254,72,cs),
(288,72,o),
(323,78,o),
(354,97,cs),
(385,116,o),
(407,149,o),
(414,182,c),
(505,182,l),
(493,126,o),
(461,73,o),
(410,38,cs),
(359,3,o),
(301,-8,o),
(246,-8,cs)
);
}
);
width = 600;
}
);
unicode = 67;
},
{
glyphname = D;
layers = (
{
anchors = (
{
name = mark0;
position = "{379, 700}";
},
{
name = mark0.1;
position = "{615, 700}";
},
{
name = mark0.2;
position = "{239, 0}";
},
{
name = mark0.3;
position = "{311, 364}";
},
{
name = mark0.4;
position = "{309, 350}";
}
);
layerId = "DD7251A6-C35A-4560-A124-DA829078785F";
shapes = (
{
closed = 1;
nodes = (
(3,0,l),
(143,700,l),
(315,700,l),
(454,706,o),
(568,614,o),
(560,426,c),
(560,152,o),
(381,42,o),
(331,22,cs),
(292,6,o),
(252,0,o),
(211,0,c)
);
},
{
closed = 1;
nodes = (
(211,120,ls),
(258,120,o),
(305,146,o),
(335,183,cs),
(339,188,o),
(343,193,o),
(347,198,c),
(357,213,l),
(382,255,o),
(398,307,o),
(405,346,c),
(412,383,l),
(415,402,o),
(416,421,o),
(416,440,c),
(416,513,o),
(389,580,o),
(314,580,cs),
(267,580,l),
(175,120,l)
);
}
);
width = 600;
},
{
anchors = (
{
name = mark0;
position = "{379, 700}";
},
{
name = mark0.1;
position = "{615, 700}";
},
{
name = mark0.2;
position = "{239, 0}";
},
{
name = mark0.3;
position = "{311, 364}";
},
{
name = mark0.4;
position = "{309, 350}";
}
);
layerId = "39BC9D91-1289-454F-9557-B2BECA116F6B";
shapes = (
{
closed = 1;
nodes = (
(11,0,l),
(151,700,l),
(325,700,l),
(449,703,o),
(558,631,o),
(553,431,cs),
(549,207,o),
(424,67,o),
(329,23,c),
(289,6,o),
(249,0,o),
(208,0,c)
);
},
{
closed = 1;
nodes = (
(208,75,ls),
(258,75,o),
(313,96,o),
(351,136,c),
(357,141,o),
(363,148,o),
(368,154,cs),
(384,172,l),
(421,223,o),
(442,288,o),
(453,343,c),
(460,385,l),
(463,410,o),
(464,433,o),
(464,458,c),
(461,539,o),
(429,625,o),
(324,625,cs),
(227,625,l),
(117,75,l)
);
}
);
width = 600;
},
{
anchors = (
{
name = mark0;
position = "{379, 700}";
},
{
name = mark0.1;
position = "{615, 700}";
},
{
name = mark0.2;
position = "{239, 0}";
},
{
name = mark0.3;
position = "{311, 364}";
},
{
name = mark0.4;
position = "{309, 350}";
}
);
layerId = "F450F4C4-4139-41FB-98F6-B6481F1E9B5F";
shapes = (
{
closed = 1;
nodes = (
(21,0,l),
(161,700,l),
(337,700,ls),
(442,700,o),
(545,653,o),
(545,438,c),
(535,276,o),
(478,98,o),
(326,25,cs),
(286,6,o),
(246,-1,o),
(205,0,c)
);
},
{
closed = 1;
nodes = (
(205,19,ls),
(259,19,o),
(322,33,o),
(372,77,c),
(380,83,o),
(387,91,o),
(395,98,c),
(417,121,l),
(469,184,o),
(497,264,o),
(512,340,c),
(519,387,ls),
(524,419,o),
(523,449,o),
(524,481,c),
(518,572,o),
(480,681,o),
(336,681,cs),
(178,681,l),
(45,19,l)
);
}
);
width = 600;
}
);
unicode = 68;
},
{
glyphname = E;
layers = (
{
anchors = (
{
name = mark0;
position = "{379, 700}";
},
{
name = mark0.1;
position = "{615, 700}";
},
{
name = mark0.2;
position = "{239, 0}";
},
{
name = mark0.3;
position = "{475, 0}";
},
{
name = mark0.4;
position = "{311, 364}";
},
{
name = mark0.5;
position = "{309, 350}";
}
);
layerId = "DD7251A6-C35A-4560-A124-DA829078785F";
shapes = (
{
closed = 1;
nodes = (
(11,0,l),
(151,700,l),
(615,700,l),
(591,580,l),
(275,580,l),
(243,424,l),
(488,424,l),
(464,304,l),
(219,304,l),
(183,120,l),
(499,120,l),
(475,0,l)
);
}
);
width = 600;
},
{
anchors = (
{
name = mark0;
position = "{379, 700}";
},
{
name = mark0.1;
position = "{615, 700}";
},
{
name = mark0.2;
position = "{239, 0}";
},
{
name = mark0.3;
position = "{475, 0}";
},
{
name = mark0.4;
position = "{311, 364}";
},
{
name = mark0.5;
position = "{309, 350}";
}
);
layerId = "39BC9D91-1289-454F-9557-B2BECA116F6B";
shapes = (
{
closed = 1;
nodes = (
(19,0,l),
(159,700,l),
(607,700,l),
(592,625,l),
(235,625,l),
(190,401,l),
(478,401,l),
(464,327,l),
(175,327,l),
(125,75,l),
(482,75,l),
(467,0,l)
);
}
);
width = 600;
},
{
anchors = (
{
name = mark0;
position = "{379, 700}";
},
{
name = mark0.1;
position = "{615, 700}";
},
{
name = mark0.2;
position = "{239, 0}";
},
{
name = mark0.3;
position = "{475, 0}";
},
{
name = mark0.4;
position = "{311, 364}";
},
{
name = mark0.5;
position = "{309, 350}";
}
);
layerId = "F450F4C4-4139-41FB-98F6-B6481F1E9B5F";
shapes = (
{
closed = 1;
nodes = (
(29,0,l),
(169,700,l),
(597,700,l),
(593,681,l),
(186,681,l),
(124,373,l),
(466,373,l),
(463,355,l),
(121,355,l),
(53,19,l),
(460,19,l),
(457,0,l)
);
}
);
width = 600;
}
);
unicode = 69;
},
{
glyphname = F;
layers = (
{
anchors = (
{
name = mark0;
position = "{379, 700}";
},
{
name = mark0.1;
position = "{615, 700}";
},
{
name = mark0.2;
position = "{239, 0}";
},
{
name = mark0.3;
position = "{108, 0}";
},
{
name = mark0.4;
position = "{311, 364}";
},
{
name = mark0.5;
position = "{309, 350}";
}
);
layerId = "DD7251A6-C35A-4560-A124-DA829078785F";
shapes = (
{
closed = 1;
nodes = (
(35,0,l),
(175,700,l),
(615,700,l),
(591,580,l),
(299,580,l),
(267,424,l),
(488,424,l),
(464,304,l),
(243,304,l),
(183,0,l)
);
}
);
width = 600;
},
{
anchors = (
{
name = mark0;
position = "{379, 700}";
},
{
name = mark0.1;
position = "{615, 700}";
},
{
name = mark0.2;
position = "{239, 0}";
},
{
name = mark0.3;
position = "{108, 0}";
},
{
name = mark0.4;
position = "{311, 364}";
},
{
name = mark0.5;
position = "{309, 350}";
}
);
layerId = "39BC9D91-1289-454F-9557-B2BECA116F6B";
shapes = (
{
closed = 1;
nodes = (
(47,0,l),
(187,700,l),
(607,700,l),
(592,625,l),
(263,625,l),
(218,401,l),
(478,401,l),
(464,327,l),
(203,327,l),
(139,0,l)
);
}
);
width = 600;
},
{
anchors = (
{
name = mark0;
position = "{379, 700}";
},
{
name = mark0.1;
position = "{615, 700}";
},
{
name = mark0.2;
position = "{239, 0}";
},
{
name = mark0.3;
position = "{108, 0}";
},
{
name = mark0.4;
position = "{311, 364}";
},
{
name = mark0.5;
position = "{309, 350}";
}
);
layerId = "F450F4C4-4139-41FB-98F6-B6481F1E9B5F";
shapes = (
{
closed = 1;
nodes = (
(62,0,l),
(202,700,l),
(597,700,l),
(593,681,l),
(219,681,l),
(157,373,l),
(466,373,l),
(463,355,l),
(154,355,l),
(83,0,l)
);
}
);
width = 600;
}
);
unicode = 70;
},
{
glyphname = G;
layers = (
{
anchors = (
{
name = t._5066;
position = "{379, 700}";
},
{
name = t._5111;
position = "{701, 813}";
},
{
name = m.uni1DF7;
position = "{143, 700}";
},
{
name = m._5077;
position = "{615, 700}";
},
{
name = m._5079;
position = "{239, 0}";
},
{
name = m._5307;
position = "{498, -205}";
},
{
name = m.uni1DFA;
position = "{3, 0}";
},
{
name = m.uni0321;
position = "{475, 0}";
},
{
name = m._5081;
position = "{311, 364}";
},
{
name = m._5093;
position = "{309, 350}";
},
{
name = m._5088;
position = "{309, 350}";
}
);
layerId = "DD7251A6-C35A-4560-A124-DA829078785F";
shapes = (
{
closed = 1;
nodes = (
(95,-8,o),
(14,87,o),
(46,256,c),
(96,505,l),
(119,641,o),
(233,708,o),
(363,708,c),
(492,710,o),
(608,655,o),
(578,505,c),
(432,505,l),
(432,567,o),
(419,588,o),
(351,588,cs),
(286,588,o),
(250,540,o),
(239,481,cs),
(189,233,l),
(179,171,o),
(189,112,o),
(266,112,cs),
(294,112,o),
(325,117,o),
(352,129,c),
(381,274,l),
(293,274,l),
(317,394,l),
(553,394,l),
(486,56,l),
(418,15,o),
(339,-8,o),
(266,-8,cs)
);
}
);
width = 600;
},
{
anchors = (
{
name = t._5066;
position = "{379, 700}";
},
{
name = t._5111;
position = "{701, 813}";
},
{
name = m.uni1DF7;
position = "{161, 700}";
},
{
name = m._5077;
position = "{597, 700}";
},
{
name = m._5079;
position = "{239, 0}";
},
{
name = m._5307;
position = "{498, -205}";
},
{
name = m.uni1DFA;
position = "{21, 0}";
},
{
name = m.uni0321;
position = "{457, 0}";
},
{
name = m._5081;
position = "{311, 364}";
},
{
name = m._5093;
position = "{309, 350}";
},
{
name = m._5088;
position = "{309, 350}";
}
);
layerId = "F450F4C4-4139-41FB-98F6-B6481F1E9B5F";
shapes = (
{
closed = 1;
nodes = (
(105,-8,o),
(25,74,o),
(57,221,c),
(115,511,ls),
(140,642,o),
(246,708,o),
(374,708,cs),
(474,708,o),
(594,660,o),
(566,535,c),
(545,535,l),
(568,650,o),
(465,689,o),
(372,689,cs),
(254,689,o),
(159,629,o),
(135,508,cs),
(77,217,l),
(48,84,o),
(119,11,o),
(251,11,cs),
(316,11,o),
(383,26,o),
(447,55,c),
(506,350,l),
(309,350,l),
(312,369,l),
(530,369,l),
(465,42,l),
(396,10,o),
(322,-8,o),
(251,-8,cs)
);
}
);
width = 600;
},
{
anchors = (
{
name = t._5066;
position = "{379, 700}";
},
{
name = t._5111;
position = "{701, 813}";
},
{
name = m.uni1DF7;
position = "{151, 700}";
},
{
name = m._5077;
position = "{607, 700}";
},
{
name = m._5079;
position = "{239, 0}";
},
{
name = m._5307;
position = "{498, -205}";
},
{
name = m.uni1DFA;
position = "{11, 0}";
},
{
name = m.uni0321;
position = "{467, 0}";
},
{
name = m._5081;
position = "{311, 364}";
},
{
name = m._5093;
position = "{309, 350}";
},
{
name = m._5088;
position = "{309, 350}";
}
);
layerId = "39BC9D91-1289-454F-9557-B2BECA116F6B";
shapes = (
{
closed = 1;
nodes = (
(108,-8,o),
(16,70,o),
(49,230,c),
(106,519,l),
(134,650,o),
(239,708,o),
(366,708,cs),
(484,708,o),
(604,661,o),
(572,518,c),
(481,518,l),
(498,604,o),
(429,628,o),
(358,628,c),
(276,630,o),
(213,585,o),
(195,504,c),
(137,214,l),
(123,121,o),
(168,72,o),
(261,72,cs),
(305,72,o),
(351,82,o),
(395,101,c),
(435,304,l),
(299,304,l),
(315,384,l),
(543,384,l),
(477,51,l),
(408,12,o),
(332,-8,o),
(261,-8,cs)
);
}
);
width = 600;
}
);
unicode = 71;
},
{
glyphname = H;
layers = (
{
anchors = (
{
name = mark0;
position = "{379, 700}";
},
{
name = mark0.1;
position = "{615, 700}";
},
{
name = mark0.2;
position = "{239, 0}";
},
{
name = mark0.3;
position = "{311, 364}";
},
{
name = mark0.4;
position = "{309, 350}";
}
);
layerId = "DD7251A6-C35A-4560-A124-DA829078785F";
shapes = (
{
closed = 1;
nodes = (
(3,0,l),
(143,700,l),
(291,700,l),
(234,417,l),
(410,417,l),
(467,700,l),
(615,700,l),
(475,0,l),
(327,0,l),
(386,297,l),
(210,297,l),
(151,0,l)
);
}
);
width = 600;
},
{
anchors = (
{
name = mark0;
position = "{379, 700}";
},
{
name = mark0.1;
position = "{615, 700}";
},
{
name = mark0.2;
position = "{239, 0}";
},
{
name = mark0.3;
position = "{311, 364}";
},
{
name = mark0.4;
position = "{309, 350}";
}
);
layerId = "39BC9D91-1289-454F-9557-B2BECA116F6B";
shapes = (
{
closed = 1;
nodes = (
(11,0,l),
(151,700,l),
(243,700,l),
(182,398,l),
(455,398,l),
(515,700,l),
(607,700,l),
(467,0,l),
(375,0,l),
(440,323,l),
(167,323,l),
(103,0,l)
);
}
);
width = 600;
},
{
anchors = (
{
name = mark0;
position = "{379, 700}";
},
{
name = mark0.1;
position = "{615, 700}";
},
{
name = mark0.2;
position = "{239, 0}";
},
{
name = mark0.3;
position = "{311, 364}";
},
{
name = mark0.4;
position = "{309, 350}";
}
);
layerId = "F450F4C4-4139-41FB-98F6-B6481F1E9B5F";
shapes = (
{
closed = 1;
nodes = (
(21,0,l),
(161,700,l),
(182,700,l),
(117,375,l),
(511,375,l),
(576,700,l),
(597,700,l),
(457,0,l),
(436,0,l),
(507,356,l),
(113,356,l),
(42,0,l)
);
}
);
width = 600;
}
);
unicode = 72;
},
{
glyphname = I;
layers = (
{
anchors = (
{
name = mark0;
position = "{229, 700}";
},
{
name = mark0.1;
position = "{315, 700}";
},
{
name = mark0.2;
position = "{89, 0}";
},
{
name = mark0.3;
position = "{162, 0}";
},
{
name = mark0.4;
position = "{161, 364}";
},
{
name = mark0.5;
position = "{159, 350}";
}
);
layerId = "DD7251A6-C35A-4560-A124-DA829078785F";
shapes = (
{
closed = 1;
nodes = (
(15,0,l),
(155,700,l),
(303,700,l),
(163,0,l)
);
}
);
width = 300;
},
{
anchors = (
{
name = mark0;
position = "{229, 700}";
},
{
name = mark0.1;
position = "{315, 700}";
},
{
name = mark0.2;
position = "{89, 0}";
},
{
name = mark0.3;
position = "{162, 0}";
},
{
name = mark0.4;
position = "{161, 364}";
},
{
name = mark0.5;
position = "{159, 350}";
}
);
layerId = "39BC9D91-1289-454F-9557-B2BECA116F6B";
shapes = (
{
closed = 1;
nodes = (
(43,0,l),
(183,700,l),
(275,700,l),
(135,0,l)
);
}
);
width = 300;
},
{
anchors = (
{
name = mark0;
position = "{229, 700}";
},
{
name = mark0.1;
position = "{315, 700}";
},
{
name = mark0.2;
position = "{89, 0}";
},
{
name = mark0.3;
position = "{162, 0}";
},
{
name = mark0.4;
position = "{161, 364}";
},
{
name = mark0.5;
position = "{159, 350}";
}
);
layerId = "F450F4C4-4139-41FB-98F6-B6481F1E9B5F";
shapes = (
{
closed = 1;
nodes = (
(78,0,l),
(218,700,l),
(240,700,l),
(100,0,l)
);
}
);
width = 300;
}
);
unicode = 73;
},
{
glyphname = J;
layers = (
{
anchors = (
{
name = mark0;
position = "{466, 700}";
},
{
name = mark0.1;
position = "{615, 700}";
},
{
name = mark0.2;
position = "{239, 0}";
},
{
name = mark0.3;
position = "{399, 364}";
},
{
name = mark0.4;
position = "{309, 350}";
}
);
layerId = "40237F9C-3A98-4E78-9734-D392DF481117";
associatedMasterId = "DD7251A6-C35A-4560-A124-DA829078785F";
name = 1;
shapes = (
{
closed = 1;
nodes = (
(90,-8,o),
(-3,58,o),
(24,195,c),
(170,195,l),
(159,150,o),
(184,112,o),
(234,112,cs),
(316,112,o),
(339,250,o),
(336,239,c),
(344,267,o),
(349,296,o),
(355,324,cs),
(430,700,l),
(577,700,l),
(483,234,l),
(457,121,o),
(381,-8,o),
(222,-8,cs)
);
}
);
width = 600;
},
{
anchors = (
{
name = t._1510;
position = "{466, 700}";
},
{
name = m.uni031B;
position = "{615, 700}";
},
{
name = m._1519;
position = "{239, 0}";
},
{
name = m.uni0335;
position = "{399, 364}";
},
{
name = m.uni0336;
position = "{309, 350}";
}
);
layerId = "DD7251A6-C35A-4560-A124-DA829078785F";
shapes = (
{
closed = 1;
nodes = (
(97,-8,o),
(-4,55,o),
(24,195,c),
(170,195,l),
(158,147,o),
(184,112,o),
(234,112,c),
(304,114,o),
(333,226,o),
(346,280,c),
(430,700,l),
(577,700,l),
(488,256,l),
(458,117,o),
(380,-8,o),
(222,-8,cs)
);
}
);
width = 600;
},
{
anchors = (
{
name = t._1510;
position = "{509, 700}";
},
{
name = m.uni031B;
position = "{607, 700}";
},
{
name = m._1519;
position = "{239, 0}";
},
{
name = m.uni0335;
position = "{442, 364}";
},
{
name = m.uni0336;
position = "{309, 350}";
}
);
layerId = "39BC9D91-1289-454F-9557-B2BECA116F6B";
shapes = (
{
closed = 1;
nodes = (
(107,-8,o),
(-1,47,o),
(27,182,c),
(118,182,l),
(101,105,o),
(165,72,o),
(231,72,cs),
(329,72,o),
(380,161,o),
(396,246,cs),
(487,700,l),
(579,700,l),
(485,230,ls),
(458,93,o),
(369,-8,o),
(223,-8,cs)
);
}
);
width = 600;
},
{
anchors = (
{
name = mark0;
position = "{466, 700}";
},
{
name = mark0.1;
position = "{615, 700}";
},
{
name = mark0.2;
position = "{239, 0}";
},
{
name = mark0.3;
position = "{399, 364}";
},
{
name = mark0.4;
position = "{309, 350}";
}
);
layerId = "F450F4C4-4139-41FB-98F6-B6481F1E9B5F";
shapes = (
{
closed = 1;
nodes = (
(112,-8,o),
(4,39,o),
(32,165,c),
(52,165,l),
(24,54,o),
(130,11,o),
(224,11,cs),
(360,11,o),
(442,100,o),
(468,225,cs),
(563,700,l),
(584,700,l),
(488,221,ls),
(465,107,o),
(390,-8,o),
(222,-8,cs)
);
}
);
width = 600;
}
);
unicode = 74;
},
{
glyphname = K;
layers = (
{
anchors = (
{
name = mark0;
position = "{379, 700}";
},
{
name = mark0.1;
position = "{615, 700}";
},
{
name = mark0.2;
position = "{239, 0}";
},
{
name = mark0.3;
position = "{499, 0}";
},
{
name = mark0.4;
position = "{311, 364}";
},
{
name = mark0.5;
position = "{309, 350}";
}
);
layerId = "DD7251A6-C35A-4560-A124-DA829078785F";
shapes = (
{
closed = 1;
nodes = (
(349,0,l),
(262,271,l),
(212,215,l),
(169,0,l),
(22,0,l),
(162,700,l),
(309,700,l),
(257,443,l),
(466,700,l),
(640,700,l),
(358,380,l),
(500,0,l)
);
}
);
width = 600;
},
{
anchors = (
{
name = mark0;
position = "{379, 700}";
},
{
name = mark0.1;
position = "{615, 700}";
},
{
name = mark0.2;
position = "{239, 0}";
},
{
name = mark0.3;
position = "{499, 0}";
},
{
name = mark0.4;
position = "{311, 364}";
},
{
name = mark0.5;
position = "{309, 350}";
}
);
layerId = "39BC9D91-1289-454F-9557-B2BECA116F6B";
shapes = (
{
closed = 1;
nodes = (
(386,0,l),
(245,316,l),
(169,243,l),
(121,0,l),
(30,0,l),
(170,700,l),
(261,700,l),
(197,383,l),
(511,700,l),
(620,700,l),
(306,383,l),
(480,0,l)
);
}
);
width = 600;
},
{
anchors = (
{
name = mark0;
position = "{379, 700}";
},
{
name = mark0.1;
position = "{615, 700}";
},
{
name = mark0.2;
position = "{239, 0}";
},
{
name = mark0.3;
position = "{499, 0}";
},
{
name = mark0.4;
position = "{311, 364}";
},
{
name = mark0.5;
position = "{309, 350}";
}
);
layerId = "F450F4C4-4139-41FB-98F6-B6481F1E9B5F";
shapes = (
{
closed = 1;
nodes = (
(433,0,l),
(224,373,l),
(116,277,l),
(61,0,l),
(40,0,l),
(180,700,l),
(201,700,l),
(122,309,l),
(567,700,l),
(596,700,l),
(240,386,l),
(456,0,l)
);
}
);
width = 600;
}
);
unicode = 75;
},
{
glyphname = L;
layers = (
{
anchors = (
{
name = mark0;
position = "{379, 700}";
},
{
name = mark0.1;
position = "{248, 700}";
},
{
name = mark0.2;
position = "{615, 700}";
},
{
name = mark0.3;
position = "{239, 0}";
},
{
name = mark0.4;
position = "{311, 364}";
},
{
name = mark0.5;
position = "{309, 350}";
}
);
layerId = "DD7251A6-C35A-4560-A124-DA829078785F";
shapes = (
{
closed = 1;
nodes = (
(35,0,l),
(175,700,l),
(323,700,l),
(207,120,l),
(505,120,l),
(481,0,l)
);
}
);
width = 600;
},
{
anchors = (
{
name = mark0;
position = "{379, 700}";
},
{
name = mark0.1;
position = "{248, 700}";
},
{
name = mark0.2;
position = "{615, 700}";
},
{
name = mark0.3;
position = "{239, 0}";
},
{
name = mark0.4;
position = "{311, 364}";
},
{
name = mark0.5;
position = "{309, 350}";
}
);
layerId = "39BC9D91-1289-454F-9557-B2BECA116F6B";
shapes = (
{
closed = 1;
nodes = (
(47,0,l),
(187,700,l),
(279,700,l),
(153,75,l),
(488,75,l),
(473,0,l)
);
}
);
width = 600;
},
{
anchors = (
{
name = mark0;
position = "{379, 700}";
},
{
name = mark0.1;
position = "{248, 700}";
},
{
name = mark0.2;
position = "{615, 700}";
},
{
name = mark0.3;
position = "{239, 0}";
},
{
name = mark0.4;
position = "{311, 364}";
},
{
name = mark0.5;
position = "{309, 350}";
}
);
layerId = "F450F4C4-4139-41FB-98F6-B6481F1E9B5F";
shapes = (
{
closed = 1;
nodes = (
(62,0,l),
(202,700,l),
(223,700,l),
(86,19,l),
(466,19,l),
(463,0,l)
);
}
);
width = 600;
}
);
unicode = 76;
},
{
glyphname = M;
layers = (
{
anchors = (
{
name = mark0;
position = "{479, 700}";
},
{
name = mark0.1;
position = "{815, 700}";
},
{
name = mark0.2;
position = "{339, 0}";
},
{
name = mark0.3;
position = "{411, 364}";
},
{
name = mark0.4;
position = "{409, 350}";
}
);
layerId = "DD7251A6-C35A-4560-A124-DA829078785F";
shapes = (
{
closed = 1;
nodes = (
(3,0,l),
(37,140,ls),
(82,326,o),
(133,513,o),
(171,700,c),
(359,700,l),
(401,314,l),
(599,700,l),
(787,700,l),
(751,514,o),
(728,327,o),
(697,140,cs),
(675,0,l),
(527,0,l),
(550,140,l),
(566,258,o),
(591,373,o),
(613,489,c),
(423,118,l),
(301,118,l),
(259,489,l),
(238,372,o),
(211,257,o),
(184,140,c),
(151,0,l)
);
}
);
width = 800;
},
{
anchors = (
{
name = mark0;
position = "{479, 700}";
},
{
name = mark0.1;
position = "{815, 700}";
},
{
name = mark0.2;
position = "{339, 0}";
},
{
name = mark0.3;
position = "{411, 364}";
},
{
name = mark0.4;
position = "{409, 350}";
}
);
layerId = "39BC9D91-1289-454F-9557-B2BECA116F6B";
shapes = (
{
closed = 1;
nodes = (
(11,0,l),
(45,140,ls),
(90,326,o),
(141,513,o),
(179,700,c),
(297,700,l),
(386,237,l),
(661,700,l),
(779,700,l),
(743,513,o),
(719,326,o),
(689,140,cs),
(667,0,l),
(575,0,l),
(598,140,l),
(619,285,o),
(643,429,o),
(671,573,c),
(400,118,l),
(324,118,l),
(235,573,l),
(207,428,o),
(169,284,o),
(136,140,c),
(103,0,l)
);
}
);
width = 800;
},
{
anchors = (
{
name = mark0;
position = "{479, 700}";
},
{
name = mark0.1;
position = "{815, 700}";
},
{
name = mark0.2;
position = "{339, 0}";
},
{
name = mark0.3;
position = "{411, 364}";
},
{
name = mark0.4;
position = "{409, 350}";
}
);
layerId = "F450F4C4-4139-41FB-98F6-B6481F1E9B5F";
shapes = (
{
closed = 1;
nodes = (
(21,0,l),
(55,140,ls),
(100,325,o),
(150,512,o),
(189,700,c),
(220,700,l),
(367,141,l),
(738,700,l),
(769,700,l),
(732,511,o),
(708,325,o),
(679,140,cs),
(657,0,l),
(636,0,l),
(658,140,ls),
(686,318,o),
(707,498,o),
(743,677,c),
(372,118,l),
(352,118,l),
(205,677,l),
(169,499,o),
(116,317,o),
(76,140,c),
(42,0,l)
);
}
);
width = 800;
}
);
unicode = 77;
},
{
glyphname = N;
layers = (
{
anchors = (
{
name = mark0;
position = "{379, 700}";
},
{
name = mark0.1;
position = "{615, 700}";
},
{
name = mark0.2;
position = "{239, 0}";
},
{
name = mark0.3;
position = "{427, 0}";
},
{
name = mark0.4;
position = "{311, 364}";
},
{
name = mark0.5;
position = "{309, 350}";
}
);
layerId = "DD7251A6-C35A-4560-A124-DA829078785F";
shapes = (
{
closed = 1;
nodes = (
(3,0,l),
(143,700,l),
(282,700,l),
(390,226,l),
(390,290,o),
(398,355,o),
(411,420,cs),
(467,700,l),
(615,700,l),
(475,0,l),
(336,0,l),
(227,474,l),
(227,321,o),
(183,156,o),
(151,0,c)
);
}
);
width = 600;
},
{
anchors = (
{
name = mark0;
position = "{379, 700}";
},
{
name = mark0.1;
position = "{615, 700}";
},
{
name = mark0.2;
position = "{239, 0}";
},
{
name = mark0.3;
position = "{427, 0}";
},
{
name = mark0.4;
position = "{311, 364}";
},
{
name = mark0.5;
position = "{309, 350}";
}
);
layerId = "39BC9D91-1289-454F-9557-B2BECA116F6B";
shapes = (
{
closed = 1;
nodes = (
(11,0,l),
(151,700,l),
(242,700,l),
(412,136,l),
(422,222,o),
(437,307,o),
(454,394,cs),
(515,700,l),
(607,700,l),
(467,0,l),
(376,0,l),
(205,564,l),
(184,379,o),
(140,187,o),
(103,0,c)
);
}
);
width = 600;
},
{
anchors = (
{
name = mark0;
position = "{379, 700}";
},
{
name = mark0.1;
position = "{615, 700}";
},
{
name = mark0.2;
position = "{239, 0}";
},
{
name = mark0.3;
position = "{427, 0}";
},
{
name = mark0.4;
position = "{311, 364}";
},
{
name = mark0.5;
position = "{309, 350}";
}
);
layerId = "F450F4C4-4139-41FB-98F6-B6481F1E9B5F";
shapes = (
{
closed = 1;
nodes = (
(21,0,l),
(161,700,l),
(191,700,l),
(440,23,l),
(462,136,o),
(485,248,o),
(508,361,cs),
(576,700,l),
(597,700,l),
(457,0,l),
(427,0,l),
(177,677,l),
(131,451,o),
(86,225,o),
(42,0,c)
);
}
);
width = 600;
}
);
unicode = 78;
},
{
glyphname = O;
layers = (
{
anchors = (
{
name = t._5066;
position = "{379, 700}";
},
{
name = t._5111;
position = "{701, 813}";
},
{
name = m.uni1DF7;
position = "{143, 700}";
},
{
name = m._5077;
position = "{615, 700}";
},
{
name = m._5079;
position = "{239, 0}";
},
{
name = m._5307;
position = "{498, -205}";
},
{
name = m.uni1DFA;
position = "{3, 0}";
},
{
name = m.uni0321;
position = "{475, 0}";
},
{
name = m._5081;
position = "{311, 364}";
},
{
name = m._5093;
position = "{309, 350}";
},
{
name = m._5088;
position = "{309, 350}";
}
);
layerId = "DD7251A6-C35A-4560-A124-DA829078785F";
shapes = (
{
closed = 1;
nodes = (
(85,-8,o),
(14,93,o),
(46,256,cs),
(96,505,ls),
(122,641,o),
(229,708,o),
(362,708,cs),
(533,708,o),
(603,608,o),
(571,444,cs),
(522,195,l),
(493,59,o),
(390,-8,o),
(255,-8,cs)
);
},
{
closed = 1;
nodes = (
(324,114,o),
(366,151,o),
(378,219,cs),
(428,467,ls),
(439,522,o),
(435,588,o),
(362,588,c),
(294,590,o),
(250,545,o),
(239,481,cs),
(189,233,ls),
(178,178,o),
(183,112,o),
(255,112,c)
);
}
);
width = 600;
},
{
anchors = (
{
name = t._5066;
position = "{379, 700}";
},
{
name = t._5111;
position = "{701, 813}";
},
{
name = m.uni1DF7;
position = "{161, 700}";
},
{
name = m._5077;
position = "{597, 700}";
},
{
name = m._5079;
position = "{239, 0}";
},
{
name = m._5307;
position = "{498, -205}";
},
{
name = m.uni1DFA;
position = "{21, 0}";
},
{
name = m.uni0321;
position = "{457, 0}";
},
{
name = m._5081;
position = "{311, 364}";
},
{
name = m._5093;
position = "{309, 350}";
},
{
name = m._5088;
position = "{309, 350}";
}
);
layerId = "F450F4C4-4139-41FB-98F6-B6481F1E9B5F";
shapes = (
{
closed = 1;
nodes = (
(92,-8,o),
(30,78,o),
(57,221,cs),
(115,511,l),
(138,644,o),
(248,708,o),
(376,708,cs),
(522,708,o),
(592,622,o),
(560,479,c),
(502,189,l),
(479,55,o),
(369,-8,o),
(241,-8,cs)
);
},
{
closed = 1;
nodes = (
(361,13,o),
(459,68,o),
(482,192,cs),
(540,483,l),
(569,612,o),
(506,689,o),
(375,689,c),
(257,691,o),
(158,629,o),
(135,508,cs),
(77,217,l),
(53,89,o),
(108,11,o),
(242,11,c)
);
}
);
width = 600;
},
{
anchors = (
{
name = t._5066;
position = "{379, 700}";
},
{
name = t._5111;
position = "{701, 813}";
},
{
name = m.uni1DF7;
position = "{151, 700}";
},
{
name = m._5077;
position = "{607, 700}";
},
{
name = m._5079;
position = "{239, 0}";
},
{
name = m._5307;
position = "{498, -205}";
},
{
name = m.uni1DFA;
position = "{11, 0}";
},
{
name = m.uni0321;
position = "{467, 0}";
},
{
name = m._5081;
position = "{311, 364}";
},
{
name = m._5093;
position = "{309, 350}";
},
{
name = m._5088;
position = "{309, 350}";
}
);
layerId = "39BC9D91-1289-454F-9557-B2BECA116F6B";
shapes = (
{
closed = 1;
nodes = (
(100,-8,o),
(17,76,o),
(49,230,c),
(106,519,l),
(136,650,o),
(237,708,o),
(365,708,c),
(522,710,o),
(597,625,o),
(569,470,c),
(511,181,ls),
(483,50,o),
(379,-8,o),
(252,-8,cs)
);
},
{
closed = 1;
nodes = (
(336,72,o),
(403,109,o),
(422,196,c),
(480,486,ls),
(498,575,o),
(456,628,o),
(365,628,cs),
(282,628,o),
(214,590,o),
(195,504,c),
(137,214,l),
(123,125,o),
(158,72,o),
(252,72,cs)
);
}
);
width = 600;
}
);
unicode = 79;
},
{
glyphname = P;
layers = (
{
anchors = (
{
name = mark0;
position = "{379, 700}";
},
{
name = mark0.1;
position = "{615, 700}";
},
{
name = mark0.2;
position = "{239, 0}";
},
{
name = mark0.3;
position = "{92, 0}";
},
{
name = mark0.4;
position = "{311, 364}";
},
{
name = mark0.5;
position = "{309, 350}";
}
);
layerId = "DD7251A6-C35A-4560-A124-DA829078785F";
shapes = (
{
closed = 1;
nodes = (
(19,0,l),
(159,700,l),
(390,700,ls),
(468,700,o),
(565,673,o),
(583,566,c),
(588,542,o),
(588,517,o),
(586,490,cs),
(577,381,o),
(515,255,o),
(338,255,cs),
(218,255,l),
(167,0,l)
);
},
{
closed = 1;
nodes = (
(337,374,ls),
(379,374,o),
(414,402,o),
(431,445,cs),
(438,463,o),
(442,485,o),
(442,505,cs),
(442,556,o),
(433,580,o),
(359,580,cs),
(283,580,l),
(241,374,l)
);
}
);
width = 600;
},
{
anchors = (
{
name = mark0;
position = "{379, 700}";
},
{
name = mark0.1;
position = "{615, 700}";
},
{
name = mark0.2;
position = "{239, 0}";
},
{
name = mark0.3;
position = "{92, 0}";
},
{
name = mark0.4;
position = "{311, 364}";
},
{
name = mark0.5;
position = "{309, 350}";
}
);
layerId = "39BC9D91-1289-454F-9557-B2BECA116F6B";
shapes = (
{
closed = 1;
nodes = (
(29,0,l),
(169,700,l),
(399,700,ls),
(478,700,o),
(570,670,o),
(580,559,c),
(583,538,o),
(583,516,o),
(580,493,cs),
(566,392,o),
(506,284,o),
(340,284,cs),
(178,284,l),
(121,0,l)
);
},
{
closed = 1;
nodes = (
(339,358,ls),
(392,358,o),
(454,385,o),
(479,449,cs),
(488,473,o),
(493,498,o),
(493,524,cs),
(493,581,o),
(474,625,o),
(381,625,cs),
(246,625,l),
(192,358,l)
);
}
);
width = 600;
},
{
anchors = (
{
name = mark0;
position = "{379, 700}";
},
{
name = mark0.1;
position = "{615, 700}";
},
{
name = mark0.2;
position = "{239, 0}";
},
{
name = mark0.3;
position = "{92, 0}";
},
{
name = mark0.4;
position = "{311, 364}";
},
{
name = mark0.5;
position = "{309, 350}";
}
);
layerId = "F450F4C4-4139-41FB-98F6-B6481F1E9B5F";
shapes = (
{
closed = 1;
nodes = (
(42,0,l),
(182,700,l),
(410,700,ls),
(490,700,o),
(577,667,o),
(577,551,cs),
(577,533,o),
(576,514,o),
(572,497,cs),
(552,406,o),
(494,320,o),
(342,320,cs),
(127,320,l),
(63,0,l)
);
},
{
closed = 1;
nodes = (
(342,339,ls),
(408,339,o),
(503,363,o),
(538,455,cs),
(550,486,o),
(556,515,o),
(556,548,cs),
(556,612,o),
(525,681,o),
(409,681,cs),
(199,681,l),
(130,339,l)
);
}
);
width = 600;
}
);
unicode = 80;
},
{
glyphname = Q;
layers = (
{
anchors = (
{
name = t._5066;
position = "{379, 700}";
},
{
name = t._5111;
position = "{701, 813}";
},
{
name = m.uni1DF7;
position = "{143, 700}";
},
{
name = m._5077;
position = "{615, 700}";
},
{
name = m._5079;
position = "{239, 0}";
},
{
name = m._5307;
position = "{498, -205}";
},
{
name = m.uni1DFA;
position = "{3, 0}";
},
{
name = m.uni0321;
position = "{475, 0}";
},
{
name = m._5081;
position = "{311, 364}";
},
{
name = m._5093;
position = "{309, 350}";
},
{
name = m._5088;
position = "{309, 350}";
}
);
layerId = "DD7251A6-C35A-4560-A124-DA829078785F";
shapes = (
{
closed = 1;
nodes = (
(85,-8,o),
(14,93,o),
(46,256,cs),
(96,505,ls),
(122,641,o),
(229,708,o),
(362,708,cs),
(533,708,o),
(603,608,o),
(571,444,cs),
(522,195,ls),
(515,162,o),
(503,128,o),
(482,97,c),
(544,0,l),
(406,0,l),
(392,21,l),
(348,-2,o),
(300,-8,o),
(255,-8,cs)
);
},
{
closed = 1;
nodes = (
(278,112,o),
(302,117,o),
(322,129,c),
(220,290,l),
(358,290,l),
(384,248,l),
(384,248,o),
(384,248,o),
(384,248,c),
(428,467,ls),
(439,522,o),
(435,588,o),
(362,588,c),
(294,590,o),
(250,545,o),
(239,481,cs),
(189,233,ls),
(178,178,o),
(183,112,o),
(255,112,cs)
);
}
);
width = 600;
},
{
anchors = (
{
name = t._5066;
position = "{379, 700}";
},
{
name = t._5111;
position = "{701, 813}";
},
{
name = m.uni1DF7;
position = "{161, 700}";
},
{
name = m._5077;
position = "{597, 700}";
},
{
name = m._5079;
position = "{239, 0}";
},
{
name = m._5307;
position = "{498, -205}";
},
{
name = m.uni1DFA;
position = "{21, 0}";
},
{
name = m.uni0321;
position = "{457, 0}";
},
{
name = m._5081;
position = "{311, 364}";
},
{
name = m._5093;
position = "{309, 350}";
},
{
name = m._5088;
position = "{309, 350}";
}
);
layerId = "F450F4C4-4139-41FB-98F6-B6481F1E9B5F";
shapes = (
{
closed = 1;
nodes = (
(92,-8,o),
(30,78,o),
(57,221,cs),
(115,511,l),
(138,644,o),
(248,708,o),
(376,708,cs),
(522,708,o),
(592,622,o),
(560,479,c),
(502,189,l),
(494,143,o),
(473,101,o),
(440,65,c),
(470,0,l),
(444,0,l),
(421,49,l),
(369,5,o),
(302,-8,o),
(241,-8,cs)
);
},
{
closed = 1;
nodes = (
(299,11,o),
(363,24,o),
(413,68,c),
(286,341,l),
(312,341,l),
(430,84,l),
(458,116,o),
(474,155,o),
(482,192,cs),
(540,483,l),
(569,612,o),
(506,689,o),
(375,689,c),
(257,691,o),
(158,629,o),
(135,508,cs),
(77,217,l),
(53,89,o),
(108,11,o),
(242,11,cs)
);
}
);
width = 600;
},
{
anchors = (
{
name = t._5066;
position = "{379, 700}";
},
{
name = t._5111;
position = "{701, 813}";
},
{
name = m.uni1DF7;
position = "{151, 700}";
},
{
name = m._5077;
position = "{607, 700}";
},
{
name = m._5079;
position = "{239, 0}";
},
{
name = m._5307;
position = "{498, -205}";
},
{
name = m.uni1DFA;
position = "{11, 0}";
},
{
name = m.uni0321;
position = "{467, 0}";
},
{
name = m._5081;
position = "{311, 364}";
},
{
name = m._5093;
position = "{309, 350}";
},
{
name = m._5088;
position = "{309, 350}";
}
);
layerId = "39BC9D91-1289-454F-9557-B2BECA116F6B";
shapes = (
{
closed = 1;
nodes = (
(100,-8,o),
(17,76,o),
(49,230,c),
(106,519,l),
(136,650,o),
(237,708,o),
(365,708,c),
(522,710,o),
(597,625,o),
(569,470,c),
(511,181,ls),
(504,148,o),
(492,113,o),
(469,84,c),
(517,0,l),
(417,0,l),
(402,27,l),
(354,0,o),
(301,-8,o),
(252,-8,cs)
);
},
{
closed = 1;
nodes = (
(288,72,o),
(328,80,o),
(360,101,c),
(243,310,l),
(343,310,l),
(417,177,l),
(420,184,o),
(421,189,o),
(422,196,cs),
(480,486,ls),
(498,575,o),
(456,628,o),
(365,628,cs),
(282,628,o),
(214,590,o),
(195,504,c),
(137,214,l),
(123,125,o),
(158,72,o),
(252,72,cs)
);
}
);
width = 600;
}
);
unicode = 81;
},
{
glyphname = R;
layers = (
{
anchors = (
{
name = mark0;
position = "{379, 700}";
},
{
name = mark0.1;
position = "{615, 700}";
},
{
name = mark0.2;
position = "{239, 0}";
},
{
name = mark0.3;
position = "{311, 364}";
},
{
name = mark0.4;
position = "{309, 350}";
}
);
layerId = "DD7251A6-C35A-4560-A124-DA829078785F";
shapes = (
{
closed = 1;
nodes = (
(347,0,l),
(251,255,l),
(202,255,l),
(151,0,l),
(3,0,l),
(143,700,l),
(390,700,ls),
(476,700,o),
(559,666,o),
(576,564,cs),
(580,540,o),
(580,515,o),
(578,489,c),
(570,391,o),
(520,285,o),
(401,261,c),
(499,0,l)
);
},
{
closed = 1;
nodes = (
(337,374,ls),
(407,374,o),
(432,456,o),
(436,507,c),
(436,555,o),
(432,580,o),
(359,580,cs),
(267,580,l),
(225,374,l)
);
}
);
width = 600;
},
{
anchors = (
{
name = mark0;
position = "{379, 700}";
},
{
name = mark0.1;
position = "{615, 700}";
},
{
name = mark0.2;
position = "{239, 0}";
},
{
name = mark0.3;
position = "{311, 364}";
},
{
name = mark0.4;
position = "{309, 350}";
}
);
layerId = "39BC9D91-1289-454F-9557-B2BECA116F6B";
shapes = (
{
closed = 1;
nodes = (
(396,0,l),
(272,284,l),
(159,284,l),
(103,0,l),
(11,0,l),
(151,700,l),
(399,700,ls),
(482,700,o),
(564,666,o),
(573,558,c),
(576,536,o),
(574,515,o),
(572,493,c),
(558,395,o),
(505,301,o),
(366,287,c),
(491,0,l)
);
},
{
closed = 1;
nodes = (
(339,358,ls),
(405,358,o),
(479,412,o),
(486,525,c),
(486,580,o),
(470,625,o),
(381,625,cs),
(227,625,l),
(173,358,l)
);
}
);
width = 600;
},
{
anchors = (
{
name = mark0;
position = "{379, 700}";
},
{
name = mark0.1;
position = "{615, 700}";
},
{
name = mark0.2;
position = "{239, 0}";
},
{
name = mark0.3;
position = "{311, 364}";
},
{
name = mark0.4;
position = "{309, 350}";
}
);
layerId = "F450F4C4-4139-41FB-98F6-B6481F1E9B5F";
shapes = (
{
closed = 1;
nodes = (
(458,0,l),
(299,320,l),
(106,320,l),
(42,0,l),
(21,0,l),
(161,700,l),
(410,700,ls),
(490,700,o),
(570,665,o),
(570,550,cs),
(570,532,o),
(566,514,o),
(564,497,c),
(542,400,o),
(486,320,o),
(322,320,c),
(481,0,l)
);
},
{
closed = 1;
nodes = (
(342,339,ls),
(403,339,o),
(537,357,o),
(549,547,c),
(549,612,o),
(518,681,o),
(409,681,cs),
(178,681,l),
(109,339,l)
);
}
);
width = 600;
}
);
unicode = 82;
},
{
glyphname = S;
layers = (
{
anchors = (
{
name = t._5066;
position = "{379, 700}";
},
{
name = t._5111;
position = "{701, 813}";
},
{
name = m.uni1DF7;
position = "{143, 700}";
},
{
name = m._5077;
position = "{615, 700}";
},
{
name = m._5079;
position = "{239, 0}";
},
{
name = m._5307;
position = "{498, -205}";
},
{
name = m.uni1DFA;
position = "{3, 0}";
},
{
name = m.uni0321;
position = "{475, 0}";
},
{
name = m._5081;
position = "{311, 364}";
},
{
name = m._5093;
position = "{309, 350}";
},
{
name = m._5088;
position = "{309, 350}";
}
);
layerId = "DD7251A6-C35A-4560-A124-DA829078785F";
shapes = (
{
closed = 1;
nodes = (
(131,-8,o),
(1,39,o),
(30,185,cs),
(32,195,l),
(178,195,l),
(177,191,l),
(165,134,o),
(215,112,o),
(262,112,c),
(308,114,o),
(360,128,o),
(371,180,c),
(379,226,o),
(350,261,o),
(314,278,cs),
(278,295,o),
(238,310,o),
(206,333,cs),
(140,378,o),
(94,453,o),
(111,544,c),
(140,666,o),
(253,708,o),
(367,708,c),
(489,710,o),
(604,658,o),
(580,515,c),
(578,505,l),
(432,505,l),
(432,509,l),
(447,565,o),
(403,588,o),
(355,588,c),
(311,590,o),
(264,568,o),
(255,521,cs),
(245,476,o),
(276,440,o),
(311,423,cs),
(348,406,o),
(386,391,o),
(419,368,cs),
(486,322,o),
(530,247,o),
(514,157,cs),
(492,34,o),
(359,-8,o),
(250,-8,cs)
);
}
);
width = 600;
},
{
anchors = (
{
name = t._5066;
position = "{379, 700}";
},
{
name = t._5111;
position = "{701, 813}";
},
{
name = m.uni1DF7;
position = "{161, 700}";
},
{
name = m._5077;
position = "{597, 700}";
},
{
name = m._5079;
position = "{239, 0}";
},
{
name = m._5307;
position = "{498, -205}";
},
{
name = m.uni1DFA;
position = "{21, 0}";
},
{
name = m.uni0321;
position = "{457, 0}";
},
{
name = m._5081;
position = "{311, 364}";
},
{
name = m._5093;
position = "{309, 350}";
},
{
name = m._5088;
position = "{309, 350}";
}
);
layerId = "F450F4C4-4139-41FB-98F6-B6481F1E9B5F";
shapes = (
{
closed = 1;
nodes = (
(138,-8,o),
(19,30,o),
(42,157,c),
(44,165,l),
(65,165,l),
(63,158,l),
(40,44,o),
(153,11,o),
(241,11,cs),
(339,11,o),
(453,48,o),
(475,157,cs),
(484,199,o),
(470,238,o),
(445,265,cs),
(387,328,o),
(271,343,o),
(194,397,cs),
(147,429,o),
(118,483,o),
(130,547,cs),
(153,664,o),
(272,708,o),
(378,708,c),
(481,710,o),
(591,668,o),
(567,543,c),
(566,535,l),
(545,535,l),
(546,542,l),
(570,654,o),
(466,689,o),
(376,689,cs),
(279,689,o),
(173,649,o),
(150,544,cs),
(142,503,o),
(156,463,o),
(181,436,cs),
(241,371,o),
(354,359,o),
(431,304,cs),
(475,272,o),
(509,217,o),
(495,154,c),
(472,35,o),
(345,-8,o),
(239,-8,cs)
);
}
);
width = 600;
},
{
anchors = (
{
name = t._5066;
position = "{379, 700}";
},
{
name = t._5111;
position = "{701, 813}";
},
{
name = m.uni1DF7;
position = "{151, 700}";
},
{
name = m._5077;
position = "{607, 700}";
},
{
name = m._5079;
position = "{239, 0}";
},
{
name = m._5307;
position = "{498, -205}";
},
{
name = m.uni1DFA;
position = "{11, 0}";
},
{
name = m.uni0321;
position = "{467, 0}";
},
{
name = m._5081;
position = "{311, 364}";
},
{
name = m._5093;
position = "{309, 350}";
},
{
name = m._5088;
position = "{309, 350}";
}
);
layerId = "39BC9D91-1289-454F-9557-B2BECA116F6B";
shapes = (
{
closed = 1;
nodes = (
(138,-8,o),
(7,36,o),
(35,173,cs),
(37,182,l),
(128,182,l),
(127,177,ls),
(113,96,o),
(191,72,o),
(255,72,cs),
(321,72,o),
(401,96,o),
(417,170,c),
(425,219,o),
(397,258,o),
(359,279,cs),
(321,299,o),
(278,313,o),
(240,333,cs),
(164,373,o),
(99,446,o),
(120,545,c),
(143,664,o),
(263,708,o),
(370,708,c),
(480,710,o),
(602,661,o),
(574,527,cs),
(572,518,l),
(481,518,l),
(482,523,ls),
(499,604,o),
(427,628,o),
(362,628,cs),
(301,628,o),
(220,600,o),
(209,530,c),
(199,483,o),
(228,443,o),
(266,422,cs),
(303,401,o),
(346,388,o),
(385,367,cs),
(462,327,o),
(523,256,o),
(506,155,c),
(479,36,o),
(357,-8,o),
(247,-8,cs)
);
}
);
width = 600;
}
);
unicode = 83;
},
{
glyphname = T;
layers = (
{
anchors = (
{
name = mark0;
position = "{379, 700}";
},
{
name = mark0.1;
position = "{615, 700}";
},
{
name = mark0.2;
position = "{239, 0}";
},
{
name = mark0.3;
position = "{311, 364}";
},
{
name = mark0.4;
position = "{309, 350}";
}
);
layerId = "DD7251A6-C35A-4560-A124-DA829078785F";
shapes = (
{
closed = 1;
nodes = (
(165,0,l),
(281,580,l),
(113,580,l),
(137,700,l),
(621,700,l),
(597,580,l),
(429,580,l),
(313,0,l)
);
}
);
width = 600;
},
{
anchors = (
{
name = mark0;
position = "{379, 700}";
},
{
name = mark0.1;
position = "{615, 700}";
},
{
name = mark0.2;
position = "{239, 0}";
},
{
name = mark0.3;
position = "{311, 364}";
},
{
name = mark0.4;
position = "{309, 350}";
}
);
layerId = "39BC9D91-1289-454F-9557-B2BECA116F6B";
shapes = (
{
closed = 1;
nodes = (
(193,0,l),
(318,625,l),
(130,625,l),
(145,700,l),
(613,700,l),
(598,625,l),
(410,625,l),
(285,0,l)
);
}
);
width = 600;
},
{
anchors = (
{
name = mark0;
position = "{379, 700}";
},
{
name = mark0.1;
position = "{615, 700}";
},
{
name = mark0.2;
position = "{239, 0}";
},
{
name = mark0.3;
position = "{311, 364}";
},
{
name = mark0.4;
position = "{309, 350}";
}
);
layerId = "F450F4C4-4139-41FB-98F6-B6481F1E9B5F";
shapes = (
{
closed = 1;
nodes = (
(228,0,l),
(364,681,l),
(151,681,l),
(155,700,l),
(603,700,l),
(599,681,l),
(386,681,l),
(250,0,l)
);
}
);
width = 600;
}
);
unicode = 84;
},
{
glyphname = U;
layers = (
{
anchors = (
{
name = mark0;
position = "{379, 700}";
},
{
name = mark0.1;
position = "{615, 700}";
},
{
name = mark0.2;
position = "{239, 0}";
},
{
name = mark0.3;
position = "{311, 364}";
},
{
name = mark0.4;
position = "{309, 350}";
}
);
layerId = "1E38D5C8-DDA7-42A1-B23F-E39BC202FF5B";
associatedMasterId = "F450F4C4-4139-41FB-98F6-B6481F1E9B5F";
name = 1;
shapes = (
{
closed = 1;
nodes = (
(48,-8,o),
(44,121,o),
(74,265,cs),
(161,700,l),
(182,700,l),
(85,217,ls),
(57,94,o),
(112,11,o),
(242,11,cs),
(320,11,o),
(437,36,o),
(474,192,c),
(576,700,l),
(597,700,l),
(494,189,l),
(472,88,o),
(402,-8,o),
(242,-8,cs)
);
}
);
width = 600;
},
{
anchors = (
{
name = t._5066;
position = "{379, 700}";
},
{
name = t._5111;
position = "{701, 813}";
},
{
name = m.uni1DF7;
position = "{161, 700}";
},
{
name = m._5077;
position = "{597, 700}";
},
{
name = m._5079;
position = "{239, 0}";
},
{
name = m._5307;
position = "{498, -205}";
},
{
name = m.uni1DFA;
position = "{21, 0}";
},
{
name = m.uni0321;
position = "{457, 0}";
},
{
name = m._5081;
position = "{311, 364}";
},
{
name = m._5093;
position = "{309, 350}";
},
{
name = m._5088;
position = "{309, 350}";
}
);
layerId = "F450F4C4-4139-41FB-98F6-B6481F1E9B5F";
shapes = (
{
closed = 1;
nodes = (
(95,-8,o),
(38,83,o),
(65,221,cs),
(161,700,l),
(182,700,l),
(85,217,l),
(63,94,o),
(109,11,o),
(242,11,cs),
(360,11,o),
(451,73,o),
(474,192,cs),
(576,700,l),
(597,700,l),
(494,189,l),
(471,60,o),
(368,-8,o),
(242,-8,cs)
);
}
);
width = 600;
},
{
anchors = (
{
name = mark0;
position = "{379, 700}";
},
{
name = mark0.1;
position = "{615, 700}";
},
{
name = mark0.2;
position = "{239, 0}";
},
{
name = mark0.3;
position = "{311, 364}";
},
{
name = mark0.4;
position = "{309, 350}";
}
);
layerId = "5492004A-5510-487E-A1D7-3F1B09D93BD0";
associatedMasterId = "39BC9D91-1289-454F-9557-B2BECA116F6B";
name = 1;
shapes = (
{
closed = 1;
nodes = (
(150,-8,o),
(53,35,o),
(51,164,c),
(50,196,o),
(56,229,o),
(63,260,cs),
(151,700,l),
(243,700,l),
(154,260,ls),
(150,241,o),
(147,222,o),
(145,202,cs),
(141,173,o),
(143,146,o),
(154,123,cs),
(172,87,o),
(203,67,o),
(250,67,c),
(352,64,o),
(408,178,o),
(430,274,c),
(515,700,l),
(607,700,l),
(505,192,ls),
(484,87,o),
(406,-8,o),
(250,-8,cs)
);
}
);
width = 600;
},
{
anchors = (
{
name = t._5066;
position = "{379, 700}";
},
{
name = t._5111;
position = "{701, 813}";
},
{
name = m.uni1DF7;
position = "{151, 700}";
},
{
name = m._5077;
position = "{607, 700}";
},
{
name = m._5079;
position = "{239, 0}";
},
{
name = m._5307;
position = "{498, -205}";
},
{
name = m.uni1DFA;
position = "{11, 0}";
},
{
name = m.uni0321;
position = "{467, 0}";
},
{
name = m._5081;
position = "{311, 364}";
},
{
name = m._5093;
position = "{309, 350}";
},
{
name = m._5088;
position = "{309, 350}";
}
);
layerId = "39BC9D91-1289-454F-9557-B2BECA116F6B";
shapes = (
{
closed = 1;
nodes = (
(102,-8,o),
(24,81,o),
(57,230,c),
(151,700,l),
(243,700,l),
(145,214,l),
(132,131,o),
(160,72,o),
(252,72,c),
(336,74,o),
(395,111,o),
(414,196,c),
(515,700,l),
(607,700,l),
(503,181,l),
(475,53,o),
(379,-8,o),
(252,-8,cs)
);
}
);
width = 600;
},
{
anchors = (
{
name = mark0;
position = "{379, 700}";
},
{
name = mark0.1;
position = "{615, 700}";
},
{
name = mark0.2;
position = "{239, 0}";
},
{
name = mark0.3;
position = "{311, 364}";
},
{
name = mark0.4;
position = "{309, 350}";
}
);
layerId = "40237F9C-3A98-4E78-9734-D392DF481117";
associatedMasterId = "DD7251A6-C35A-4560-A124-DA829078785F";
name = 1;
shapes = (
{
closed = 1;
nodes = (
(151,-8,o),
(53,37,o),
(46,167,c),
(44,196,o),
(48,227,o),
(54,256,cs),
(143,700,l),
(291,700,l),
(209,295,ls),
(205,274,o),
(201,254,o),
(197,233,cs),
(192,211,o),
(190,188,o),
(194,167,cs),
(200,137,o),
(219,112,o),
(256,112,c),
(377,106,o),
(385,292,o),
(394,339,c),
(467,700,l),
(615,700,l),
(514,195,l),
(493,87,o),
(410,-8,o),
(256,-8,cs)
);
}
);
width = 600;
},
{
anchors = (
{
name = t._5066;
position = "{379, 700}";
},
{
name = t._5111;
position = "{701, 813}";
},
{
name = m.uni1DF7;
position = "{143, 700}";
},
{
name = m._5077;
position = "{615, 700}";
},
{
name = m._5079;
position = "{239, 0}";
},
{
name = m._5307;
position = "{498, -205}";
},
{
name = m.uni1DFA;
position = "{3, 0}";
},
{
name = m.uni0321;
position = "{475, 0}";
},
{
name = m._5081;
position = "{311, 364}";
},
{
name = m._5093;
position = "{309, 350}";
},
{
name = m._5088;
position = "{309, 350}";
}
);
layerId = "DD7251A6-C35A-4560-A124-DA829078785F";
shapes = (
{
closed = 1;
nodes = (
(87,-8,o),
(23,98,o),
(54,256,cs),
(143,700,l),
(291,700,l),
(197,233,ls),
(187,184,o),
(189,112,o),
(256,112,cs),
(322,112,o),
(359,159,o),
(370,219,cs),
(467,700,l),
(615,700,l),
(514,195,ls),
(486,62,o),
(390,-8,o),
(256,-8,cs)
);
}
);
width = 600;
}
);
unicode = 85;
},
{
glyphname = V;
layers = (
{
anchors = (
{
name = mark0;
position = "{379, 700}";
},
{
name = mark0.1;
position = "{615, 700}";
},
{
name = mark0.2;
position = "{239, 0}";
},
{
name = mark0.3;
position = "{311, 364}";
},
{
name = mark0.4;
position = "{309, 350}";
}
);
layerId = "DD7251A6-C35A-4560-A124-DA829078785F";
shapes = (
{
closed = 1;
nodes = (
(154,0,l),
(116,700,l),
(268,700,l),
(271,233,ls),
(271,210,o),
(271,189,o),
(272,166,c),
(290,211,o),
(308,255,o),
(326,300,cs),
(490,700,l),
(642,700,l),
(324,0,l)
);
}
);
width = 600;
},
{
anchors = (
{
name = mark0;
position = "{379, 700}";
},
{
name = mark0.1;
position = "{615, 700}";
},
{
name = mark0.2;
position = "{239, 0}";
},
{
name = mark0.3;
position = "{311, 364}";
},
{
name = mark0.4;
position = "{309, 350}";
}
);
layerId = "39BC9D91-1289-454F-9557-B2BECA116F6B";
shapes = (
{
closed = 1;
nodes = (
(186,0,l),
(128,700,l),
(223,700,l),
(249,233,l),
(252,190,o),
(255,148,o),
(260,105,c),
(285,160,o),
(310,215,o),
(336,270,cs),
(535,700,l),
(630,700,l),
(292,0,l)
);
}
);
width = 600;
},
{
anchors = (
{
name = mark0;
position = "{379, 700}";
},
{
name = mark0.1;
position = "{615, 700}";
},
{
name = mark0.2;
position = "{239, 0}";
},
{
name = mark0.3;
position = "{311, 364}";
},
{
name = mark0.4;
position = "{309, 350}";
}
);
layerId = "F450F4C4-4139-41FB-98F6-B6481F1E9B5F";
shapes = (
{
closed = 1;
nodes = (
(227,0,l),
(144,700,l),
(167,700,l),
(221,233,ls),
(229,165,o),
(236,97,o),
(244,29,c),
(279,97,o),
(313,165,o),
(349,233,cs),
(591,700,l),
(614,700,l),
(251,0,l)
);
}
);
width = 600;
}
);
unicode = 86;
},
{
glyphname = W;
layers = (
{
anchors = (
{
name = mark0;
position = "{529, 700}";
},
{
name = mark0.1;
position = "{915, 700}";
},
{
name = mark0.2;
position = "{389, 0}";
},
{
name = mark0.3;
position = "{461, 364}";
},
{
name = mark0.4;
position = "{459, 350}";
}
);
layerId = "DD7251A6-C35A-4560-A124-DA829078785F";
shapes = (
{
closed = 1;
nodes = (
(142,0,l),
(127,700,l),
(280,700,l),
(259,139,l),
(239,140,l),
(427,580,l),
(583,580,l),
(593,139,l),
(573,140,l),
(778,700,l),
(931,700,l),
(636,0,l),
(486,0,l),
(468,443,l),
(485,442,l),
(292,0,l)
);
}
);
width = 900;
},
{
anchors = (
{
name = mark0;
position = "{529, 700}";
},
{
name = mark0.1;
position = "{915, 700}";
},
{
name = mark0.2;
position = "{389, 0}";
},
{
name = mark0.3;
position = "{461, 364}";
},
{
name = mark0.4;
position = "{459, 350}";
}
);
layerId = "39BC9D91-1289-454F-9557-B2BECA116F6B";
shapes = (
{
closed = 1;
nodes = (
(159,0,l),
(135,700,l),
(230,700,l),
(232,85,l),
(218,87,l),
(466,625,l),
(562,625,l),
(593,85,l),
(579,86,l),
(828,700,l),
(923,700,l),
(619,0,l),
(526,0,l),
(490,542,l),
(503,541,l),
(252,0,l)
);
}
);
width = 900;
},
{
anchors = (
{
name = mark0;
position = "{529, 700}";
},
{
name = mark0.1;
position = "{915, 700}";
},
{
name = mark0.2;
position = "{389, 0}";
},
{
name = mark0.3;
position = "{461, 364}";
},
{
name = mark0.4;
position = "{459, 350}";
}
);
layerId = "F450F4C4-4139-41FB-98F6-B6481F1E9B5F";
shapes = (
{
closed = 1;
nodes = (
(181,0,l),
(145,700,l),
(167,700,l),
(199,18,l),
(191,20,l),
(514,681,l),
(536,681,l),
(593,18,l),
(586,19,l),
(891,700,l),
(913,700,l),
(597,0,l),
(576,0,l),
(518,666,l),
(526,664,l),
(202,0,l)
);
}
);
width = 900;
}
);
unicode = 87;
},
{
glyphname = X;
layers = (
{
anchors = (
{
name = mark0;
position = "{379, 700}";
},
{
name = mark0.1;
position = "{615, 700}";
},
{
name = mark0.2;
position = "{239, 0}";
},
{
name = mark0.3;
position = "{311, 364}";
},
{
name = mark0.4;
position = "{309, 350}";
}
);
layerId = "DD7251A6-C35A-4560-A124-DA829078785F";
shapes = (
{
closed = 1;
nodes = (
(-24,0,l),
(241,357,l),
(116,700,l),
(284,700,l),
(336,495,l),
(474,700,l),
(642,700,l),
(376,343,l),
(502,0,l),
(334,0,l),
(282,205,l),
(144,0,l)
);
}
);
width = 600;
},
{
anchors = (
{
name = mark0;
position = "{379, 700}";
},
{
name = mark0.1;
position = "{615, 700}";
},
{
name = mark0.2;
position = "{239, 0}";
},
{
name = mark0.3;
position = "{311, 364}";
},
{
name = mark0.4;
position = "{309, 350}";
}
);
layerId = "39BC9D91-1289-454F-9557-B2BECA116F6B";
shapes = (
{
closed = 1;
nodes = (
(-6,0,l),
(266,354,l),
(134,700,l),
(238,700,l),
(325,439,l),
(520,700,l),
(624,700,l),
(351,346,l),
(484,0,l),
(380,0,l),
(293,261,l),
(98,0,l)
);
}
);
width = 600;
},
{
anchors = (
{
name = mark0;
position = "{379, 700}";
},
{
name = mark0.1;
position = "{615, 700}";
},
{
name = mark0.2;
position = "{239, 0}";
},
{
name = mark0.3;
position = "{311, 364}";
},
{
name = mark0.4;
position = "{309, 350}";
}
);
layerId = "F450F4C4-4139-41FB-98F6-B6481F1E9B5F";
shapes = (
{
closed = 1;
nodes = (
(17,0,l),
(297,351,l),
(157,700,l),
(181,700,l),
(311,369,l),
(577,700,l),
(601,700,l),
(320,349,l),
(461,0,l),
(437,0,l),
(306,331,l),
(41,0,l)
);
}
);
width = 600;
}
);
unicode = 88;
},
{
glyphname = Y;
layers = (
{
anchors = (
{
name = mark0;
position = "{379, 700}";
},
{
name = mark0.1;
position = "{615, 700}";
},
{
name = mark0.2;
position = "{239, 0}";
},
{
name = mark0.3;
position = "{295, 280}";
},
{
name = mark0.4;
position = "{309, 350}";
}
);
layerId = "DD7251A6-C35A-4560-A124-DA829078785F";
shapes = (
{
closed = 1;
nodes = (
(165,0,l),
(225,300,l),
(111,700,l),
(274,700,l),
(325,442,l),
(484,700,l),
(647,700,l),
(370,286,l),
(313,0,l)
);
}
);
width = 600;
},
{
anchors = (
{
name = mark0;
position = "{379, 700}";
},
{
name = mark0.1;
position = "{615, 700}";
},
{
name = mark0.2;
position = "{239, 0}";
},
{
name = mark0.3;
position = "{295, 280}";
},
{
name = mark0.4;
position = "{309, 350}";
}
);
layerId = "39BC9D91-1289-454F-9557-B2BECA116F6B";
shapes = (
{
closed = 1;
nodes = (
(193,0,l),
(251,291,l),
(131,700,l),
(232,700,l),
(313,380,l),
(526,700,l),
(627,700,l),
(341,282,l),
(285,0,l)
);
}
);
width = 600;
},
{
anchors = (
{
name = mark0;
position = "{379, 700}";
},
{
name = mark0.1;
position = "{615, 700}";
},
{
name = mark0.2;
position = "{239, 0}";
},
{
name = mark0.3;
position = "{295, 280}";
},
{
name = mark0.4;
position = "{309, 350}";
}
);
layerId = "F450F4C4-4139-41FB-98F6-B6481F1E9B5F";
shapes = (
{
closed = 1;
nodes = (
(228,0,l),
(284,280,l),
(156,700,l),
(180,700,l),
(298,302,l),
(578,700,l),
(602,700,l),
(305,277,l),
(250,0,l)
);
}
);
width = 600;
}
);
unicode = 89;
},
{
glyphname = Z;
layers = (
{
anchors = (
{
name = mark0;
position = "{379, 700}";
},
{
name = mark0.1;
position = "{615, 700}";
},
{
name = mark0.2;
position = "{239, 0}";
},
{
name = mark0.3;
position = "{311, 364}";
},
{
name = mark0.4;
position = "{309, 350}";
}
);
layerId = "DD7251A6-C35A-4560-A124-DA829078785F";
shapes = (
{
closed = 1;
nodes = (
(3,0,l),
(27,120,l),
(421,580,l),
(119,580,l),
(143,700,l),
(615,700,l),
(591,580,l),
(197,120,l),
(499,120,l),
(475,0,l)
);
}
);
width = 600;
},
{
anchors = (
{
name = mark0;
position = "{379, 700}";
},
{
name = mark0.1;
position = "{615, 700}";
},
{
name = mark0.2;
position = "{239, 0}";
},
{
name = mark0.3;
position = "{311, 364}";
},
{
name = mark0.4;
position = "{309, 350}";
}
);
layerId = "39BC9D91-1289-454F-9557-B2BECA116F6B";
shapes = (
{
closed = 1;
nodes = (
(11,0,l),
(26,75,l),
(487,625,l),
(136,625,l),
(151,700,l),
(607,700,l),
(592,625,l),
(131,75,l),
(482,75,l),
(467,0,l)
);
}
);
width = 600;
},
{
anchors = (
{
name = mark0;
position = "{379, 700}";
},
{
name = mark0.1;
position = "{615, 700}";
},
{
name = mark0.2;
position = "{239, 0}";
},
{
name = mark0.3;
position = "{311, 364}";
},
{
name = mark0.4;
position = "{309, 350}";
}
);
layerId = "F450F4C4-4139-41FB-98F6-B6481F1E9B5F";
shapes = (
{
closed = 1;
nodes = (
(21,0,l),
(24,19,l),
(569,681,l),
(157,681,l),
(161,700,l),
(597,700,l),
(593,681,l),
(48,19,l),
(460,19,l),
(457,0,l)
);
}
);
width = 600;
}
);
unicode = 90;
},
{
glyphname = bracketleft;
layers = (
{
layerId = "DD7251A6-C35A-4560-A124-DA829078785F";
shapes = (
{
closed = 1;
nodes = (
(32,-176,l),
(226,790,l),
(586,790,l),
(562,670,l),
(349,670,l),
(203,-56,l),
(416,-56,l),
(392,-176,l)
);
}
);
width = 600;
},
{
layerId = "39BC9D91-1289-454F-9557-B2BECA116F6B";
shapes = (
{
closed = 1;
nodes = (
(48,-176,l),
(242,790,l),
(579,790,l),
(564,715,l),
(318,715,l),
(154,-101,l),
(400,-101,l),
(385,-176,l)
);
}
);
width = 600;
},
{
layerId = "F450F4C4-4139-41FB-98F6-B6481F1E9B5F";
shapes = (
{
closed = 1;
nodes = (
(68,-176,l),
(262,790,l),
(571,790,l),
(567,771,l),
(279,771,l),
(93,-157,l),
(381,-157,l),
(377,-176,l)
);
}
);
width = 600;
}
);
unicode = 91;
},
{
glyphname = backslash;
layers = (
{
layerId = "DD7251A6-C35A-4560-A124-DA829078785F";
shapes = (
{
closed = 1;
nodes = (
(303,-176,l),
(145,790,l),
(297,790,l),
(455,-176,l)
);
}
);
width = 600;
},
{
layerId = "39BC9D91-1289-454F-9557-B2BECA116F6B";
shapes = (
{
closed = 1;
nodes = (
(346,-176,l),
(159,790,l),
(254,790,l),
(441,-176,l)
);
}
);
width = 600;
},
{
layerId = "F450F4C4-4139-41FB-98F6-B6481F1E9B5F";
shapes = (
{
closed = 1;
nodes = (
(400,-176,l),
(177,790,l),
(200,790,l),
(423,-176,l)
);
}
);
width = 600;
}
);
unicode = 92;
},
{
glyphname = bracketright;
layers = (
{
layerId = "DD7251A6-C35A-4560-A124-DA829078785F";
shapes = (
{
closed = 1;
nodes = (
(14,-176,l),
(38,-56,l),
(251,-56,l),
(397,670,l),
(184,670,l),
(208,790,l),
(568,790,l),
(374,-176,l)
);
}
);
width = 600;
},
{
layerId = "39BC9D91-1289-454F-9557-B2BECA116F6B";
shapes = (
{
closed = 1;
nodes = (
(21,-176,l),
(36,-101,l),
(282,-101,l),
(446,715,l),
(200,715,l),
(215,790,l),
(552,790,l),
(358,-176,l)
);
}
);
width = 600;
},
{
layerId = "F450F4C4-4139-41FB-98F6-B6481F1E9B5F";
shapes = (
{
closed = 1;
nodes = (
(29,-176,l),
(33,-157,l),
(321,-157,l),
(507,771,l),
(219,771,l),
(223,790,l),
(532,790,l),
(338,-176,l)
);
}
);
width = 600;
}
);
unicode = 93;
},
{
glyphname = asciicircum;
layers = (
{
anchors = (
{
name = mark0;
position = "{349, 552}";
},
{
name = mark0.1;
position = "{585, 552}";
},
{
name = mark0.2;
position = "{251, 62}";
},
{
name = mark0.3;
position = "{302, 317}";
},
{
name = mark0.4;
position = "{300, 307}";
}
);
layerId = "DD7251A6-C35A-4560-A124-DA829078785F";
shapes = (
{
closed = 1;
nodes = (
(163,406,l),
(52,492,l),
(317,748,l),
(459,748,l),
(616,479,l),
(482,419,l),
(369,644,l)
);
}
);
width = 600;
},
{
anchors = (
{
name = mark0;
position = "{349, 552}";
},
{
name = mark0.1;
position = "{585, 552}";
},
{
name = mark0.2;
position = "{251, 62}";
},
{
name = mark0.3;
position = "{302, 317}";
},
{
name = mark0.4;
position = "{300, 307}";
}
);
layerId = "39BC9D91-1289-454F-9557-B2BECA116F6B";
shapes = (
{
closed = 1;
nodes = (
(145,426,l),
(77,480,l),
(337,722,l),
(428,722,l),
(588,472,l),
(506,434,l),
(371,657,l)
);
}
);
width = 600;
},
{
anchors = (
{
name = mark0;
position = "{349, 552}";
},
{
name = mark0.1;
position = "{585, 552}";
},
{
name = mark0.2;
position = "{251, 62}";
},
{
name = mark0.3;
position = "{302, 317}";
},
{
name = mark0.4;
position = "{300, 307}";
}
);
layerId = "F450F4C4-4139-41FB-98F6-B6481F1E9B5F";
shapes = (
{
closed = 1;
nodes = (
(122,450,l),
(108,465,l),
(363,689,l),
(389,689,l),
(554,464,l),
(537,452,l),
(373,674,l)
);
}
);
width = 600;
}
);
unicode = 94;
},
{
glyphname = underscore;
layers = (
{
layerId = "DD7251A6-C35A-4560-A124-DA829078785F";
shapes = (
{
closed = 1;
nodes = (
(451,-120,l),
(-21,-120,l),
(3,0,l),
(475,0,l)
);
}
);
width = 600;
},
{
layerId = "39BC9D91-1289-454F-9557-B2BECA116F6B";
shapes = (
{
closed = 1;
nodes = (
(452,-75,l),
(-4,-75,l),
(11,0,l),
(467,0,l)
);
}
);
width = 600;
},
{
layerId = "F450F4C4-4139-41FB-98F6-B6481F1E9B5F";
shapes = (
{
closed = 1;
nodes = (
(453,-19,l),
(17,-19,l),
(21,0,l),
(457,0,l)
);
}
);
width = 600;
}
);
unicode = 95;
},
{
glyphname = grave;
layers = (
{
layerId = "DD7251A6-C35A-4560-A124-DA829078785F";
shapes = (
{
closed = 1;
nodes = (
(238,533,l),
(84,766,l),
(222,833,l),
(351,588,l)
);
}
);
width = 350;
},
{
layerId = "39BC9D91-1289-454F-9557-B2BECA116F6B";
shapes = (
{
closed = 1;
nodes = (
(234,548,l),
(113,775,l),
(199,816,l),
(304,581,l)
);
}
);
width = 350;
},
{
layerId = "F450F4C4-4139-41FB-98F6-B6481F1E9B5F";
shapes = (
{
closed = 1;
nodes = (
(229,567,l),
(150,787,l),
(171,794,l),
(246,572,l)
);
}
);
width = 350;
}
);
unicode = 96;
},
{
glyphname = a;
layers = (
{
anchors = (
{
name = mark0;
position = "{345, 530}";
},
{
name = mark0.1;
position = "{581, 530}";
},
{
name = mark0.2;
position = "{239, 0}";
},
{
name = mark0.3;
position = "{475, 0}";
},
{
name = mark0.4;
position = "{294, 276}";
},
{
name = mark0.5;
position = "{292, 265}";
}
);
layerId = "DD7251A6-C35A-4560-A124-DA829078785F";
shapes = (
{
closed = 1;
nodes = (
(99,-8,o),
(28,45,o),
(34,173,cs),
(35,195,o),
(37,218,o),
(43,240,c),
(61,328,l),
(75,422,o),
(127,538,o),
(259,538,c),
(285,540,o),
(310,535,o),
(331,525,cs),
(374,503,o),
(404,466,o),
(410,416,c),
(433,530,l),
(581,530,l),
(475,0,l),
(327,0,l),
(342,75,l),
(308,24,o),
(254,-8,o),
(188,-8,cs)
);
},
{
closed = 1;
nodes = (
(252,112,l),
(340,102,o),
(359,170,o),
(371,225,c),
(383,284,l),
(387,295,o),
(390,309,o),
(391,320,cs),
(397,371,o),
(379,418,o),
(314,418,cs),
(249,418,o),
(215,368,o),
(205,310,cs),
(200,279,o),
(193,248,o),
(186,217,c),
(182,205,o),
(180,192,o),
(181,180,cs),
(184,147,o),
(205,112,o),
(242,112,cs)
);
}
);
width = 600;
},
{
anchors = (
{
name = mark0;
position = "{345, 530}";
},
{
name = mark0.1;
position = "{581, 530}";
},
{
name = mark0.2;
position = "{239, 0}";
},
{
name = mark0.3;
position = "{475, 0}";
},
{
name = mark0.4;
position = "{294, 276}";
},
{
name = mark0.5;
position = "{292, 265}";
}
);
layerId = "39BC9D91-1289-454F-9557-B2BECA116F6B";
shapes = (
{
closed = 1;
nodes = (
(118,-8,o),
(35,40,o),
(41,169,cs),
(42,190,o),
(45,212,o),
(50,234,c),
(69,332,l),
(83,422,o),
(141,527,o),
(267,536,c),
(290,538,o),
(312,536,o),
(332,531,c),
(393,519,o),
(447,483,o),
(457,411,c),
(481,530,l),
(573,530,l),
(467,0,l),
(375,0,l),
(393,89,l),
(352,25,o),
(286,-8,o),
(209,-8,cs)
);
},
{
closed = 1;
nodes = (
(246,67,l),
(332,62,o),
(395,113,o),
(417,213,c),
(434,294,l),
(437,308,o),
(440,324,o),
(441,339,cs),
(446,402,o),
(416,463,o),
(324,463,cs),
(245,463,o),
(175,415,o),
(158,320,cs),
(151,278,o),
(139,236,o),
(135,195,c),
(133,180,o),
(132,165,o),
(135,151,cs),
(144,101,o),
(183,67,o),
(240,67,cs)
);
}
);
width = 600;
},
{
anchors = (
{
name = mark0;
position = "{345, 530}";
},
{
name = mark0.1;
position = "{581, 530}";
},
{
name = mark0.2;
position = "{239, 0}";
},
{
name = mark0.3;
position = "{475, 0}";
},
{
name = mark0.4;
position = "{294, 276}";
},
{
name = mark0.5;
position = "{292, 265}";
}
);
layerId = "F450F4C4-4139-41FB-98F6-B6481F1E9B5F";
shapes = (
{
closed = 1;
nodes = (
(141,-8,o),
(43,33,o),
(50,164,cs),
(51,184,o),
(54,205,o),
(58,226,cs),
(80,336,l),
(94,421,o),
(158,514,o),
(277,533,cs),
(296,536,o),
(315,538,o),
(334,538,cs),
(417,538,o),
(501,505,o),
(516,404,c),
(542,530,l),
(563,530,l),
(457,0,l),
(436,0,l),
(457,106,l),
(407,27,o),
(325,-8,o),
(235,-8,cs)
);
},
{
closed = 1;
nodes = (
(322,11,o),
(440,42,o),
(475,197,c),
(497,307,l),
(500,325,o),
(502,343,o),
(503,362,cs),
(508,440,o),
(463,519,o),
(337,519,cs),
(240,519,o),
(125,473,o),
(100,332,cs),
(90,277,o),
(72,220,o),
(72,167,cs),
(72,149,o),
(73,131,o),
(77,114,cs),
(94,43,o),
(155,11,o),
(238,11,c)
);
}
);
width = 600;
}
);
unicode = 97;
},
{
glyphname = b;
layers = (
{
anchors = (
{
name = mark0;
position = "{386, 735}";
},
{
name = mark0.1;
position = "{223, 735}";
},
{
name = mark0.2;
position = "{622, 735}";
},
{
name = mark0.3;
position = "{239, 0}";
},
{
name = mark0.4;
position = "{292, 265}";
},
{
name = mark0.5;
position = "{312, 368}";
}
);
layerId = "DD7251A6-C35A-4560-A124-DA829078785F";
shapes = (
{
closed = 1;
nodes = (
(245,-15,o),
(181,40,o),
(173,114,c),
(151,0,l),
(3,0,l),
(150,735,l),
(298,735,l),
(242,455,l),
(268,496,o),
(303,518,o),
(345,531,cs),
(361,536,o),
(378,538,o),
(395,538,cs),
(477,538,o),
(549,491,o),
(549,378,c),
(549,312,o),
(533,242,o),
(519,180,c),
(502,88,o),
(443,-8,o),
(324,-8,c)
);
},
{
closed = 1;
nodes = (
(260,112,l),
(323,106,o),
(367,153,o),
(378,220,c),
(383,251,o),
(390,282,o),
(397,313,c),
(401,325,o),
(403,338,o),
(402,350,cs),
(398,389,o),
(376,418,o),
(331,418,c),
(234,427,o),
(222,350,o),
(212,305,c),
(200,246,l),
(196,235,o),
(193,221,o),
(192,210,cs),
(188,173,o),
(200,112,o),
(250,112,cs)
);
}
);
width = 600;
},
{
anchors = (
{
name = mark0;
position = "{386, 735}";
},
{
name = mark0.1;
position = "{223, 735}";
},
{
name = mark0.2;
position = "{622, 735}";
},
{
name = mark0.3;
position = "{239, 0}";
},
{
name = mark0.4;
position = "{292, 265}";
},
{
name = mark0.5;
position = "{312, 368}";
}
);
layerId = "39BC9D91-1289-454F-9557-B2BECA116F6B";
shapes = (
{
closed = 1;
nodes = (
(205,-12,o),
(136,36,o),
(126,119,c),
(103,0,l),
(11,0,l),
(158,735,l),
(250,735,l),
(190,441,l),
(226,496,o),
(279,527,o),
(346,534,c),
(364,537,o),
(382,537,o),
(401,535,cs),
(479,529,o),
(542,477,o),
(542,372,c),
(541,311,o),
(525,246,o),
(512,186,c),
(494,94,o),
(433,-8,o),
(291,-8,c)
);
},
{
closed = 1;
nodes = (
(254,67,l),
(326,64,o),
(403,102,o),
(425,210,c),
(432,251,o),
(443,294,o),
(448,335,cs),
(450,349,o),
(451,365,o),
(448,379,cs),
(439,431,o),
(398,463,o),
(337,463,c),
(238,468,o),
(182,402,o),
(166,317,cs),
(149,236,l),
(145,222,o),
(143,205,o),
(142,191,cs),
(138,127,o),
(172,67,o),
(248,67,cs)
);
}
);
width = 600;
},
{
anchors = (
{
name = mark0;
position = "{386, 735}";
},
{
name = mark0.1;
position = "{223, 735}";
},
{
name = mark0.2;
position = "{622, 735}";
},
{
name = mark0.3;
position = "{239, 0}";
},
{
name = mark0.4;
position = "{292, 265}";
},
{
name = mark0.5;
position = "{312, 368}";
}
);
layerId = "F450F4C4-4139-41FB-98F6-B6481F1E9B5F";
shapes = (
{
closed = 1;
nodes = (
(156,-8,o),
(80,30,o),
(67,125,c),
(42,0,l),
(21,0,l),
(168,735,l),
(189,735,l),
(126,424,l),
(174,495,o),
(249,538,o),
(348,538,cs),
(368,538,o),
(388,536,o),
(408,532,cs),
(481,517,o),
(533,459,o),
(533,365,c),
(530,309,o),
(514,250,o),
(503,194,cs),
(484,102,o),
(421,-8,o),
(249,-8,cs)
);
},
{
closed = 1;
nodes = (
(329,11,o),
(447,38,o),
(483,198,c),
(493,252,o),
(509,308,o),
(512,362,c),
(512,380,o),
(510,398,o),
(506,415,cs),
(490,484,o),
(425,519,o),
(345,519,cs),
(242,519,o),
(132,467,o),
(108,333,c),
(86,223,ls),
(82,205,o),
(81,186,o),
(80,168,cs),
(76,69,o),
(136,11,o),
(246,11,c)
);
}
);
width = 600;
}
);
unicode = 98;
},
{
glyphname = c;
layers = (
{
anchors = (
{
name = t._5066;
position = "{345, 530}";
},
{
name = t._5111;
position = "{701, 813}";
},
{
name = m.uni1DF7;
position = "{109, 530}";
},
{
name = m._5077;
position = "{581, 530}";
},
{
name = m._5079;
position = "{239, 0}";
},
{
name = m._5307;
position = "{498, -205}";
},
{
name = m.uni1DFA;
position = "{3, 0}";
},
{
name = m.uni0321;
position = "{475, 0}";
},
{
name = m._5081;
position = "{294, 276}";
},
{
name = m._5093;
position = "{292, 265}";
},
{
name = m._5088;
position = "{292, 265}";
}
);
layerId = "DD7251A6-C35A-4560-A124-DA829078785F";
shapes = (
{
closed = 1;
nodes = (
(89,-8,o),
(11,83,o),
(43,240,cs),
(65,350,ls),
(91,483,o),
(203,538,o),
(329,538,c),
(447,540,o),
(574,488,o),
(546,345,cs),
(544,335,l),
(398,335,l),
(398,339,l),
(412,399,o),
(368,418,o),
(317,418,cs),
(260,418,o),
(220,382,o),
(208,327,cs),
(186,217,ls),
(175,158,o),
(194,112,o),
(260,112,cs),
(312,112,o),
(361,141,o),
(370,195,c),
(516,195,l),
(493,64,o),
(374,-8,o),
(248,-8,cs)
);
}
);
width = 600;
},
{
anchors = (
{
name = t._5066;
position = "{345, 530}";
},
{
name = t._5111;
position = "{701, 813}";
},
{
name = m.uni1DF7;
position = "{127, 530}";
},
{
name = m._5077;
position = "{563, 530}";
},
{
name = m._5079;
position = "{239, 0}";
},
{
name = m._5307;
position = "{498, -205}";
},
{
name = m.uni1DFA;
position = "{21, 0}";
},
{
name = m.uni0321;
position = "{457, 0}";
},
{
name = m._5081;
position = "{294, 276}";
},
{
name = m._5093;
position = "{292, 265}";
},
{
name = m._5088;
position = "{292, 265}";
}
);
layerId = "F450F4C4-4139-41FB-98F6-B6481F1E9B5F";
shapes = (
{
closed = 1;
nodes = (
(87,-8,o),
(31,85,o),
(58,226,cs),
(80,336,ls),
(106,469,o),
(209,538,o),
(340,538,cs),
(445,538,o),
(556,497,o),
(532,368,c),
(532,365,l),
(511,365,l),
(511,367,l),
(534,482,o),
(431,519,o),
(338,519,c),
(219,521,o),
(123,451,o),
(100,332,cs),
(78,222,l),
(55,95,o),
(103,11,o),
(240,11,c),
(341,13,o),
(448,55,o),
(471,165,c),
(492,165,l),
(464,45,o),
(352,-8,o),
(238,-8,cs)
);
}
);
width = 600;
},
{
anchors = (
{
name = t._5066;
position = "{345, 530}";
},
{
name = t._5111;
position = "{701, 813}";
},
{
name = m.uni1DF7;
position = "{117, 530}";
},
{
name = m._5077;
position = "{573, 530}";
},
{
name = m._5079;
position = "{239, 0}";
},
{
name = m._5307;
position = "{498, -205}";
},
{
name = m.uni1DFA;
position = "{11, 0}";
},
{
name = m.uni0321;
position = "{467, 0}";
},
{
name = m._5081;
position = "{294, 276}";
},
{
name = m._5093;
position = "{292, 265}";
},
{
name = m._5088;
position = "{292, 265}";
}
);
layerId = "39BC9D91-1289-454F-9557-B2BECA116F6B";
shapes = (
{
closed = 1;
nodes = (
(90,-8,o),
(18,83,o),
(50,235,cs),
(72,345,l),
(95,478,o),
(206,538,o),
(332,538,cs),
(444,538,o),
(568,494,o),
(540,356,c),
(538,348,l),
(447,348,l),
(448,353,ls),
(465,434,o),
(388,458,o),
(324,458,cs),
(238,458,o),
(179,413,o),
(160,329,cs),
(138,219,l),
(124,129,o),
(158,72,o),
(254,72,cs),
(327,72,o),
(398,105,o),
(414,182,c),
(505,182,l),
(482,56,o),
(366,-8,o),
(246,-8,cs)
);
}
);
width = 600;
}
);
unicode = 99;
},
{
glyphname = d;
layers = (
{
anchors = (
{
name = t._5066;
position = "{386, 735}";
},
{
name = t._5111;
position = "{701, 813}";
},
{
name = t.ring.2;
position = "{548, 735}";
},
{
name = m.uni1DF7;
position = "{150, 735}";
},
{
name = m._5077;
position = "{622, 735}";
},
{
name = m._5079;
position = "{239, 0}";
},
{
name = m._5307;
position = "{498, -205}";
},
{
name = m.uni1DFA;
position = "{3, 0}";
},
{
name = m.uni0321;
position = "{475, 0}";
},
{
name = m._5081;
position = "{292, 265}";
},
{
name = m._5093;
position = "{312, 368}";
},
{
name = m._5088;
position = "{292, 265}";
},
{
name = m._5082;
position = "{527, 633}";
}
);
layerId = "DD7251A6-C35A-4560-A124-DA829078785F";
shapes = (
{
closed = 1;
nodes = (
(39,-8,o),
(19,122,o),
(43,240,cs),
(65,350,l),
(82,451,o),
(149,538,o),
(259,538,cs),
(344,538,o),
(394,500,o),
(410,416,c),
(474,735,l),
(622,735,l),
(475,0,l),
(327,0,l),
(342,75,l),
(305,21,o),
(254,-8,o),
(188,-8,cs)
);
},
{
closed = 1;
nodes = (
(300,114,o),
(353,128,o),
(363,183,cs),
(385,293,l),
(398,345,o),
(394,418,o),
(323,418,c),
(263,420,o),
(220,386,o),
(208,327,cs),
(186,217,ls),
(175,164,o),
(188,112,o),
(252,112,c)
);
}
);
width = 600;
},
{
anchors = (
{
name = t._5066;
position = "{386, 735}";
},
{
name = t._5111;
position = "{701, 813}";
},
{
name = t.ring.2;
position = "{593, 735}";
},
{
name = m.uni1DF7;
position = "{168, 735}";
},
{
name = m._5077;
position = "{604, 735}";
},
{
name = m._5079;
position = "{239, 0}";
},
{
name = m._5307;
position = "{498, -205}";
},
{
name = m.uni1DFA;
position = "{21, 0}";
},
{
name = m.uni0321;
position = "{457, 0}";
},
{
name = m._5081;
position = "{292, 265}";
},
{
name = m._5093;
position = "{312, 368}";
},
{
name = m._5088;
position = "{292, 265}";
},
{
name = m._5082;
position = "{573, 633}";
}
);
layerId = "F450F4C4-4139-41FB-98F6-B6481F1E9B5F";
shapes = (
{
closed = 1;
nodes = (
(84,-8,o),
(32,87,o),
(58,226,cs),
(80,336,l),
(103,466,o),
(205,538,o),
(334,538,c),
(426,540,o),
(498,500,o),
(517,405,c),
(583,735,l),
(604,735,l),
(457,0,l),
(436,0,l),
(457,106,l),
(405,26,o),
(329,-8,o),
(235,-8,cs)
);
},
{
closed = 1;
nodes = (
(359,11,o),
(452,75,o),
(475,197,cs),
(497,307,l),
(520,434,o),
(476,519,o),
(337,519,c),
(217,521,o),
(123,452,o),
(100,332,cs),
(78,222,ls),
(54,96,o),
(101,11,o),
(238,11,cs)
);
}
);
width = 600;
},
{
anchors = (
{
name = t._5066;
position = "{386, 735}";
},
{
name = t._5111;
position = "{701, 813}";
},
{
name = t.ring.2;
position = "{567, 735}";
},
{
name = m.uni1DF7;
position = "{158, 735}";
},
{
name = m._5077;
position = "{614, 735}";
},
{
name = m._5079;
position = "{239, 0}";
},
{
name = m._5307;
position = "{498, -205}";
},
{
name = m.uni1DFA;
position = "{11, 0}";
},
{
name = m.uni0321;
position = "{467, 0}";
},
{
name = m._5081;
position = "{292, 265}";
},
{
name = m._5093;
position = "{312, 368}";
},
{
name = m._5088;
position = "{292, 265}";
},
{
name = m._5082;
position = "{547, 633}";
}
);
layerId = "39BC9D91-1289-454F-9557-B2BECA116F6B";
shapes = (
{
closed = 1;
nodes = (
(62,-8,o),
(21,105,o),
(50,235,c),
(72,345,ls),
(96,458,o),
(169,538,o),
(290,538,c),
(375,540,o),
(441,500,o),
(457,413,c),
(522,735,l),
(614,735,l),
(467,0,l),
(375,0,l),
(392,85,l),
(347,23,o),
(289,-8,o),
(212,-8,cs)
);
},
{
closed = 1;
nodes = (
(323,74,o),
(398,105,o),
(412,188,c),
(434,298,ls),
(451,384,o),
(428,458,o),
(327,458,cs),
(242,458,o),
(178,414,o),
(160,329,cs),
(138,219,l),
(125,132,o),
(151,72,o),
(248,72,c)
);
}
);
width = 600;
}
);
unicode = 100;
},
{
glyphname = e;
layers = (
{
anchors = (
{
name = t._5066;
position = "{345, 530}";
},
{
name = t._5111;
position = "{701, 813}";
},
{
name = m.uni1DF7;
position = "{109, 530}";
},
{
name = m._5077;
position = "{581, 530}";
},
{
name = m._5079;
position = "{239, 0}";
},
{
name = m._5307;
position = "{498, -205}";
},
{
name = m.uni1DFA;
position = "{3, 0}";
},
{
name = m.uni0321;
position = "{475, 0}";
},
{
name = m._5081;
position = "{294, 276}";
},
{
name = m._5093;
position = "{292, 265}";
},
{
name = m._5088;
position = "{292, 265}";
}
);
layerId = "DD7251A6-C35A-4560-A124-DA829078785F";
shapes = (
{
closed = 1;
nodes = (
(92,-8,o),
(11,81,o),
(43,240,cs),
(65,350,ls),
(90,484,o),
(201,538,o),
(327,538,c),
(492,540,o),
(569,453,o),
(541,290,c),
(524,207,l),
(180,207,l),
(180,207,l),
(171,146,o),
(201,109,o),
(263,109,c),
(298,111,o),
(360,117,o),
(371,160,c),
(513,160,l),
(482,39,o),
(366,-8,o),
(251,-8,cs)
);
},
{
closed = 1;
nodes = (
(403,323,l),
(414,381,o),
(389,421,o),
(327,421,c),
(261,423,o),
(216,387,o),
(203,323,c),
(203,323,l)
);
}
);
width = 600;
},
{
anchors = (
{
name = t._5066;
position = "{345, 530}";
},
{
name = t._5111;
position = "{701, 813}";
},
{
name = m.uni1DF7;
position = "{127, 530}";
},
{
name = m._5077;
position = "{563, 530}";
},
{
name = m._5079;
position = "{239, 0}";
},
{
name = m._5307;
position = "{498, -205}";
},
{
name = m.uni1DFA;
position = "{21, 0}";
},
{
name = m.uni0321;
position = "{457, 0}";
},
{
name = m._5081;
position = "{294, 276}";
},
{
name = m._5093;
position = "{292, 265}";
},
{
name = m._5088;
position = "{292, 265}";
}
);
layerId = "F450F4C4-4139-41FB-98F6-B6481F1E9B5F";
shapes = (
{
closed = 1;
nodes = (
(92,-8,o),
(31,84,o),
(58,226,cs),
(80,336,l),
(110,471,o),
(206,538,o),
(341,538,c),
(489,540,o),
(557,446,o),
(525,304,c),
(516,256,l),
(85,256,l),
(78,222,ls),
(50,94,o),
(110,11,o),
(244,11,c),
(327,13,o),
(442,36,o),
(468,130,c),
(489,130,l),
(458,25,o),
(339,-8,o),
(242,-8,cs)
);
},
{
closed = 1;
nodes = (
(498,274,l),
(526,411,o),
(510,519,o),
(341,519,cs),
(221,519,o),
(123,455,o),
(100,332,cs),
(88,274,l)
);
}
);
width = 600;
},
{
anchors = (
{
name = t._5066;
position = "{345, 530}";
},
{
name = t._5111;
position = "{701, 813}";
},
{
name = m.uni1DF7;
position = "{117, 530}";
},
{
name = m._5077;
position = "{573, 530}";
},
{
name = m._5079;
position = "{239, 0}";
},
{
name = m._5307;
position = "{498, -205}";
},
{
name = m.uni1DFA;
position = "{11, 0}";
},
{
name = m.uni0321;
position = "{467, 0}";
},
{
name = m._5081;
position = "{294, 276}";
},
{
name = m._5093;
position = "{292, 265}";
},
{
name = m._5088;
position = "{292, 265}";
}
);
layerId = "39BC9D91-1289-454F-9557-B2BECA116F6B";
shapes = (
{
closed = 1;
nodes = (
(94,-8,o),
(18,82,o),
(50,235,cs),
(72,345,l),
(95,476,o),
(206,538,o),
(331,538,cs),
(490,538,o),
(562,452,o),
(534,295,c),
(520,226,l),
(139,226,l),
(137,219,l),
(118,127,o),
(163,71,o),
(257,71,c),
(313,73,o),
(393,84,o),
(412,147,c),
(502,147,l),
(475,34,o),
(352,-8,o),
(249,-8,cs)
);
},
{
closed = 1;
nodes = (
(444,304,l),
(470,396,o),
(428,459,o),
(331,459,cs),
(245,459,o),
(178,417,o),
(159,329,cs),
(154,304,l)
);
}
);
width = 600;
}
);
unicode = 101;
},
{
glyphname = f;
layers = (
{
anchors = (
{
name = mark0;
position = "{336, 735}";
},
{
name = mark0.1;
position = "{375, 735}";
},
{
name = mark0.2;
position = "{522, 735}";
},
{
name = mark0.3;
position = "{189, 0}";
},
{
name = mark0.4;
position = "{228, 265}";
},
{
name = mark0.5;
position = "{262, 368}";
}
);
layerId = "DD7251A6-C35A-4560-A124-DA829078785F";
shapes = (
{
closed = 1;
nodes = (
(249,0,l),
(101,0,l),
(183,410,l),
(81,410,l),
(81,450,o),
(81,490,o),
(81,530,c),
(207,530,l),
(214,568,ls),
(232,672,o),
(324,735,o),
(451,735,cs),
(538,735,l),
(538,615,l),
(494,615,ls),
(448,615,o),
(366,621,o),
(358,545,c),
(355,530,l),
(485,530,l),
(485,490,o),
(485,450,o),
(485,410,c),
(331,410,l)
);
}
);
width = 500;
},
{
anchors = (
{
name = mark0;
position = "{336, 735}";
},
{
name = mark0.1;
position = "{375, 735}";
},
{
name = mark0.2;
position = "{522, 735}";
},
{
name = mark0.3;
position = "{189, 0}";
},
{
name = mark0.4;
position = "{228, 265}";
},
{
name = mark0.5;
position = "{262, 368}";
}
);
layerId = "39BC9D91-1289-454F-9557-B2BECA116F6B";
shapes = (
{
closed = 1;
nodes = (
(215,0,l),
(123,0,l),
(214,455,l),
(91,455,l),
(91,480,o),
(92,505,o),
(92,530,c),
(229,530,l),
(238,580,ls),
(254,669,o),
(329,735,o),
(446,735,cs),
(532,735,l),
(532,660,l),
(470,660,ls),
(414,660,o),
(340,648,o),
(328,565,c),
(321,530,l),
(484,530,l),
(484,505,o),
(483,480,o),
(483,455,c),
(306,455,l)
);
}
);
width = 500;
},
{
anchors = (
{
name = mark0;
position = "{336, 735}";
},
{
name = mark0.1;
position = "{375, 735}";
},
{
name = mark0.2;
position = "{522, 735}";
},
{
name = mark0.3;
position = "{189, 0}";
},
{
name = mark0.4;
position = "{228, 265}";
},
{
name = mark0.5;
position = "{262, 368}";
}
);
layerId = "F450F4C4-4139-41FB-98F6-B6481F1E9B5F";
shapes = (
{
closed = 1;
nodes = (
(172,0,l),
(151,0,l),
(253,511,l),
(104,511,l),
(104,517,o),
(105,524,o),
(105,530,c),
(257,530,l),
(269,594,ls),
(282,665,o),
(336,735,o),
(439,735,cs),
(524,735,l),
(524,716,l),
(439,716,ls),
(371,716,o),
(308,681,o),
(290,590,cs),
(278,530,l),
(482,530,l),
(482,524,o),
(481,517,o),
(481,511,c),
(274,511,l)
);
}
);
width = 500;
}
);
unicode = 102;
},
{
glyphname = g;
layers = (
{
anchors = (
{
name = t._5066;
position = "{345, 530}";
},
{
name = t._5111;
position = "{701, 813}";
},
{
name = m.uni1DF7;
position = "{109, 530}";
},
{
name = m._5077;
position = "{581, 530}";
},
{
name = m._5079;
position = "{198, -205}";
},
{
name = m._5307;
position = "{498, -205}";
},
{
name = m.uni1DFA;
position = "{-38, -205}";
},
{
name = m.uni0321;
position = "{434, -205}";
},
{
name = m._5081;
position = "{292, 265}";
},
{
name = m._5093;
position = "{271, 163}";
},
{
name = m._5088;
position = "{292, 265}";
}
);
layerId = "DD7251A6-C35A-4560-A124-DA829078785F";
shapes = (
{
closed = 1;
nodes = (
(112,-215,o),
(-32,-184,o),
(-10,-55,c),
(136,-55,l),
(128,-91,o),
(199,-93,o),
(220,-93,c),
(277,-95,o),
(317,-57,o),
(326,-2,c),
(342,75,l),
(305,21,o),
(254,-8,o),
(188,-8,cs),
(39,-8,o),
(19,122,o),
(43,240,cs),
(65,350,l),
(82,451,o),
(149,538,o),
(259,538,cs),
(344,538,o),
(394,500,o),
(410,416,c),
(433,530,l),
(581,530,l),
(470,-25,ls),
(442,-157,o),
(335,-213,o),
(208,-213,c)
);
},
{
closed = 1;
nodes = (
(300,114,o),
(353,128,o),
(363,183,cs),
(385,293,l),
(398,345,o),
(394,418,o),
(323,418,c),
(263,420,o),
(220,386,o),
(208,327,cs),
(186,217,ls),
(175,164,o),
(188,112,o),
(252,112,c)
);
}
);
width = 600;
},
{
anchors = (
{
name = t._5066;
position = "{345, 530}";
},
{
name = t._5111;
position = "{701, 813}";
},
{
name = m.uni1DF7;
position = "{127, 530}";
},
{
name = m._5077;
position = "{563, 530}";
},
{
name = m._5079;
position = "{198, -205}";
},
{
name = m._5307;
position = "{498, -205}";
},
{
name = m.uni1DFA;
position = "{-20, -205}";
},
{
name = m.uni0321;
position = "{416, -205}";
},
{
name = m._5081;
position = "{292, 265}";
},
{
name = m._5093;
position = "{271, 163}";
},
{
name = m._5088;
position = "{292, 265}";
}
);
layerId = "F450F4C4-4139-41FB-98F6-B6481F1E9B5F";
shapes = (
{
closed = 1;
nodes = (
(122,-215,o),
(-16,-190,o),
(2,-85,c),
(23,-85,l),
(6,-178,o),
(135,-194,o),
(198,-194,c),
(321,-196,o),
(411,-129,o),
(434,-7,cs),
(457,106,l),
(405,26,o),
(329,-8,o),
(235,-8,cs),
(84,-8,o),
(32,87,o),
(58,226,cs),
(80,336,l),
(103,466,o),
(205,538,o),
(334,538,c),
(422,540,o),
(504,500,o),
(516,404,c),
(542,530,l),
(563,530,l),
(454,-11,l),
(431,-144,o),
(326,-213,o),
(196,-213,c)
);
},
{
closed = 1;
nodes = (
(359,11,o),
(452,75,o),
(475,197,cs),
(497,307,l),
(520,434,o),
(476,519,o),
(337,519,c),
(217,521,o),
(123,452,o),
(100,332,cs),
(78,222,ls),
(54,96,o),
(101,11,o),
(238,11,cs)
);
}
);
width = 600;
},
{
anchors = (
{
name = t._5066;
position = "{345, 530}";
},
{
name = t._5111;
position = "{701, 813}";
},
{
name = m.uni1DF7;
position = "{117, 530}";
},
{
name = m._5077;
position = "{573, 530}";
},
{
name = m._5079;
position = "{198, -205}";
},
{
name = m._5307;
position = "{498, -205}";
},
{
name = m.uni1DFA;
position = "{-30, -205}";
},
{
name = m.uni0321;
position = "{426, -205}";
},
{
name = m._5081;
position = "{292, 265}";
},
{
name = m._5093;
position = "{271, 163}";
},
{
name = m._5088;
position = "{292, 265}";
}
);
layerId = "39BC9D91-1289-454F-9557-B2BECA116F6B";
shapes = (
{
closed = 1;
nodes = (
(119,-213,o),
(-27,-188,o),
(-5,-68,c),
(86,-68,l),
(78,-127,o),
(175,-133,o),
(213,-133,cs),
(297,-133,o),
(356,-86,o),
(374,-4,cs),
(392,85,l),
(347,23,o),
(289,-8,o),
(212,-8,cs),
(62,-8,o),
(21,105,o),
(50,235,c),
(72,345,ls),
(96,458,o),
(169,538,o),
(290,538,c),
(375,540,o),
(441,500,o),
(457,413,c),
(481,530,l),
(573,530,l),
(463,-20,l),
(435,-152,o),
(335,-213,o),
(205,-213,cs)
);
},
{
closed = 1;
nodes = (
(323,74,o),
(398,105,o),
(412,188,c),
(434,298,ls),
(451,384,o),
(428,458,o),
(327,458,cs),
(242,458,o),
(178,414,o),
(160,329,cs),
(138,219,l),
(125,132,o),
(151,72,o),
(248,72,c)
);
}
);
width = 600;
}
);
unicode = 103;
},
{
glyphname = h;
layers = (
{
anchors = (
{
name = mark0;
position = "{386, 735}";
},
{
name = mark0.1;
position = "{223, 735}";
},
{
name = mark0.2;
position = "{622, 735}";
},
{
name = mark0.3;
position = "{239, 0}";
},
{
name = mark0.4;
position = "{315, 382}";
},
{
name = mark0.5;
position = "{312, 368}";
}
);
layerId = "DD7251A6-C35A-4560-A124-DA829078785F";
shapes = (
{
closed = 1;
nodes = (
(3,0,l),
(150,735,l),
(298,735,l),
(242,456,l),
(270,499,o),
(312,528,o),
(362,536,cs),
(372,538,o),
(381,538,o),
(391,538,cs),
(469,538,o),
(541,496,o),
(541,377,cs),
(541,348,o),
(538,319,o),
(533,290,c),
(475,0,l),
(327,0,l),
(340,62,o),
(352,125,o),
(364,188,cs),
(368,209,o),
(373,229,o),
(377,250,cs),
(384,289,o),
(402,338,o),
(390,373,cs),
(381,401,o),
(361,421,o),
(327,418,c),
(214,431,o),
(210,294,o),
(191,202,c),
(151,0,l)
);
}
);
width = 600;
},
{
anchors = (
{
name = mark0;
position = "{386, 735}";
},
{
name = mark0.1;
position = "{223, 735}";
},
{
name = mark0.2;
position = "{622, 735}";
},
{
name = mark0.3;
position = "{239, 0}";
},
{
name = mark0.4;
position = "{315, 382}";
},
{
name = mark0.5;
position = "{312, 368}";
}
);
layerId = "39BC9D91-1289-454F-9557-B2BECA116F6B";
shapes = (
{
closed = 1;
nodes = (
(11,0,l),
(158,735,l),
(250,735,l),
(191,442,l),
(224,497,o),
(284,532,o),
(354,537,cs),
(364,538,o),
(373,538,o),
(383,537,c),
(458,534,o),
(536,493,o),
(533,371,cs),
(533,346,o),
(530,321,o),
(526,296,c),
(467,0,l),
(375,0,l),
(392,80,o),
(407,161,o),
(423,241,cs),
(427,261,o),
(431,280,o),
(433,300,cs),
(437,337,o),
(445,379,o),
(429,412,c),
(410,446,o),
(376,465,o),
(333,463,c),
(224,470,o),
(175,371,o),
(154,260,cs),
(103,0,l)
);
}
);
width = 600;
},
{
anchors = (
{
name = mark0;
position = "{386, 735}";
},
{
name = mark0.1;
position = "{223, 735}";
},
{
name = mark0.2;
position = "{622, 735}";
},
{
name = mark0.3;
position = "{239, 0}";
},
{
name = mark0.4;
position = "{315, 382}";
},
{
name = mark0.5;
position = "{312, 368}";
}
);
layerId = "F450F4C4-4139-41FB-98F6-B6481F1E9B5F";
shapes = (
{
closed = 1;
nodes = (
(21,0,l),
(168,735,l),
(189,735,l),
(127,425,l),
(166,495,o),
(248,538,o),
(344,538,cs),
(354,538,o),
(364,537,o),
(374,536,cs),
(444,529,o),
(530,490,o),
(524,364,cs),
(523,344,o),
(521,324,o),
(517,304,cs),
(457,0,l),
(436,0,l),
(456,103,o),
(476,205,o),
(497,308,c),
(500,326,o),
(504,344,o),
(504,362,cs),
(504,398,o),
(499,430,o),
(478,460,cs),
(447,503,o),
(395,519,o),
(341,519,cs),
(237,519,o),
(132,468,o),
(108,333,c),
(42,0,l)
);
}
);
width = 600;
}
);
unicode = 104;
},
{
glyphname = k;
layers = (
{
anchors = (
{
name = mark0;
position = "{386, 735}";
},
{
name = mark0.1;
position = "{242, 735}";
},
{
name = mark0.2;
position = "{622, 735}";
},
{
name = mark0.3;
position = "{239, 0}";
},
{
name = mark0.4;
position = "{501, 0}";
},
{
name = mark0.5;
position = "{315, 382}";
},
{
name = mark0.6;
position = "{312, 368}";
}
);
layerId = "DD7251A6-C35A-4560-A124-DA829078785F";
shapes = (
{
closed = 1;
nodes = (
(347,0,l),
(259,196,l),
(196,136,l),
(169,0,l),
(22,0,l),
(169,735,l),
(316,735,l),
(235,332,l),
(424,530,l),
(608,530,l),
(353,286,l),
(502,0,l)
);
}
);
width = 600;
},
{
anchors = (
{
name = mark0;
position = "{386, 735}";
},
{
name = mark0.1;
position = "{242, 735}";
},
{
name = mark0.2;
position = "{622, 735}";
},
{
name = mark0.3;
position = "{239, 0}";
},
{
name = mark0.4;
position = "{501, 0}";
},
{
name = mark0.5;
position = "{315, 382}";
},
{
name = mark0.6;
position = "{312, 368}";
}
);
layerId = "39BC9D91-1289-454F-9557-B2BECA116F6B";
shapes = (
{
closed = 1;
nodes = (
(382,0,l),
(236,233,l),
(154,167,l),
(121,0,l),
(30,0,l),
(177,735,l),
(268,735,l),
(178,288,l),
(468,530,l),
(585,530,l),
(295,289,l),
(479,0,l)
);
}
);
width = 600;
},
{
anchors = (
{
name = mark0;
position = "{386, 735}";
},
{
name = mark0.1;
position = "{242, 735}";
},
{
name = mark0.2;
position = "{622, 735}";
},
{
name = mark0.3;
position = "{239, 0}";
},
{
name = mark0.4;
position = "{501, 0}";
},
{
name = mark0.5;
position = "{315, 382}";
},
{
name = mark0.6;
position = "{312, 368}";
}
);
layerId = "F450F4C4-4139-41FB-98F6-B6481F1E9B5F";
shapes = (
{
closed = 1;
nodes = (
(425,0,l),
(207,280,l),
(102,205,l),
(61,0,l),
(40,0,l),
(187,735,l),
(208,735,l),
(107,233,l),
(523,530,l),
(556,530,l),
(223,292,l),
(450,0,l)
);
}
);
width = 600;
}
);
unicode = 107;
},
{
glyphname = l;
layers = (
{
anchors = (
{
name = mark0;
position = "{236, 735}";
},
{
name = mark0.1;
position = "{236, 735}";
},
{
name = mark0.2;
position = "{322, 735}";
},
{
name = mark0.3;
position = "{89, 0}";
},
{
name = mark0.4;
position = "{89, 0}";
},
{
name = mark0.5;
position = "{162, 0}";
},
{
name = mark0.6;
position = "{165, 382}";
},
{
name = mark0.7;
position = "{162, 368}";
}
);
layerId = "DD7251A6-C35A-4560-A124-DA829078785F";
shapes = (
{
closed = 1;
nodes = (
(15,0,l),
(162,735,l),
(310,735,l),
(163,0,l)
);
}
);
width = 300;
},
{
anchors = (
{
name = mark0;
position = "{236, 735}";
},
{
name = mark0.1;
position = "{236, 735}";
},
{
name = mark0.2;
position = "{322, 735}";
},
{
name = mark0.3;
position = "{89, 0}";
},
{
name = mark0.4;
position = "{89, 0}";
},
{
name = mark0.5;
position = "{162, 0}";
},
{
name = mark0.6;
position = "{165, 382}";
},
{
name = mark0.7;
position = "{162, 368}";
}
);
layerId = "39BC9D91-1289-454F-9557-B2BECA116F6B";
shapes = (
{
closed = 1;
nodes = (
(43,0,l),
(190,735,l),
(282,735,l),
(135,0,l)
);
}
);
width = 300;
},
{
anchors = (
{
name = mark0;
position = "{236, 735}";
},
{
name = mark0.1;
position = "{236, 735}";
},
{
name = mark0.2;
position = "{322, 735}";
},
{
name = mark0.3;
position = "{89, 0}";
},
{
name = mark0.4;
position = "{89, 0}";
},
{
name = mark0.5;
position = "{162, 0}";
},
{
name = mark0.6;
position = "{165, 382}";
},
{
name = mark0.7;
position = "{162, 368}";
}
);
layerId = "F450F4C4-4139-41FB-98F6-B6481F1E9B5F";
shapes = (
{
closed = 1;
nodes = (
(78,0,l),
(225,735,l),
(247,735,l),
(100,0,l)
);
}
);
width = 300;
}
);
unicode = 108;
},
{
glyphname = m;
layers = (
{
anchors = (
{
name = mark0;
position = "{495, 530}";
},
{
name = mark0.1;
position = "{881, 530}";
},
{
name = mark0.2;
position = "{389, 0}";
},
{
name = mark0.3;
position = "{444, 276}";
},
{
name = mark0.4;
position = "{442, 265}";
}
);
layerId = "DD7251A6-C35A-4560-A124-DA829078785F";
shapes = (
{
closed = 1;
nodes = (
(3,0,l),
(109,530,l),
(257,530,l),
(241,454,l),
(266,487,o),
(292,512,o),
(334,526,cs),
(357,534,o),
(378,538,o),
(401,538,c),
(473,541,o),
(527,489,o),
(530,411,c),
(554,481,o),
(624,531,o),
(691,537,cs),
(698,538,o),
(706,538,o),
(713,538,cs),
(793,538,o),
(843,485,o),
(843,389,c),
(843,358,o),
(841,325,o),
(833,294,c),
(775,0,l),
(627,0,l),
(682,278,l),
(685,293,o),
(688,309,o),
(691,324,c),
(696,340,o),
(696,357,o),
(693,371,cs),
(687,400,o),
(662,420,o),
(628,418,c),
(628,418,o),
(628,418,o),
(628,418,c),
(578,422,o),
(532,371,o),
(528,325,c),
(463,0,l),
(315,0,l),
(370,278,l),
(379,324,l),
(384,340,o),
(384,357,o),
(381,371,c),
(375,400,o),
(350,420,o),
(316,418,c),
(232,425,o),
(217,327,o),
(207,279,c),
(151,0,l)
);
}
);
width = 900;
},
{
anchors = (
{
name = mark0;
position = "{495, 530}";
},
{
name = mark0.1;
position = "{881, 530}";
},
{
name = mark0.2;
position = "{389, 0}";
},
{
name = mark0.3;
position = "{444, 276}";
},
{
name = mark0.4;
position = "{442, 265}";
}
);
layerId = "39BC9D91-1289-454F-9557-B2BECA116F6B";
shapes = (
{
closed = 1;
nodes = (
(11,0,l),
(117,530,l),
(209,530,l),
(191,447,l),
(222,494,o),
(268,524,o),
(327,531,c),
(349,536,o),
(369,537,o),
(390,535,cs),
(454,530,o),
(499,480,o),
(504,410,c),
(530,482,o),
(602,534,o),
(684,537,c),
(692,538,o),
(700,538,o),
(708,537,c),
(781,534,o),
(839,489,o),
(836,385,c),
(836,353,o),
(832,321,o),
(825,290,c),
(767,0,l),
(675,0,l),
(735,301,ls),
(738,317,o),
(740,333,o),
(743,348,cs),
(746,364,o),
(745,380,o),
(742,395,cs),
(734,434,o),
(702,464,o),
(647,463,c),
(640,463,o),
(633,462,o),
(626,461,c),
(562,457,o),
(509,399,o),
(502,336,c),
(435,0,l),
(343,0,l),
(403,301,l),
(411,348,l),
(414,364,o),
(413,380,o),
(410,395,c),
(400,433,o),
(372,464,o),
(314,463,c),
(228,467,o),
(177,389,o),
(165,311,c),
(103,0,l)
);
}
);
width = 900;
},
{
anchors = (
{
name = mark0;
position = "{495, 530}";
},
{
name = mark0.1;
position = "{881, 530}";
},
{
name = mark0.2;
position = "{389, 0}";
},
{
name = mark0.3;
position = "{444, 276}";
},
{
name = mark0.4;
position = "{442, 265}";
}
);
layerId = "F450F4C4-4139-41FB-98F6-B6481F1E9B5F";
shapes = (
{
closed = 1;
nodes = (
(21,0,l),
(127,530,l),
(148,530,l),
(129,439,l),
(168,502,o),
(237,538,o),
(319,538,cs),
(338,538,o),
(358,536,o),
(377,531,cs),
(431,517,o),
(464,469,o),
(471,408,c),
(501,483,o),
(575,538,o),
(676,538,cs),
(685,538,o),
(693,537,o),
(702,536,cs),
(765,529,o),
(834,493,o),
(828,379,c),
(827,346,o),
(820,316,o),
(814,285,cs),
(757,0,l),
(736,0,l),
(802,330,l),
(804,346,o),
(806,362,o),
(807,378,cs),
(808,394,o),
(807,409,o),
(804,424,cs),
(793,477,o),
(751,519,o),
(670,519,cs),
(654,519,o),
(639,518,o),
(624,515,cs),
(543,500,o),
(481,434,o),
(470,350,c),
(400,0,l),
(378,0,l),
(444,330,l),
(450,378,ls),
(452,394,o),
(449,409,o),
(447,424,c),
(432,475,o),
(399,519,o),
(312,519,cs),
(223,519,o),
(127,466,o),
(112,350,c),
(42,0,l)
);
}
);
width = 900;
}
);
unicode = 109;
},
{
glyphname = n;
layers = (
{
anchors = (
{
name = mark0;
position = "{345, 530}";
},
{
name = mark0.1;
position = "{581, 530}";
},
{
name = mark0.2;
position = "{239, 0}";
},
{
name = mark0.3;
position = "{475, 0}";
},
{
name = mark0.4;
position = "{294, 276}";
},
{
name = mark0.5;
position = "{292, 265}";
}
);
layerId = "DD7251A6-C35A-4560-A124-DA829078785F";
shapes = (
{
closed = 1;
nodes = (
(3,0,l),
(109,530,l),
(257,530,l),
(242,456,l),
(265,494,o),
(301,518,o),
(342,531,cs),
(358,536,o),
(374,538,o),
(391,538,cs),
(483,538,o),
(541,484,o),
(541,365,cs),
(541,341,o),
(536,315,o),
(533,290,c),
(475,0,l),
(327,0,l),
(368,209,ls),
(371,226,o),
(376,244,o),
(379,261,cs),
(385,293,o),
(398,331,o),
(392,363,cs),
(385,398,o),
(365,420,o),
(327,418,c),
(224,425,o),
(222,344,o),
(199,240,c),
(151,0,l)
);
}
);
width = 600;
},
{
anchors = (
{
name = mark0;
position = "{345, 530}";
},
{
name = mark0.1;
position = "{581, 530}";
},
{
name = mark0.2;
position = "{239, 0}";
},
{
name = mark0.3;
position = "{475, 0}";
},
{
name = mark0.4;
position = "{294, 276}";
},
{
name = mark0.5;
position = "{292, 265}";
}
);
layerId = "39BC9D91-1289-454F-9557-B2BECA116F6B";
shapes = (
{
closed = 1;
nodes = (
(11,0,l),
(117,530,l),
(209,530,l),
(191,442,l),
(221,494,o),
(277,527,o),
(343,534,c),
(361,537,o),
(378,537,o),
(397,535,cs),
(478,529,o),
(536,472,o),
(533,365,c),
(533,342,o),
(529,319,o),
(526,296,c),
(467,0,l),
(375,0,l),
(425,253,ls),
(428,270,o),
(433,288,o),
(435,306,cs),
(438,340,o),
(443,375,o),
(430,406,c),
(413,445,o),
(378,464,o),
(333,463,c),
(228,467,o),
(182,397,o),
(159,281,cs),
(103,0,l)
);
}
);
width = 600;
},
{
anchors = (
{
name = mark0;
position = "{345, 530}";
},
{
name = mark0.1;
position = "{581, 530}";
},
{
name = mark0.2;
position = "{239, 0}";
},
{
name = mark0.3;
position = "{475, 0}";
},
{
name = mark0.4;
position = "{294, 276}";
},
{
name = mark0.5;
position = "{292, 265}";
}
);
layerId = "F450F4C4-4139-41FB-98F6-B6481F1E9B5F";
shapes = (
{
closed = 1;
nodes = (
(21,0,l),
(127,530,l),
(148,530,l),
(127,425,l),
(166,495,o),
(248,538,o),
(344,538,cs),
(364,538,o),
(384,536,o),
(404,532,cs),
(472,518,o),
(529,458,o),
(524,364,cs),
(523,344,o),
(521,324,o),
(517,304,cs),
(457,0,l),
(436,0,l),
(497,308,l),
(500,326,o),
(504,344,o),
(504,362,cs),
(504,398,o),
(499,430,o),
(478,460,cs),
(447,503,o),
(395,519,o),
(341,519,cs),
(234,519,o),
(131,464,o),
(108,333,c),
(42,0,l)
);
}
);
width = 600;
}
);
unicode = 110;
},
{
glyphname = o;
layers = (
{
anchors = (
{
name = t._5066;
position = "{345, 530}";
},
{
name = t._5111;
position = "{701, 813}";
},
{
name = m.uni1DF7;
position = "{109, 530}";
},
{
name = m._5077;
position = "{581, 530}";
},
{
name = m._5079;
position = "{239, 0}";
},
{
name = m._5307;
position = "{498, -205}";
},
{
name = m.uni1DFA;
position = "{3, 0}";
},
{
name = m.uni0321;
position = "{475, 0}";
},
{
name = m._5081;
position = "{294, 276}";
},
{
name = m._5093;
position = "{292, 265}";
},
{
name = m._5088;
position = "{292, 265}";
}
);
layerId = "DD7251A6-C35A-4560-A124-DA829078785F";
shapes = (
{
closed = 1;
nodes = (
(95,-8,o),
(11,79,o),
(43,240,cs),
(65,350,l),
(88,484,o),
(203,538,o),
(328,538,c),
(492,540,o),
(569,452,o),
(541,290,c),
(519,180,ls),
(491,47,o),
(382,-8,o),
(255,-8,cs)
);
},
{
closed = 1;
nodes = (
(316,114,o),
(362,139,o),
(375,203,cs),
(397,313,ls),
(407,369,o),
(395,418,o),
(328,418,c),
(268,420,o),
(220,388,o),
(208,327,cs),
(186,217,ls),
(175,162,o),
(189,112,o),
(255,112,c)
);
}
);
width = 600;
},
{
anchors = (
{
name = t._5066;
position = "{345, 530}";
},
{
name = t._5111;
position = "{701, 813}";
},
{
name = m.uni1DF7;
position = "{127, 530}";
},
{
name = m._5077;
position = "{563, 530}";
},
{
name = m._5079;
position = "{239, 0}";
},
{
name = m._5307;
position = "{498, -205}";
},
{
name = m.uni1DFA;
position = "{21, 0}";
},
{
name = m.uni0321;
position = "{457, 0}";
},
{
name = m._5081;
position = "{294, 276}";
},
{
name = m._5093;
position = "{292, 265}";
},
{
name = m._5088;
position = "{292, 265}";
}
);
layerId = "F450F4C4-4139-41FB-98F6-B6481F1E9B5F";
shapes = (
{
closed = 1;
nodes = (
(91,-8,o),
(31,84,o),
(58,226,cs),
(80,336,l),
(110,472,o),
(206,538,o),
(342,538,c),
(490,540,o),
(557,445,o),
(525,304,c),
(503,194,l),
(479,60,o),
(371,-8,o),
(241,-8,cs)
);
},
{
closed = 1;
nodes = (
(363,11,o),
(460,74,o),
(483,198,cs),
(505,308,ls),
(533,437,o),
(476,519,o),
(341,519,cs),
(221,519,o),
(123,455,o),
(100,332,cs),
(78,222,l),
(50,94,o),
(108,11,o),
(242,11,cs)
);
}
);
width = 600;
},
{
anchors = (
{
name = t._5066;
position = "{345, 530}";
},
{
name = t._5111;
position = "{701, 813}";
},
{
name = m.uni1DF7;
position = "{117, 530}";
},
{
name = m._5077;
position = "{573, 530}";
},
{
name = m._5079;
position = "{239, 0}";
},
{
name = m._5307;
position = "{498, -205}";
},
{
name = m.uni1DFA;
position = "{11, 0}";
},
{
name = m.uni0321;
position = "{467, 0}";
},
{
name = m._5081;
position = "{294, 276}";
},
{
name = m._5093;
position = "{292, 265}";
},
{
name = m._5088;
position = "{292, 265}";
}
);
layerId = "39BC9D91-1289-454F-9557-B2BECA116F6B";
shapes = (
{
closed = 1;
nodes = (
(96,-8,o),
(18,80,o),
(50,235,cs),
(72,345,ls),
(98,477,o),
(204,538,o),
(331,538,c),
(491,540,o),
(561,450,o),
(534,295,c),
(512,185,ls),
(485,52,o),
(380,-8,o),
(252,-8,cs)
);
},
{
closed = 1;
nodes = (
(339,72,o),
(404,113,o),
(423,201,cs),
(445,311,l),
(466,400,o),
(424,458,o),
(331,458,cs),
(246,458,o),
(178,416,o),
(160,329,cs),
(138,219,l),
(124,130,o),
(156,72,o),
(252,72,cs)
);
}
);
width = 600;
}
);
unicode = 111;
},
{
glyphname = p;
layers = (
{
anchors = (
{
name = mark0;
position = "{345, 530}";
},
{
name = mark0.1;
position = "{581, 530}";
},
{
name = mark0.2;
position = "{198, -205}";
},
{
name = mark0.3;
position = "{35, -205}";
},
{
name = mark0.4;
position = "{274, 177}";
},
{
name = mark0.5;
position = "{271, 163}";
}
);
layerId = "DD7251A6-C35A-4560-A124-DA829078785F";
shapes = (
{
closed = 1;
nodes = (
(-38,-205,l),
(109,530,l),
(257,530,l),
(242,455,l),
(268,496,o),
(303,518,o),
(345,531,cs),
(361,536,o),
(378,538,o),
(395,538,cs),
(477,538,o),
(549,491,o),
(549,378,c),
(549,312,o),
(533,242,o),
(519,180,c),
(502,88,o),
(442,-8,o),
(324,-8,c),
(294,-10,o),
(267,-3,o),
(244,9,cs),
(205,30,o),
(178,71,o),
(173,114,c),
(110,-205,l)
);
},
{
closed = 1;
nodes = (
(260,112,l),
(323,106,o),
(367,153,o),
(378,220,c),
(383,251,o),
(390,282,o),
(397,313,c),
(401,325,o),
(403,338,o),
(402,350,cs),
(398,389,o),
(376,418,o),
(331,418,c),
(234,427,o),
(222,350,o),
(212,305,c),
(200,246,l),
(196,235,o),
(193,221,o),
(192,210,cs),
(188,173,o),
(200,112,o),
(250,112,cs)
);
}
);
width = 600;
},
{
anchors = (
{
name = mark0;
position = "{345, 530}";
},
{
name = mark0.1;
position = "{581, 530}";
},
{
name = mark0.2;
position = "{198, -205}";
},
{
name = mark0.3;
position = "{35, -205}";
},
{
name = mark0.4;
position = "{274, 177}";
},
{
name = mark0.5;
position = "{271, 163}";
}
);
layerId = "39BC9D91-1289-454F-9557-B2BECA116F6B";
shapes = (
{
closed = 1;
nodes = (
(-30,-205,l),
(117,530,l),
(209,530,l),
(190,441,l),
(226,496,o),
(279,527,o),
(346,534,c),
(364,537,o),
(382,537,o),
(401,535,cs),
(479,529,o),
(542,477,o),
(542,372,c),
(541,311,o),
(525,246,o),
(512,186,c),
(495,99,o),
(439,4,o),
(316,-6,cs),
(290,-8,o),
(267,-5,o),
(246,1,c),
(186,13,o),
(135,50,o),
(126,119,c),
(62,-205,l)
);
},
{
closed = 1;
nodes = (
(254,67,l),
(326,64,o),
(403,102,o),
(425,210,c),
(432,251,o),
(443,294,o),
(448,335,cs),
(450,349,o),
(451,365,o),
(448,379,cs),
(439,431,o),
(398,463,o),
(337,463,c),
(238,468,o),
(182,402,o),
(166,317,cs),
(149,236,l),
(145,222,o),
(143,205,o),
(142,191,cs),
(138,127,o),
(172,67,o),
(248,67,cs)
);
}
);
width = 600;
},
{
anchors = (
{
name = mark0;
position = "{345, 530}";
},
{
name = mark0.1;
position = "{581, 530}";
},
{
name = mark0.2;
position = "{198, -205}";
},
{
name = mark0.3;
position = "{35, -205}";
},
{
name = mark0.4;
position = "{274, 177}";
},
{
name = mark0.5;
position = "{271, 163}";
}
);
layerId = "F450F4C4-4139-41FB-98F6-B6481F1E9B5F";
shapes = (
{
closed = 1;
nodes = (
(-20,-205,l),
(127,530,l),
(148,530,l),
(126,424,l),
(174,495,o),
(249,538,o),
(348,538,cs),
(368,538,o),
(388,536,o),
(408,532,cs),
(481,517,o),
(533,459,o),
(533,365,c),
(530,309,o),
(514,250,o),
(503,194,cs),
(486,112,o),
(435,18,o),
(305,-3,cs),
(286,-6,o),
(267,-8,o),
(249,-8,cs),
(162,-8,o),
(81,24,o),
(67,126,c),
(1,-205,l)
);
},
{
closed = 1;
nodes = (
(329,11,o),
(447,38,o),
(483,198,c),
(493,252,o),
(509,308,o),
(512,362,c),
(512,380,o),
(510,398,o),
(506,415,cs),
(490,484,o),
(425,519,o),
(345,519,cs),
(242,519,o),
(132,467,o),
(108,333,c),
(86,223,ls),
(82,205,o),
(81,186,o),
(80,168,cs),
(76,69,o),
(136,11,o),
(246,11,c)
);
}
);
width = 600;
}
);
unicode = 112;
},
{
glyphname = q;
layers = (
{
anchors = (
{
name = t._5066;
position = "{345, 530}";
},
{
name = t._5111;
position = "{701, 813}";
},
{
name = m.uni1DF7;
position = "{109, 530}";
},
{
name = m._5077;
position = "{581, 530}";
},
{
name = m._5079;
position = "{198, -205}";
},
{
name = m._5307;
position = "{498, -205}";
},
{
name = m.cedilla.2;
position = "{360, -205}";
},
{
name = m.uni1DFA;
position = "{-38, -205}";
},
{
name = m.uni0321;
position = "{434, -205}";
},
{
name = m._5078;
position = "{386, -205}";
},
{
name = m._5081;
position = "{274, 177}";
},
{
name = m._5093;
position = "{271, 163}";
},
{
name = m._5088;
position = "{271, 163}";
}
);
layerId = "DD7251A6-C35A-4560-A124-DA829078785F";
shapes = (
{
closed = 1;
nodes = (
(286,-205,l),
(342,75,l),
(305,21,o),
(254,-8,o),
(188,-8,cs),
(39,-8,o),
(19,122,o),
(43,240,cs),
(65,350,l),
(82,451,o),
(149,538,o),
(259,538,cs),
(344,538,o),
(394,500,o),
(410,416,c),
(433,530,l),
(581,530,l),
(434,-205,l)
);
},
{
closed = 1;
nodes = (
(300,114,o),
(353,128,o),
(363,183,cs),
(385,293,l),
(398,345,o),
(394,418,o),
(323,418,c),
(263,420,o),
(220,386,o),
(208,327,cs),
(186,217,ls),
(175,164,o),
(188,112,o),
(252,112,c)
);
}
);
width = 600;
},
{
anchors = (
{
name = t._5066;
position = "{345, 530}";
},
{
name = t._5111;
position = "{701, 813}";
},
{
name = m.uni1DF7;
position = "{127, 530}";
},
{
name = m._5077;
position = "{563, 530}";
},
{
name = m._5079;
position = "{198, -205}";
},
{
name = m._5307;
position = "{498, -205}";
},
{
name = m.cedilla.2;
position = "{405, -205}";
},
{
name = m.uni1DFA;
position = "{-20, -205}";
},
{
name = m.uni0321;
position = "{416, -205}";
},
{
name = m._5078;
position = "{406, -205}";
},
{
name = m._5081;
position = "{274, 177}";
},
{
name = m._5093;
position = "{271, 163}";
},
{
name = m._5088;
position = "{271, 163}";
}
);
layerId = "F450F4C4-4139-41FB-98F6-B6481F1E9B5F";
shapes = (
{
closed = 1;
nodes = (
(395,-205,l),
(457,106,l),
(405,26,o),
(329,-8,o),
(235,-8,cs),
(84,-8,o),
(32,87,o),
(58,226,cs),
(80,336,l),
(103,466,o),
(205,538,o),
(334,538,c),
(422,540,o),
(504,500,o),
(516,404,c),
(542,530,l),
(563,530,l),
(416,-205,l)
);
},
{
closed = 1;
nodes = (
(359,11,o),
(452,75,o),
(475,197,cs),
(497,307,l),
(520,434,o),
(476,519,o),
(337,519,c),
(217,521,o),
(123,452,o),
(100,332,cs),
(78,222,ls),
(54,96,o),
(101,11,o),
(238,11,cs)
);
}
);
width = 600;
},
{
anchors = (
{
name = t._5066;
position = "{345, 530}";
},
{
name = t._5111;
position = "{701, 813}";
},
{
name = m.uni1DF7;
position = "{117, 530}";
},
{
name = m._5077;
position = "{573, 530}";
},
{
name = m._5079;
position = "{198, -205}";
},
{
name = m._5307;
position = "{498, -205}";
},
{
name = m.cedilla.2;
position = "{380, -205}";
},
{
name = m.uni1DFA;
position = "{-30, -205}";
},
{
name = m.uni0321;
position = "{426, -205}";
},
{
name = m._5078;
position = "{389, -205}";
},
{
name = m._5081;
position = "{274, 177}";
},
{
name = m._5093;
position = "{271, 163}";
},
{
name = m._5088;
position = "{271, 163}";
}
);
layerId = "39BC9D91-1289-454F-9557-B2BECA116F6B";
shapes = (
{
closed = 1;
nodes = (
(334,-205,l),
(392,85,l),
(347,23,o),
(289,-8,o),
(212,-8,cs),
(62,-8,o),
(21,105,o),
(50,235,c),
(72,345,ls),
(96,458,o),
(169,538,o),
(290,538,c),
(375,540,o),
(441,500,o),
(457,413,c),
(481,530,l),
(573,530,l),
(426,-205,l)
);
},
{
closed = 1;
nodes = (
(323,74,o),
(398,105,o),
(412,188,c),
(434,298,ls),
(451,384,o),
(428,458,o),
(327,458,cs),
(242,458,o),
(178,414,o),
(160,329,cs),
(138,219,l),
(125,132,o),
(151,72,o),
(248,72,c)
);
}
);
width = 600;
}
);
unicode = 113;
},
{
glyphname = r;
layers = (
{
anchors = (
{
name = mark0;
position = "{295, 530}";
},
{
name = mark0.1;
position = "{293, 530}";
},
{
name = mark0.2;
position = "{481, 530}";
},
{
name = mark0.3;
position = "{189, 0}";
},
{
name = mark0.4;
position = "{115, 0}";
},
{
name = mark0.5;
position = "{212, 265}";
},
{
name = mark0.6;
position = "{242, 265}";
}
);
layerId = "DD7251A6-C35A-4560-A124-DA829078785F";
shapes = (
{
closed = 1;
nodes = (
(41,0,l),
(147,530,l),
(295,530,l),
(274,425,l),
(314,488,o),
(388,543,o),
(478,538,c),
(478,495,o),
(479,453,o),
(479,410,c),
(309,410,o),
(269,386,o),
(223,170,c),
(189,0,l)
);
}
);
width = 500;
},
{
anchors = (
{
name = mark0;
position = "{295, 530}";
},
{
name = mark0.1;
position = "{293, 530}";
},
{
name = mark0.2;
position = "{481, 530}";
},
{
name = mark0.3;
position = "{189, 0}";
},
{
name = mark0.4;
position = "{115, 0}";
},
{
name = mark0.5;
position = "{212, 265}";
},
{
name = mark0.6;
position = "{242, 265}";
}
);
layerId = "39BC9D91-1289-454F-9557-B2BECA116F6B";
shapes = (
{
closed = 1;
nodes = (
(53,0,l),
(159,530,l),
(250,530,l),
(226,408,l),
(272,485,o),
(364,538,o),
(475,535,c),
(475,508,o),
(475,482,o),
(475,455,c),
(333,455,o),
(230,430,o),
(189,226,cs),
(144,0,l)
);
}
);
width = 500;
},
{
anchors = (
{
name = mark0;
position = "{295, 530}";
},
{
name = mark0.1;
position = "{293, 530}";
},
{
name = mark0.2;
position = "{481, 530}";
},
{
name = mark0.3;
position = "{189, 0}";
},
{
name = mark0.4;
position = "{115, 0}";
},
{
name = mark0.5;
position = "{212, 265}";
},
{
name = mark0.6;
position = "{242, 265}";
}
);
layerId = "F450F4C4-4139-41FB-98F6-B6481F1E9B5F";
shapes = (
{
closed = 1;
nodes = (
(67,0,l),
(173,530,l),
(194,530,l),
(165,387,l),
(220,481,o),
(335,531,o),
(471,531,c),
(471,524,o),
(471,518,o),
(471,511,c),
(363,511,o),
(182,485,o),
(147,297,c),
(88,0,l)
);
}
);
width = 500;
}
);
unicode = 114;
},
{
glyphname = s;
layers = (
{
anchors = (
{
name = t._5066;
position = "{345, 530}";
},
{
name = t._5111;
position = "{701, 813}";
},
{
name = m.uni1DF7;
position = "{109, 530}";
},
{
name = m._5077;
position = "{581, 530}";
},
{
name = m._5079;
position = "{239, 0}";
},
{
name = m._5307;
position = "{498, -205}";
},
{
name = m.uni1DFA;
position = "{3, 0}";
},
{
name = m.uni0321;
position = "{475, 0}";
},
{
name = m._5081;
position = "{294, 276}";
},
{
name = m._5093;
position = "{292, 265}";
},
{
name = m._5088;
position = "{292, 265}";
}
);
layerId = "DD7251A6-C35A-4560-A124-DA829078785F";
shapes = (
{
closed = 1;
nodes = (
(161,-8,o),
(-6,20,o),
(31,150,c),
(173,150,l),
(165,112,o),
(238,109,o),
(261,109,cs),
(289,109,o),
(353,112,o),
(360,147,c),
(371,184,o),
(312,201,o),
(288,208,cs),
(189,233,o),
(74,283,o),
(92,409,c),
(115,513,o),
(243,538,o),
(333,538,c),
(423,540,o),
(569,504,o),
(545,380,c),
(403,380,l),
(411,418,o),
(344,421,o),
(322,421,cs),
(297,421,o),
(238,417,o),
(232,385,cs),
(224,347,o),
(276,331,o),
(303,323,cs),
(395,296,o),
(526,245,o),
(499,121,cs),
(476,16,o),
(339,-8,o),
(250,-8,cs)
);
}
);
width = 600;
},
{
anchors = (
{
name = t._5066;
position = "{345, 530}";
},
{
name = t._5111;
position = "{701, 813}";
},
{
name = m.uni1DF7;
position = "{127, 530}";
},
{
name = m._5077;
position = "{563, 530}";
},
{
name = m._5079;
position = "{239, 0}";
},
{
name = m._5307;
position = "{498, -205}";
},
{
name = m.uni1DFA;
position = "{21, 0}";
},
{
name = m.uni0321;
position = "{457, 0}";
},
{
name = m._5081;
position = "{294, 276}";
},
{
name = m._5093;
position = "{292, 265}";
},
{
name = m._5088;
position = "{292, 265}";
}
);
layerId = "F450F4C4-4139-41FB-98F6-B6481F1E9B5F";
shapes = (
{
closed = 1;
nodes = (
(99,-8,o),
(26,40,o),
(43,120,c),
(64,120,l),
(47,27,o),
(179,11,o),
(241,11,c),
(315,13,o),
(443,31,o),
(460,122,c),
(482,216,o),
(343,243,o),
(279,260,cs),
(209,277,o),
(90,315,o),
(111,411,c),
(130,512,o),
(259,538,o),
(344,538,cs),
(441,538,o),
(533,527,o),
(533,410,c),
(512,410,l),
(512,512,o),
(425,519,o),
(342,519,cs),
(268,519,o),
(148,496,o),
(131,408,cs),
(114,313,o),
(248,288,o),
(313,271,cs),
(383,252,o),
(501,216,o),
(480,119,c),
(463,18,o),
(322,-8,o),
(239,-8,cs)
);
}
);
width = 600;
},
{
anchors = (
{
name = t._5066;
position = "{345, 530}";
},
{
name = t._5111;
position = "{701, 813}";
},
{
name = m.uni1DF7;
position = "{117, 530}";
},
{
name = m._5077;
position = "{573, 530}";
},
{
name = m._5079;
position = "{239, 0}";
},
{
name = m._5307;
position = "{498, -205}";
},
{
name = m.uni1DFA;
position = "{11, 0}";
},
{
name = m.uni0321;
position = "{467, 0}";
},
{
name = m._5081;
position = "{294, 276}";
},
{
name = m._5093;
position = "{292, 265}";
},
{
name = m._5088;
position = "{292, 265}";
}
);
layerId = "39BC9D91-1289-454F-9557-B2BECA116F6B";
shapes = (
{
closed = 1;
nodes = (
(167,-8,o),
(12,20,o),
(36,137,c),
(126,137,l),
(113,78,o),
(219,71,o),
(255,71,cs),
(301,71,o),
(391,79,o),
(403,136,cs),
(416,201,o),
(318,217,o),
(274,229,cs),
(194,252,o),
(76,304,o),
(101,410,c),
(120,512,o),
(250,538,o),
(336,538,cs),
(419,538,o),
(562,511,o),
(539,393,c),
(449,393,l),
(460,452,o),
(365,459,o),
(328,459,cs),
(285,459,o),
(197,449,o),
(189,395,c),
(176,333,o),
(269,314,o),
(312,303,cs),
(399,280,o),
(509,231,o),
(491,120,c),
(469,17,o),
(334,-8,o),
(247,-8,cs)
);
}
);
width = 600;
}
);
unicode = 115;
},
{
glyphname = t;
layers = (
{
anchors = (
{
name = mark0;
position = "{336, 735}";
},
{
name = mark0.1;
position = "{301, 735}";
},
{
name = mark0.2;
position = "{543, 735}";
},
{
name = mark0.3;
position = "{189, 0}";
},
{
name = mark0.4;
position = "{219, 0}";
},
{
name = mark0.5;
position = "{234, 307}";
},
{
name = mark0.6;
position = "{262, 368}";
}
);
layerId = "DD7251A6-C35A-4560-A124-DA829078785F";
shapes = (
{
closed = 1;
nodes = (
(396,0,l),
(284,0,ls),
(170,0,o),
(91,46,o),
(114,167,cs),
(163,410,l),
(59,410,l),
(59,530,l),
(187,530,l),
(228,735,l),
(375,735,l),
(334,530,l),
(490,530,l),
(490,410,l),
(310,410,l),
(261,170,l),
(249,118,o),
(259,120,o),
(312,120,cs),
(396,120,l)
);
}
);
width = 500;
},
{
anchors = (
{
name = mark0;
position = "{336, 735}";
},
{
name = mark0.1;
position = "{301, 735}";
},
{
name = mark0.2;
position = "{543, 735}";
},
{
name = mark0.3;
position = "{189, 0}";
},
{
name = mark0.4;
position = "{219, 0}";
},
{
name = mark0.5;
position = "{234, 307}";
},
{
name = mark0.6;
position = "{262, 368}";
}
);
layerId = "39BC9D91-1289-454F-9557-B2BECA116F6B";
shapes = (
{
closed = 1;
nodes = (
(391,0,l),
(284,0,ls),
(182,0,o),
(115,50,o),
(140,155,c),
(200,455,l),
(67,455,l),
(67,530,l),
(215,530,l),
(256,735,l),
(347,735,l),
(306,530,l),
(489,530,l),
(489,455,l),
(291,455,l),
(230,156,ls),
(218,95,o),
(235,75,o),
(300,75,cs),
(391,75,l)
);
}
);
width = 500;
},
{
anchors = (
{
name = mark0;
position = "{336, 735}";
},
{
name = mark0.1;
position = "{301, 735}";
},
{
name = mark0.2;
position = "{543, 735}";
},
{
name = mark0.3;
position = "{189, 0}";
},
{
name = mark0.4;
position = "{219, 0}";
},
{
name = mark0.5;
position = "{234, 307}";
},
{
name = mark0.6;
position = "{262, 368}";
}
);
layerId = "F450F4C4-4139-41FB-98F6-B6481F1E9B5F";
shapes = (
{
closed = 1;
nodes = (
(384,0,l),
(285,0,ls),
(190,0,o),
(152,53,o),
(172,141,cs),
(246,511,l),
(76,511,l),
(76,530,l),
(250,530,l),
(291,735,l),
(312,735,l),
(271,530,l),
(488,530,l),
(488,511,l),
(267,511,l),
(192,138,ls),
(178,66,o),
(204,19,o),
(285,19,cs),
(384,19,l)
);
}
);
width = 500;
}
);
unicode = 116;
},
{
glyphname = u;
layers = (
{
anchors = (
{
name = mark0;
position = "{345, 530}";
},
{
name = mark0.1;
position = "{581, 530}";
},
{
name = mark0.2;
position = "{239, 0}";
},
{
name = mark0.3;
position = "{475, 0}";
},
{
name = mark0.4;
position = "{294, 276}";
},
{
name = mark0.5;
position = "{292, 265}";
}
);
layerId = "DD7251A6-C35A-4560-A124-DA829078785F";
shapes = (
{
closed = 1;
nodes = (
(108,-8,o),
(42,35,o),
(42,165,c),
(42,189,o),
(45,216,o),
(51,240,c),
(109,530,l),
(257,530,l),
(239,443,o),
(221,356,o),
(204,269,c),
(200,252,o),
(197,234,o),
(194,217,c),
(189,200,o),
(188,183,o),
(191,167,cs),
(197,134,o),
(218,110,o),
(256,112,c),
(359,105,o),
(361,186,o),
(384,290,c),
(433,530,l),
(581,530,l),
(475,0,l),
(327,0,l),
(341,74,l),
(314,19,o),
(242,-8,o),
(192,-8,cs)
);
}
);
width = 600;
},
{
anchors = (
{
name = mark0;
position = "{345, 530}";
},
{
name = mark0.1;
position = "{581, 530}";
},
{
name = mark0.2;
position = "{239, 0}";
},
{
name = mark0.3;
position = "{475, 0}";
},
{
name = mark0.4;
position = "{294, 276}";
},
{
name = mark0.5;
position = "{292, 265}";
}
);
layerId = "39BC9D91-1289-454F-9557-B2BECA116F6B";
shapes = (
{
closed = 1;
nodes = (
(122,-8,o),
(47,37,o),
(50,165,c),
(50,187,o),
(53,212,o),
(58,234,c),
(117,530,l),
(209,530,l),
(189,436,o),
(170,342,o),
(152,248,c),
(148,231,o),
(145,212,o),
(143,195,cs),
(140,169,o),
(143,144,o),
(153,123,c),
(169,86,o),
(202,66,o),
(250,67,c),
(343,63,o),
(396,121,o),
(424,249,c),
(481,530,l),
(573,530,l),
(467,0,l),
(375,0,l),
(393,88,l),
(355,21,o),
(279,-8,o),
(213,-8,cs)
);
}
);
width = 600;
},
{
anchors = (
{
name = mark0;
position = "{345, 530}";
},
{
name = mark0.1;
position = "{581, 530}";
},
{
name = mark0.2;
position = "{239, 0}";
},
{
name = mark0.3;
position = "{475, 0}";
},
{
name = mark0.4;
position = "{294, 276}";
},
{
name = mark0.5;
position = "{292, 265}";
}
);
layerId = "F450F4C4-4139-41FB-98F6-B6481F1E9B5F";
shapes = (
{
closed = 1;
nodes = (
(139,-8,o),
(53,40,o),
(59,165,c),
(59,185,o),
(62,206,o),
(66,226,cs),
(127,530,l),
(148,530,l),
(127,427,o),
(107,325,o),
(86,222,cs),
(82,204,o),
(80,185,o),
(80,167,c),
(79,130,o),
(86,96,o),
(105,69,cs),
(133,27,o),
(181,11,o),
(242,11,cs),
(324,11,o),
(440,39,o),
(475,197,c),
(542,530,l),
(563,530,l),
(457,0,l),
(436,0,l),
(457,105,l),
(406,24,o),
(325,-8,o),
(239,-8,cs)
);
}
);
width = 600;
}
);
unicode = 117;
},
{
glyphname = v;
layers = (
{
anchors = (
{
name = mark0;
position = "{345, 530}";
},
{
name = mark0.1;
position = "{581, 530}";
},
{
name = mark0.2;
position = "{239, 0}";
},
{
name = mark0.3;
position = "{294, 276}";
},
{
name = mark0.4;
position = "{292, 265}";
}
);
layerId = "DD7251A6-C35A-4560-A124-DA829078785F";
shapes = (
{
closed = 1;
nodes = (
(154,0,l),
(82,530,l),
(238,530,l),
(263,177,l),
(264,163,o),
(265,150,o),
(266,136,c),
(273,149,o),
(278,162,o),
(285,177,cs),
(452,530,l),
(608,530,l),
(324,0,l)
);
}
);
width = 600;
},
{
anchors = (
{
name = mark0;
position = "{345, 530}";
},
{
name = mark0.1;
position = "{581, 530}";
},
{
name = mark0.2;
position = "{239, 0}";
},
{
name = mark0.3;
position = "{294, 276}";
},
{
name = mark0.4;
position = "{292, 265}";
}
);
layerId = "39BC9D91-1289-454F-9557-B2BECA116F6B";
shapes = (
{
closed = 1;
nodes = (
(186,0,l),
(94,530,l),
(192,530,l),
(240,177,l),
(245,146,o),
(251,116,o),
(256,86,c),
(266,105,o),
(276,123,o),
(287,143,cs),
(498,530,l),
(596,530,l),
(292,0,l)
);
}
);
width = 600;
},
{
anchors = (
{
name = mark0;
position = "{345, 530}";
},
{
name = mark0.1;
position = "{581, 530}";
},
{
name = mark0.2;
position = "{239, 0}";
},
{
name = mark0.3;
position = "{294, 276}";
},
{
name = mark0.4;
position = "{292, 265}";
}
);
layerId = "F450F4C4-4139-41FB-98F6-B6481F1E9B5F";
shapes = (
{
closed = 1;
nodes = (
(227,0,l),
(110,530,l),
(134,530,l),
(211,177,l),
(221,124,o),
(233,74,o),
(243,23,c),
(258,49,o),
(273,74,o),
(289,100,cs),
(556,530,l),
(580,530,l),
(251,0,l)
);
}
);
width = 600;
}
);
unicode = 118;
},
{
glyphname = w;
layers = (
{
anchors = (
{
name = mark0;
position = "{445, 530}";
},
{
name = mark0.1;
position = "{781, 530}";
},
{
name = mark0.2;
position = "{339, 0}";
},
{
name = mark0.3;
position = "{394, 276}";
},
{
name = mark0.4;
position = "{392, 265}";
}
);
layerId = "DD7251A6-C35A-4560-A124-DA829078785F";
shapes = (
{
closed = 1;
nodes = (
(120,0,l),
(93,530,l),
(242,530,l),
(231,116,l),
(210,117,l),
(347,410,l),
(495,410,l),
(515,116,l),
(494,117,l),
(648,530,l),
(797,530,l),
(558,0,l),
(414,0,l),
(390,302,l),
(407,301,l),
(264,0,l)
);
}
);
width = 800;
},
{
anchors = (
{
name = mark0;
position = "{445, 530}";
},
{
name = mark0.1;
position = "{781, 530}";
},
{
name = mark0.2;
position = "{339, 0}";
},
{
name = mark0.3;
position = "{394, 276}";
},
{
name = mark0.4;
position = "{392, 265}";
}
);
layerId = "39BC9D91-1289-454F-9557-B2BECA116F6B";
shapes = (
{
closed = 1;
nodes = (
(136,0,l),
(101,530,l),
(194,530,l),
(206,71,l),
(191,72,l),
(384,455,l),
(476,455,l),
(515,71,l),
(500,72,l),
(696,530,l),
(789,530,l),
(542,0,l),
(452,0,l),
(410,390,l),
(423,389,l),
(226,0,l)
);
}
);
width = 800;
},
{
anchors = (
{
name = mark0;
position = "{445, 530}";
},
{
name = mark0.1;
position = "{781, 530}";
},
{
name = mark0.2;
position = "{339, 0}";
},
{
name = mark0.3;
position = "{394, 276}";
},
{
name = mark0.4;
position = "{392, 265}";
}
);
layerId = "F450F4C4-4139-41FB-98F6-B6481F1E9B5F";
shapes = (
{
closed = 1;
nodes = (
(157,0,l),
(111,530,l),
(133,530,l),
(175,14,l),
(167,16,l),
(430,511,l),
(452,511,l),
(516,14,l),
(507,16,l),
(757,530,l),
(779,530,l),
(521,0,l),
(499,0,l),
(434,500,l),
(443,498,l),
(179,0,l)
);
}
);
width = 800;
}
);
unicode = 119;
},
{
glyphname = x;
layers = (
{
anchors = (
{
name = mark0;
position = "{345, 530}";
},
{
name = mark0.1;
position = "{581, 530}";
},
{
name = mark0.2;
position = "{239, 0}";
},
{
name = mark0.3;
position = "{294, 276}";
},
{
name = mark0.4;
position = "{292, 265}";
}
);
layerId = "DD7251A6-C35A-4560-A124-DA829078785F";
shapes = (
{
closed = 1;
nodes = (
(-17,0,l),
(221,271,l),
(89,530,l),
(268,530,l),
(315,390,l),
(422,530,l),
(601,530,l),
(362,259,l),
(495,0,l),
(316,0,l),
(269,140,l),
(162,0,l)
);
}
);
width = 600;
},
{
anchors = (
{
name = mark0;
position = "{345, 530}";
},
{
name = mark0.1;
position = "{581, 530}";
},
{
name = mark0.2;
position = "{239, 0}";
},
{
name = mark0.3;
position = "{294, 276}";
},
{
name = mark0.4;
position = "{292, 265}";
}
);
layerId = "39BC9D91-1289-454F-9557-B2BECA116F6B";
shapes = (
{
closed = 1;
nodes = (
(-1,0,l),
(247,269,l),
(105,530,l),
(216,530,l),
(306,342,l),
(474,530,l),
(585,530,l),
(336,261,l),
(479,0,l),
(368,0,l),
(278,188,l),
(110,0,l)
);
}
);
width = 600;
},
{
anchors = (
{
name = mark0;
position = "{345, 530}";
},
{
name = mark0.1;
position = "{581, 530}";
},
{
name = mark0.2;
position = "{239, 0}";
},
{
name = mark0.3;
position = "{294, 276}";
},
{
name = mark0.4;
position = "{292, 265}";
}
);
layerId = "F450F4C4-4139-41FB-98F6-B6481F1E9B5F";
shapes = (
{
closed = 1;
nodes = (
(18,0,l),
(280,266,l),
(124,530,l),
(151,530,l),
(294,281,l),
(539,530,l),
(566,530,l),
(303,264,l),
(460,0,l),
(433,0,l),
(289,249,l),
(45,0,l)
);
}
);
width = 600;
}
);
unicode = 120;
},
{
glyphname = y;
layers = (
{
anchors = (
{
name = mark0;
position = "{345, 530}";
},
{
name = mark0.1;
position = "{581, 530}";
},
{
name = mark0.2;
position = "{198, -205}";
},
{
name = mark0.3;
position = "{307, 0}";
},
{
name = mark0.4;
position = "{274, 177}";
},
{
name = mark0.5;
position = "{271, 163}";
}
);
layerId = "DD7251A6-C35A-4560-A124-DA829078785F";
shapes = (
{
closed = 1;
nodes = (
(-20,-205,l),
(-20,-165,o),
(-20,-125,o),
(-20,-85,c),
(35,-85,l),
(35,-85,o),
(35,-85,o),
(35,-85,c),
(87,-91,o),
(129,-47,o),
(149,2,c),
(169,39,l),
(96,530,l),
(250,530,l),
(276,172,l),
(440,530,l),
(594,530,l),
(488,335,o),
(382,139,o),
(276,-56,cs),
(252,-101,o),
(223,-147,o),
(177,-173,c),
(131,-201,o),
(84,-205,o),
(35,-205,cs)
);
}
);
width = 600;
},
{
anchors = (
{
name = mark0;
position = "{345, 530}";
},
{
name = mark0.1;
position = "{581, 530}";
},
{
name = mark0.2;
position = "{198, -205}";
},
{
name = mark0.3;
position = "{307, 0}";
},
{
name = mark0.4;
position = "{274, 177}";
},
{
name = mark0.5;
position = "{271, 163}";
}
);
layerId = "39BC9D91-1289-454F-9557-B2BECA116F6B";
shapes = (
{
closed = 1;
nodes = (
(4,-205,l),
(4,-180,o),
(3,-155,o),
(3,-130,c),
(51,-130,ls),
(55,-130,o),
(59,-129,o),
(64,-128,c),
(108,-128,o),
(136,-90,o),
(155,-52,c),
(192,10,l),
(103,530,l),
(198,530,l),
(258,96,l),
(492,530,l),
(587,530,l),
(478,339,o),
(370,147,o),
(261,-44,cs),
(236,-89,o),
(207,-134,o),
(169,-168,cs),
(135,-197,o),
(93,-205,o),
(52,-205,cs)
);
}
);
width = 600;
},
{
anchors = (
{
name = mark0;
position = "{345, 530}";
},
{
name = mark0.1;
position = "{581, 530}";
},
{
name = mark0.2;
position = "{198, -205}";
},
{
name = mark0.3;
position = "{307, 0}";
},
{
name = mark0.4;
position = "{274, 177}";
},
{
name = mark0.5;
position = "{271, 163}";
}
);
layerId = "F450F4C4-4139-41FB-98F6-B6481F1E9B5F";
shapes = (
{
closed = 1;
nodes = (
(33,-205,l),
(33,-199,o),
(32,-192,o),
(32,-186,c),
(72,-186,ls),
(81,-186,o),
(90,-184,o),
(100,-182,cs),
(134,-175,o),
(145,-144,o),
(163,-120,c),
(220,-26,l),
(111,530,l),
(133,530,l),
(236,0,l),
(557,530,l),
(579,530,l),
(466,344,o),
(354,158,o),
(242,-28,cs),
(215,-73,o),
(186,-118,o),
(160,-161,c),
(139,-193,o),
(105,-205,o),
(73,-205,cs)
);
}
);
width = 600;
}
);
unicode = 121;
},
{
glyphname = z;
layers = (
{
anchors = (
{
name = mark0;
position = "{345, 530}";
},
{
name = mark0.1;
position = "{581, 530}";
},
{
name = mark0.2;
position = "{239, 0}";
},
{
name = mark0.3;
position = "{475, 0}";
},
{
name = mark0.4;
position = "{294, 276}";
},
{
name = mark0.5;
position = "{292, 265}";
}
);
layerId = "DD7251A6-C35A-4560-A124-DA829078785F";
shapes = (
{
closed = 1;
nodes = (
(3,0,l),
(27,120,l),
(389,410,l),
(85,410,l),
(109,530,l),
(581,530,l),
(557,410,l),
(195,120,l),
(499,120,l),
(475,0,l)
);
}
);
width = 600;
},
{
anchors = (
{
name = mark0;
position = "{345, 530}";
},
{
name = mark0.1;
position = "{581, 530}";
},
{
name = mark0.2;
position = "{239, 0}";
},
{
name = mark0.3;
position = "{475, 0}";
},
{
name = mark0.4;
position = "{294, 276}";
},
{
name = mark0.5;
position = "{292, 265}";
}
);
layerId = "39BC9D91-1289-454F-9557-B2BECA116F6B";
shapes = (
{
closed = 1;
nodes = (
(11,0,l),
(26,75,l),
(453,455,l),
(102,455,l),
(117,530,l),
(573,530,l),
(558,455,l),
(131,75,l),
(482,75,l),
(467,0,l)
);
}
);
width = 600;
},
{
anchors = (
{
name = mark0;
position = "{345, 530}";
},
{
name = mark0.1;
position = "{581, 530}";
},
{
name = mark0.2;
position = "{239, 0}";
},
{
name = mark0.3;
position = "{475, 0}";
},
{
name = mark0.4;
position = "{294, 276}";
},
{
name = mark0.5;
position = "{292, 265}";
}
);
layerId = "F450F4C4-4139-41FB-98F6-B6481F1E9B5F";
shapes = (
{
closed = 1;
nodes = (
(21,0,l),
(24,19,l),
(533,511,l),
(123,511,l),
(127,530,l),
(563,530,l),
(559,511,l),
(50,19,l),
(460,19,l),
(457,0,l)
);
}
);
width = 600;
}
);
unicode = 122;
},
{
glyphname = braceleft;
layers = (
{
layerId = "DD7251A6-C35A-4560-A124-DA829078785F";
shapes = (
{
closed = 1;
nodes = (
(390,-186,l),
(296,-186,o),
(185,-173,o),
(132,-96,cs),
(116,-73,o),
(108,-44,o),
(111,-11,c),
(111,88,o),
(209,173,o),
(199,156,c),
(203,163,o),
(206,170,o),
(208,178,cs),
(226,254,o),
(76,247,o),
(76,247,c),
(100,367,l),
(152,367,o),
(244,372,o),
(260,436,c),
(263,459,o),
(258,478,o),
(253,499,cs),
(247,523,o),
(237,547,o),
(234,572,c),
(218,673,o),
(326,741,o),
(381,764,c),
(405,773,l),
(464,794,o),
(526,800,o),
(588,800,c),
(564,680,l),
(499,680,o),
(390,669,o),
(383,611,cs),
(380,585,o),
(385,560,o),
(394,536,c),
(403,508,o),
(413,480,o),
(410,449,c),
(410,336,o),
(250,296,o),
(280,307,c),
(306,297,o),
(332,277,o),
(346,254,cs),
(358,234,o),
(363,208,o),
(356,178,cs),
(343,116,o),
(315,101,o),
(271,25,cs),
(265,14,o),
(258,2,o),
(261,-11,c),
(269,-80,o),
(405,-66,o),
(414,-66,c)
);
}
);
width = 600;
},
{
layerId = "39BC9D91-1289-454F-9557-B2BECA116F6B";
shapes = (
{
closed = 1;
nodes = (
(383,-186,l),
(294,-186,o),
(185,-167,o),
(151,-85,c),
(141,-65,o),
(136,-41,o),
(140,-15,c),
(144,68,o),
(227,136,o),
(229,154,c),
(232,164,o),
(234,175,o),
(235,186,c),
(241,262,o),
(121,270,o),
(88,270,c),
(103,344,l),
(157,344,o),
(254,352,o),
(284,428,c),
(291,453,o),
(291,478,o),
(286,503,cs),
(280,528,o),
(269,553,o),
(266,580,c),
(254,662,o),
(328,727,o),
(383,758,c),
(408,769,l),
(463,792,o),
(520,800,o),
(581,800,c),
(566,725,l),
(488,725,o),
(372,704,o),
(359,621,cs),
(353,585,o),
(366,554,o),
(374,524,cs),
(381,501,o),
(386,479,o),
(383,455,c),
(376,359,o),
(262,310,o),
(237,307,c),
(274,295,o),
(309,272,o),
(320,233,c),
(328,214,o),
(331,190,o),
(325,166,c),
(313,109,o),
(283,86,o),
(246,25,cs),
(235,6,o),
(228,-15,o),
(233,-36,c),
(241,-109,o),
(362,-111,o),
(398,-111,c)
);
}
);
width = 600;
},
{
layerId = "F450F4C4-4139-41FB-98F6-B6481F1E9B5F";
shapes = (
{
closed = 1;
nodes = (
(375,-186,l),
(291,-186,o),
(186,-160,o),
(175,-72,cs),
(173,-55,o),
(172,-38,o),
(177,-20,c),
(185,42,o),
(250,89,o),
(266,151,c),
(268,165,o),
(270,181,o),
(268,196,cs),
(259,273,o),
(178,298,o),
(102,298,c),
(106,316,l),
(163,316,o),
(266,327,o),
(313,417,cs),
(327,445,o),
(333,479,o),
(328,507,cs),
(322,535,o),
(310,560,o),
(306,590,cs),
(298,649,o),
(330,709,o),
(385,750,c),
(411,765,l),
(462,789,o),
(513,800,o),
(573,800,c),
(569,781,l),
(475,781,o),
(349,747,o),
(328,634,cs),
(319,586,o),
(343,547,o),
(350,508,cs),
(353,493,o),
(352,477,o),
(349,463,cs),
(333,387,o),
(278,328,o),
(183,307,c),
(233,292,o),
(281,265,o),
(288,206,cs),
(290,189,o),
(291,168,o),
(287,151,cs),
(275,101,o),
(242,67,o),
(215,24,cs),
(198,-3,o),
(191,-36,o),
(197,-67,c),
(207,-145,o),
(309,-167,o),
(379,-167,c)
);
}
);
width = 600;
}
);
unicode = 123;
},
{
glyphname = bar;
layers = (
{
anchors = (
{
name = mark0;
position = "{300, 790}";
},
{
name = mark0.1;
position = "{300, -176}";
}
);
layerId = "DD7251A6-C35A-4560-A124-DA829078785F";
shapes = (
{
closed = 1;
nodes = (
(226,-176,l),
(227,790,l),
(374,790,l),
(373,-176,l)
);
}
);
width = 600;
},
{
anchors = (
{
name = mark0;
position = "{300, 790}";
},
{
name = mark0.1;
position = "{300, -176}";
}
);
layerId = "39BC9D91-1289-454F-9557-B2BECA116F6B";
shapes = (
{
closed = 1;
nodes = (
(254,-176,l),
(255,790,l),
(346,790,l),
(345,-176,l)
);
}
);
width = 600;
},
{
anchors = (
{
name = mark0;
position = "{300, 790}";
},
{
name = mark0.1;
position = "{300, -176}";
}
);
layerId = "F450F4C4-4139-41FB-98F6-B6481F1E9B5F";
shapes = (
{
closed = 1;
nodes = (
(289,-176,l),
(290,790,l),
(311,790,l),
(310,-176,l)
);
}
);
width = 600;
}
);
unicode = 124;
},
{
glyphname = braceright;
layers = (
{
layerId = "DD7251A6-C35A-4560-A124-DA829078785F";
shapes = (
{
closed = 1;
nodes = (
(12,-186,l),
(36,-66,l),
(97,-66,o),
(203,-58,o),
(217,3,c),
(220,30,o),
(214,58,o),
(205,84,cs),
(195,114,o),
(185,144,o),
(192,178,c),
(206,239,o),
(259,287,o),
(320,307,c),
(275,331,o),
(228,366,o),
(244,436,c),
(253,503,o),
(295,528,o),
(329,588,cs),
(335,599,o),
(342,613,o),
(339,625,c),
(332,691,o),
(195,680,o),
(186,680,c),
(210,800,l),
(305,800,o),
(422,785,o),
(471,705,cs),
(484,683,o),
(492,657,o),
(489,627,c),
(489,539,o),
(396,449,o),
(401,458,c),
(397,451,o),
(393,444,o),
(392,436,cs),
(379,363,o),
(512,367,o),
(524,367,c),
(500,247,l),
(436,247,o),
(330,238,o),
(340,150,cs),
(342,132,o),
(346,114,o),
(352,97,cs),
(359,75,o),
(365,54,o),
(367,31,c),
(367,-162,o),
(79,-186,o),
(25,-186,c)
);
}
);
width = 600;
},
{
layerId = "39BC9D91-1289-454F-9557-B2BECA116F6B";
shapes = (
{
closed = 1;
nodes = (
(19,-186,l),
(34,-111,l),
(108,-111,o),
(220,-94,o),
(241,-7,c),
(246,29,o),
(233,60,o),
(225,93,c),
(219,117,o),
(212,140,o),
(218,166,c),
(232,234,o),
(288,285,o),
(363,307,c),
(315,326,o),
(268,359,o),
(274,423,c),
(275,490,o),
(310,517,o),
(353,589,c),
(365,607,o),
(371,629,o),
(367,650,c),
(356,722,o),
(238,725,o),
(202,725,c),
(217,800,l),
(301,800,o),
(416,783,o),
(451,697,cs),
(459,677,o),
(463,655,o),
(460,630,c),
(454,552,o),
(374,483,o),
(371,460,c),
(368,449,o),
(365,439,o),
(365,428,c),
(361,353,o),
(473,344,o),
(512,344,c),
(497,270,l),
(427,270,o),
(327,253,o),
(316,170,c),
(311,147,o),
(310,122,o),
(316,101,cs),
(323,76,o),
(331,53,o),
(334,28,c),
(342,-135,o),
(121,-186,o),
(26,-186,cs)
);
}
);
width = 600;
},
{
layerId = "F450F4C4-4139-41FB-98F6-B6481F1E9B5F";
shapes = (
{
closed = 1;
nodes = (
(31,-167,l),
(122,-167,o),
(242,-138,o),
(272,-20,c),
(278,28,o),
(256,62,o),
(250,105,cs),
(248,120,o),
(246,135,o),
(251,151,c),
(264,228,o),
(324,282,o),
(417,307,c),
(364,319,o),
(317,351,o),
(311,407,cs),
(303,474,o),
(329,504,o),
(384,590,cs),
(402,618,o),
(407,649,o),
(403,681,c),
(387,761,o),
(291,781,o),
(221,781,c),
(225,800,l),
(297,800,o),
(409,781,o),
(425,686,cs),
(428,669,o),
(426,652,o),
(423,634,cs),
(410,568,o),
(346,525,o),
(334,463,cs),
(331,446,o),
(331,432,o),
(332,417,cs),
(338,340,o),
(424,316,o),
(498,316,c),
(494,298,l),
(416,298,o),
(324,272,o),
(287,196,cs),
(272,165,o),
(265,133,o),
(271,107,cs),
(277,78,o),
(289,52,o),
(293,24,cs),
(310,-102,o),
(173,-186,o),
(27,-186,c)
);
}
);
width = 600;
}
);
unicode = 125;
},
{
glyphname = asciitilde;
layers = (
{
anchors = (
{
name = mark0;
position = "{349, 552}";
},
{
name = mark0.1;
position = "{585, 552}";
},
{
name = mark0.2;
position = "{251, 62}";
},
{
name = mark0.3;
position = "{302, 317}";
},
{
name = mark0.4;
position = "{300, 307}";
}
);
layerId = "DD7251A6-C35A-4560-A124-DA829078785F";
shapes = (
{
closed = 1;
nodes = (
(90,139,l),
(-18,199,l),
(-17,201,o),
(-15,203,o),
(-14,205,cs),
(3,228,l),
(11,238,l),
(33,270,o),
(60,303,o),
(84,327,c),
(124,361,ls),
(152,384,o),
(190,394,o),
(216,394,cs),
(264,394,o),
(306,367,o),
(328,331,c),
(343,309,l),
(348,300,l),
(357,283,o),
(376,258,o),
(376,253,c),
(373,253,o),
(369,253,o),
(366,253,c),
(367,253,o),
(368,254,o),
(369,255,c),
(369,255,o),
(369,255,o),
(369,255,c),
(369,255,o),
(369,255,o),
(369,255,c),
(369,255,o),
(369,255,o),
(369,255,c),
(384,266,l),
(402,283,l),
(406,287,o),
(414,293,o),
(417,298,c),
(424,307,l),
(425,308,o),
(426,310,o),
(427,311,c),
(433,319,ls),
(436,323,o),
(440,328,o),
(443,332,c),
(467,364,ls),
(472,371,o),
(477,377,o),
(482,384,cs),
(495,402,l),
(603,342,l),
(599,336,l),
(593,329,o),
(589,320,o),
(583,313,c),
(560,282,l),
(535,250,l),
(508,220,l),
(501,213,l),
(494,207,o),
(487,201,o),
(480,195,c),
(461,181,l),
(433,159,o),
(397,147,o),
(369,147,cs),
(325,147,o),
(280,172,o),
(257,210,cs),
(253,216,o),
(249,222,o),
(246,228,c),
(238,241,ls),
(227,258,o),
(211,286,o),
(209,288,c),
(211,288,o),
(219,289,o),
(219,287,c),
(216,285,l),
(215,284,o),
(214,283,o),
(213,283,c),
(213,283,o),
(213,283,o),
(213,283,c),
(213,283,o),
(213,283,o),
(213,283,c),
(213,283,o),
(213,283,o),
(213,283,c),
(208,280,o),
(205,276,o),
(201,273,cs),
(191,265,l),
(182,256,o),
(175,251,o),
(169,242,c),
(162,233,l),
(159,230,o),
(155,225,o),
(152,222,cs),
(145,214,l),
(136,202,o),
(128,191,o),
(118,178,cs),
(98,151,l)
);
}
);
width = 600;
},
{
anchors = (
{
name = mark0;
position = "{349, 552}";
},
{
name = mark0.1;
position = "{585, 552}";
},
{
name = mark0.2;
position = "{251, 62}";
},
{
name = mark0.3;
position = "{302, 317}";
},
{
name = mark0.4;
position = "{300, 307}";
}
);
layerId = "39BC9D91-1289-454F-9557-B2BECA116F6B";
shapes = (
{
closed = 1;
nodes = (
(76,141,l),
(8,179,l),
(11,182,o),
(13,187,o),
(15,191,c),
(35,220,l),
(44,234,l),
(67,267,o),
(94,303,o),
(109,318,c),
(142,348,ls),
(163,367,o),
(194,381,o),
(219,381,cs),
(257,381,o),
(290,353,o),
(308,318,cs),
(322,292,l),
(327,280,ls),
(338,252,o),
(352,228,o),
(356,221,c),
(356,219,o),
(355,217,o),
(355,216,c),
(358,215,o),
(360,215,o),
(363,215,c),
(365,215,o),
(368,216,o),
(370,217,cs),
(372,218,o),
(374,219,o),
(376,221,cs),
(377,222,o),
(379,223,o),
(381,225,cs),
(400,242,l),
(416,260,l),
(420,265,o),
(427,272,o),
(432,278,cs),
(440,289,l),
(440,290,o),
(441,291,o),
(441,291,c),
(449,302,ls),
(452,307,o),
(455,312,o),
(459,316,c),
(481,348,l),
(485,355,o),
(489,361,o),
(494,368,cs),
(506,386,l),
(574,349,l),
(567,336,l),
(560,326,o),
(554,316,o),
(548,307,cs),
(526,275,l),
(503,245,l),
(480,217,l),
(473,209,ls),
(468,204,o),
(463,199,o),
(457,194,cs),
(441,180,ls),
(418,160,o),
(389,147,o),
(363,147,cs),
(321,147,o),
(289,182,o),
(274,210,cs),
(271,215,o),
(268,221,o),
(265,226,c),
(258,241,l),
(249,258,o),
(236,285,o),
(232,294,c),
(232,296,o),
(236,299,o),
(235,299,c),
(230,304,ls),
(227,307,o),
(223,311,o),
(218,311,cs),
(215,311,o),
(213,310,o),
(211,309,cs),
(208,307,o),
(206,306,o),
(205,305,c),
(203,304,o),
(201,303,o),
(200,301,c),
(193,296,o),
(187,288,o),
(183,284,cs),
(174,276,l),
(165,265,o),
(158,258,o),
(151,248,cs),
(143,237,l),
(140,234,o),
(136,229,o),
(133,225,cs),
(125,214,ls),
(117,203,o),
(110,191,o),
(102,179,cs),
(81,147,l)
);
}
);
width = 600;
},
{
anchors = (
{
name = mark0;
position = "{349, 552}";
},
{
name = mark0.1;
position = "{585, 552}";
},
{
name = mark0.2;
position = "{251, 62}";
},
{
name = mark0.3;
position = "{302, 317}";
},
{
name = mark0.4;
position = "{300, 307}";
}
);
layerId = "F450F4C4-4139-41FB-98F6-B6481F1E9B5F";
shapes = (
{
closed = 1;
nodes = (
(59,143,l),
(41,153,l),
(45,159,o),
(48,166,o),
(52,173,cs),
(75,211,l),
(86,228,ls),
(109,263,o),
(137,303,o),
(141,307,cs),
(164,332,ls),
(177,346,o),
(200,364,o),
(223,364,cs),
(249,364,o),
(271,336,o),
(284,301,cs),
(295,271,l),
(301,255,l),
(314,214,o),
(323,190,o),
(332,181,cs),
(335,177,o),
(338,173,o),
(342,170,cs),
(346,167,o),
(350,166,o),
(356,166,cs),
(361,166,o),
(366,167,o),
(371,170,cs),
(376,172,o),
(380,175,o),
(384,178,cs),
(388,180,o),
(392,183,o),
(396,187,cs),
(419,212,l),
(434,231,l),
(437,238,o),
(444,246,o),
(450,254,cs),
(459,267,l),
(459,267,o),
(459,267,o),
(459,267,c),
(468,281,ls),
(471,286,o),
(474,291,o),
(478,296,c),
(498,329,ls),
(501,335,o),
(504,341,o),
(508,347,cs),
(520,367,l),
(538,358,l),
(526,337,ls),
(518,323,o),
(510,311,o),
(504,299,c),
(483,266,l),
(464,238,l),
(446,214,l),
(438,204,ls),
(435,200,o),
(432,196,o),
(428,192,cs),
(415,178,ls),
(400,162,o),
(378,147,o),
(356,147,cs),
(316,147,o),
(301,194,o),
(295,209,cs),
(293,214,o),
(291,219,o),
(289,224,cs),
(283,240,ls),
(276,259,o),
(268,284,o),
(261,302,cs),
(259,306,o),
(257,311,o),
(255,315,cs),
(247,328,l),
(241,335,o),
(235,345,o),
(224,345,cs),
(218,345,o),
(213,343,o),
(208,341,cs),
(202,338,o),
(198,335,o),
(194,333,cs),
(190,330,o),
(187,327,o),
(183,323,cs),
(175,315,o),
(164,304,o),
(160,298,c),
(152,289,l),
(144,276,o),
(136,266,o),
(129,256,cs),
(120,243,l),
(116,239,o),
(113,234,o),
(110,229,cs),
(101,214,l),
(93,204,o),
(87,192,o),
(81,181,cs)
);
}
);
width = 600;
}
);
unicode = 126;
},
